<svg xmlns="http://www.w3.org/2000/svg">
    <symbol viewBox="0 0 37 52" id="icon-calculate">
        <path fill="#FFF" d="M31.823 23.234h-6.757c-.45 0-.817.372-.817.83v3.32c0 .458.364.83.815.83h6.757c.45 0 .817-.373.817-.83v-3.32c0-.458-.367-.83-.818-.83zm-.817 3.32h-5.122v-1.66h5.122v1.66zm0 0-19.154 13H5.177c-.45 0-.817.372-.817.83v6.36c0 .46.366.83.817.83h6.675c.45 0 .817-.37.817-.83v-6.36c0-.458-.368-.83-.82-.83zm-.817 6.36h-5.04v-4.7h5.04v4.7zm0 0 10.762-6.36h-6.675c-.452 0-.818.372-.818.83v6.36c0 .46.366.83.818.83h6.675c.45 0 .817-.37.817-.83v-6.36c0-.458-.366-.83-.817-.83zm-.818 6.36h-5.04v-4.7h5.04v4.7zm0 0-9.128-16.04H5.177c-.45 0-.817.37-.817.83v6.36c0 .46.366.83.817.83h6.675c.45 0 .817-.37.817-.83v-6.36c0-.46-.368-.83-.82-.83zm-.817 6.36h-5.04v-4.7h5.04v4.7zm0 0 10.762-6.36h-6.675c-.452 0-.818.37-.818.83v6.36c0 .46.366.83.818.83h6.675c.45 0 .817-.37.817-.83v-6.36c0-.46-.366-.83-.817-.83zm-.818 6.36h-5.04v-4.7h5.04v4.7zm0 0 10.843-6.36h-6.757c-.45 0-.817.37-.817.83v16.04c0 .46.364.83.815.83h6.757c.45 0 .817-.37.817-.83v-5.53c0-.46-.367-.83-.818-.83-.452 0-.818.37-.818.83v4.7h-5.122v-14.38h5.122v6.36c0 .46.366.83.818.83.45 0 .817-.37.817-.83v-7.19c0-.46-.367-.83-.818-.83zm0 0M32.913 0H4.087C1.833 0 0 1.86 0 4.15v43.7C0 50.137 1.833 52 4.087 52h28.826C35.166 52 37 50.14 37 47.85V4.15C37 1.86 35.166 0 32.913 0zm2.452 47.852c0 1.372-1.1 2.49-2.452 2.49H4.087c-1.352 0-2.452-1.12-2.452-2.49V4.15c0-1.374 1.1-2.49 2.452-2.49h28.826c1.352 0 2.452 1.117 2.452 2.49v43.7zm0 0M31.823 4.426H5.26c-.453 0-.82.372-.82.83v9.956c0 .46.367.83.82.83h26.563c.45 0 .817-.372.817-.83V5.255c0-.458-.366-.83-.817-.83zM6.076 6.086h10.287L8.19 14.382H6.076V6.085zm24.93 8.297H17.04l2.353-2.39c.32-.324.32-.848 0-1.172-.32-.322-.837-.322-1.156 0l-3.51 3.564H10.5l8.176-8.298h4.227l-2.353 2.39c-.32.323-.32.848 0 1.172.16.162.368.243.577.243.21 0 .418-.08.578-.242l3.51-3.562h5.79v8.298zm0 0 .817 4.425h-16.7c-.453 0-.82.372-.82.83 0 .46.367.83.82.83h16.7c.452 0 .818-.37.818-.83 0-.457-.365-.83-.816-.83zm0 0-19.97 0H5.26c-.453 0-.82.372-.82.83 0 .46.367.83.82.83h6.592c.45 0 .817-.37.817-.83 0-.457-.368-.83-.82-.83zm0 0" />
    </symbol>
    <symbol viewBox="0 0 16 16" id="icon-tel">
        <path fill="#FFF" d="M13.463 9.34c-.767-.79-1.897-.793-2.687-.007l-.99.993-.13-.064-.064-.034c-.094-.048-.183-.093-.266-.145-1.014-.64-1.94-1.48-2.826-2.57-.388-.486-.657-.897-.854-1.307.244-.228.478-.463.704-.69l.295-.3c.403-.402.617-.872.617-1.358 0-.484-.213-.953-.617-1.36L5.28 1.13C5.094.94 4.903.746 4.718.572c-.762-.758-1.877-.768-2.678 0L.835 1.77c-.483.48-.76 1.07-.82 1.757-.067.813.08 1.666.46 2.683.573 1.547 1.436 2.982 2.715 4.52 1.553 1.85 3.422 3.308 5.558 4.336.82.39 1.92.846 3.174.928.076.002.15.006.222.006.884 0 1.596-.305 2.168-.926l.055-.065c.157-.187.337-.36.527-.546l.12-.114c.128-.125.26-.253.384-.385.792-.823.787-1.91-.01-2.707L13.462 9.34zm-8.99-3.92c-.426.427-.28.866-.214 1.056.255.618.614 1.2 1.164 1.897.988 1.21 2.022 2.148 3.16 2.868.15.095.305.176.448.244l.06.03c.096.05.188.096.27.15l.06.032c.394.2.802.13 1.128-.193l1.2-1.194c.284-.286.575-.17.736 0l1.93 1.924c.272.27.27.5-.013.794-.133.14-.27.273-.42.416l-.043.04c-.216.21-.44.426-.638.664-.312.336-.67.487-1.16.487-.05 0-.102-.004-.15-.006-1.01-.066-1.947-.46-2.65-.798-1.954-.94-3.67-2.28-5.097-3.978-1.177-1.41-1.965-2.718-2.482-4.118-.31-.83-.43-1.494-.383-2.092.03-.355.168-.65.423-.9l1.187-1.19c.13-.122.266-.19.387-.19.118 0 .243.065.376.198.212.198.413.402.626.62l1.284 1.29c.098.097.214.243.214.388 0 .146-.117.292-.215.39l-.302.303c-.293.304-.56.577-.89.867zM15.324.01h-4.057c-.38 0-.69.307-.69.686 0 .38.31.686.69.686h2.397L8.924 6.11c-.13.13-.203.304-.202.49 0 .182.074.353.2.477.13.13.304.202.488.202s.357-.074.487-.204l4.738-4.726v2.39c0 .38.31.688.69.688.38 0 .688-.308.688-.688V.696c0-.38-.31-.687-.69-.687z" />
    </symbol>
</svg>
