<svg version="1" xmlns="http://www.w3.org/2000/svg" width="533.333" height="533.333" viewBox="0 0 400.000000 400.000000"><path d="M235.8 44.6c-1.2.7-3.3 2.6-4.5 4.3-2.7 3.6-3.1 11.6-.9 19.9 5.4 20 27.5 50 53.1 71.7 40 34.1 74.8 39.8 72.2 11.8-1.6-17-17.1-42.5-39.7-65.3-18.6-18.8-30.6-27.9-47.9-36.6-13.9-6.9-26-9.1-32.3-5.8z"/><path d="M166 45.1c-8.8 1.2-13.5 4.3-17.3 11.4-1.8 3.4-2.2 5.6-2.1 14 .1 8.5.6 11.4 3.3 19.5 3.7 10.9 11.6 27 18.6 38 40 62.7 116.2 122.7 158.1 124.5 10.2.5 15.2-.8 20.3-5.1 8.6-7.4 9.8-21 3.5-40.2-3.6-11.3-8.5-20.5-10.9-20.8-1.1-.1-4.5-.5-7.6-.8-9.4-1-19.4-5-35.9-14.4-32.4-18.5-56.7-44.2-73.3-77.5-4.1-8.3-8.2-18.3-8.5-21-.1-.4-.4-2.3-.8-4.1-.3-1.9-.7-5.2-.7-7.3-.2-3.6-.5-3.9-6.7-7-13.5-6.7-30.3-10.5-40-9.2z"/><path d="M81.7 63.1c-8.5 2-14.6 7.2-18.6 15.9-2.1 4.7-2.5 6.9-2.5 15.5.2 57.6 80.3 160.7 167.6 215.6 22 13.8 48.7 25.2 64.8 27.7 7 1 19.1.7 24-.7 19.3-5.4 25-26.5 15.4-57.6-1.3-4.4-2.8-8.6-3.3-9.3-.4-.8-5.3-2.4-10.7-3.7-40.9-9.8-75-30.5-114.3-69.5-40.3-40.1-62.9-76.7-71.6-116.5-1-4.4-1.9-8.5-2-9.1-.4-1.3-12.6-5.6-22-7.7-7-1.6-21.3-2-26.8-.6z"/><path d="M55 150.1c-7.1 2.9-11.8 11.6-11.8 21.9.2 56.4 98.8 163 167.8 181.4 15.1 4 26.8 2.9 33.3-3.2 3.1-2.9 5.7-7.2 5.7-9.4 0-.8-3.5-3.1-7.8-5.2-12.3-6.1-27.6-15-43.2-25.4-8-5.2-14.7-9.8-15-10.1-.3-.3-3.4-2.8-7-5.6-16.5-12.5-44.9-38.9-55-51-1.4-1.7-5-5.9-8-9.5-17.8-21-37.8-51.4-50.1-76.3-2.4-4.8-4.8-8.7-5.4-8.6-.5 0-2.1.5-3.5 1z"/><path d="M45.5 234c-1.4 1.5-2 3.9-2.1 8.8-.6 15.7 7.5 38.2 20.8 58 10.8 16.1 31.4 33.6 50.1 42.5 8.7 4.3 22.4 9.4 27 10.3 14.3 2.6 21.1 2.5 24.1-.5 1.8-1.9 1.8-1.9-1-3.7-18.9-11.6-42.2-28.2-51.9-36.9-10.5-9.3-24.6-24.1-32.9-34.5C68.4 264 49 235.5 49 233c0-1.6-1.6-1.1-3.5 1z"/></svg>