<?xml version="1.0" standalone="no"?>
<!DOCTYPE svg PUBLIC "-//W3C//DTD SVG 20010904//EN"
 "http://www.w3.org/TR/2001/REC-SVG-20010904/DTD/svg10.dtd">
<svg version="1.0" xmlns="http://www.w3.org/2000/svg"
 width="800.000000pt" height="800.000000pt" viewBox="0 0 800.000000 800.000000"
 preserveAspectRatio="xMidYMid meet">
<metadata>
Created by potrace 1.11, written by Peter Selinger 2001-2013
</metadata>
<g transform="translate(0.000000,800.000000) scale(0.100000,-0.100000)"
fill="#000000" stroke="none">
<path d="M1500 6280 c0 -286 3 -520 8 -521 43 -6 405 -2 409 4 3 5 5 146 5
313 l-1 304 2079 0 2078 0 0 -304 c0 -168 2 -308 5 -313 4 -6 365 -10 410 -4
4 1 7 235 7 521 l0 520 -2500 0 -2500 0 0 -520z"/>
<path d="M1510 2242 c-6 -2 -10 -186 -10 -523 l0 -519 2500 0 2500 0 -2 522
-3 522 -203 0 c-112 1 -206 -3 -209 -7 -3 -5 -5 -145 -5 -313 l0 -304 -2078 0
-2079 0 0 278 c0 152 0 293 0 312 l-1 35 -200 0 c-110 0 -204 -1 -210 -3z"/>
</g>
</svg>
