<svg xmlns="http://www.w3.org/2000/svg" xmlns:xlink="http://www.w3.org/1999/xlink" width="1206.52" height="177.359" viewBox="0 0 1206.52 177.359"><defs><path id="a" d="M0 0h1206.518v177.359H0z"/></defs><clipPath id="b"><use xlink:href="#a" overflow="visible"/></clipPath><path clip-path="url(#b)" fill="#009EE3" d="M69.813 88.974c0 5.997-.788 11.535-2.363 16.615-1.576 5.083-3.887 9.451-6.935 13.109-3.049 3.659-6.784 6.505-11.204 8.536-4.421 2.032-9.477 3.049-15.167 3.049-4.573 0-8.612-.61-12.118-1.829-3.506-1.22-6.124-2.387-7.851-3.506v39.036H0V51.628c3.353-.812 7.545-1.7 12.575-2.667 5.03-.965 10.846-1.448 17.454-1.448 6.097 0 11.584.967 16.462 2.896 4.878 1.932 9.043 4.675 12.499 8.231 3.454 3.558 6.122 7.903 8.003 13.033 1.879 5.132 2.82 10.899 2.82 17.301m-14.785 0c0-9.246-2.286-16.36-6.859-21.34-4.573-4.978-10.67-7.469-18.292-7.469-4.268 0-7.598.152-9.984.457-2.389.305-4.295.662-5.717 1.067v49.997c1.727 1.424 4.216 2.796 7.47 4.116 3.251 1.322 6.806 1.981 10.67 1.981 4.063 0 7.545-.735 10.441-2.209 2.897-1.473 5.259-3.507 7.088-6.098 1.829-2.592 3.149-5.64 3.964-9.146.811-3.506 1.219-7.29 1.219-11.356M119.047 47.512c1.22 0 2.615.076 4.192.229 1.574.152 3.125.357 4.649.61 1.524.254 2.92.509 4.192.761 1.269.255 2.21.484 2.82.686l-2.439 12.347c-1.119-.404-2.973-.888-5.564-1.448-2.591-.557-5.921-.838-9.984-.838-2.644 0-5.259.281-7.85.838-2.592.56-4.295.941-5.107 1.143v66.613H89.78v-75.91c3.354-1.219 7.519-2.363 12.499-3.43 4.978-1.067 10.568-1.601 16.768-1.601M161.628 32.86c-2.541 0-4.701-.838-6.478-2.515-1.779-1.676-2.668-3.937-2.668-6.783 0-2.844.889-5.106 2.668-6.783 1.777-1.677 3.937-2.515 6.478-2.515 2.539 0 4.7.838 6.479 2.515 1.776 1.677 2.667 3.939 2.667 6.783 0 2.846-.891 5.107-2.667 6.783-1.779 1.677-3.94 2.515-6.479 2.515m7.165 95.593h-14.176V49.188h14.176v79.265zM189.18 51.476c3.251-.813 7.545-1.677 12.881-2.591 5.334-.915 11.508-1.372 18.52-1.372 5.08 0 9.348.686 12.804 2.058 3.453 1.372 6.35 3.379 8.689 6.02.709-.507 1.829-1.219 3.353-2.134 1.524-.914 3.404-1.803 5.64-2.667 2.234-.862 4.726-1.625 7.469-2.287 2.744-.659 5.69-.99 8.841-.99 6.097 0 11.075.89 14.938 2.667 3.861 1.779 6.884 4.294 9.07 7.546 2.184 3.253 3.658 7.114 4.421 11.585.762 4.472 1.143 9.35 1.143 14.633v44.51h-14.176V86.993c0-4.673-.229-8.69-.686-12.043-.458-3.353-1.322-6.147-2.591-8.383-1.272-2.234-2.999-3.888-5.183-4.955-2.186-1.067-5.007-1.6-8.46-1.6-4.778 0-8.715.636-11.813 1.905-3.102 1.272-5.209 2.416-6.326 3.43.812 2.644 1.421 5.54 1.829 8.689.405 3.15.61 6.454.61 9.908v44.51h-14.177V86.993c0-4.673-.255-8.69-.762-12.043-.509-3.353-1.398-6.147-2.667-8.383-1.272-2.234-2.999-3.888-5.183-4.955-2.186-1.067-4.954-1.6-8.307-1.6-1.425 0-2.949.052-4.573.153-1.627.102-3.178.228-4.65.38a66.653 66.653 0 0 0-4.039.534c-1.219.205-2.034.357-2.439.457v66.918H189.18V51.476z"/><path clip-path="url(#b)" fill="#FFF" d="M495.838 51.476c3.251-.813 7.569-1.677 12.957-2.591 5.385-.915 11.585-1.372 18.597-1.372 6.299 0 11.532.89 15.7 2.667 4.166 1.779 7.493 4.268 9.984 7.469 2.489 3.202 4.242 7.038 5.259 11.509 1.015 4.472 1.524 9.4 1.524 14.786v44.51h-14.176V86.993c0-4.879-.331-9.044-.991-12.5-.661-3.454-1.753-6.25-3.277-8.384-1.524-2.134-3.558-3.682-6.097-4.649-2.541-.965-5.692-1.448-9.451-1.448-1.524 0-3.101.052-4.726.153-1.626.102-3.177.228-4.648.38a58.699 58.699 0 0 0-3.963.534c-1.17.205-2.008.357-2.516.457v66.918h-14.176V51.476zM631.025 120.527c-1.22.815-3.582 1.855-7.089 3.125-3.505 1.272-7.597 1.905-12.27 1.905-4.778 0-9.275-.762-13.49-2.286a29.267 29.267 0 0 1-11.051-7.088c-3.151-3.201-5.64-7.188-7.469-11.966-1.83-4.775-2.744-10.465-2.744-17.072 0-5.793.862-11.102 2.591-15.929 1.727-4.826 4.242-8.994 7.545-12.5 3.302-3.506 7.341-6.25 12.119-8.231 4.775-1.982 10.16-2.972 16.158-2.972 6.604 0 12.37.483 17.301 1.448 4.927.967 9.069 1.855 12.422 2.667v77.728c0 12.195-3.15 21.036-9.45 26.523-6.303 5.488-15.853 8.231-28.658 8.231-4.98 0-9.679-.406-14.099-1.219-4.421-.814-8.257-1.779-11.509-2.896l2.591-12.347c2.845 1.117 6.327 2.108 10.443 2.973 4.115.862 8.406 1.295 12.879 1.295 8.434 0 14.505-1.677 18.216-5.03 3.708-3.353 5.564-8.689 5.564-16.005v-10.354zm-.153-58.838c-1.424-.405-3.33-.786-5.716-1.144-2.389-.355-5.616-.533-9.679-.533-7.621 0-13.49 2.491-17.606 7.469-4.116 4.98-6.173 11.585-6.173 19.816 0 4.573.583 8.486 1.752 11.737 1.168 3.254 2.744 5.945 4.726 8.079 1.981 2.134 4.268 3.711 6.859 4.725a21.721 21.721 0 0 0 8.003 1.525c3.758 0 7.214-.534 10.365-1.6 3.149-1.068 5.64-2.311 7.469-3.735V61.689zM672.447 32.86c-2.541 0-4.701-.838-6.479-2.515-1.778-1.676-2.667-3.937-2.667-6.783 0-2.844.889-5.106 2.667-6.783 1.778-1.677 3.938-2.515 6.479-2.515 2.539 0 4.7.838 6.478 2.515s2.668 3.939 2.668 6.783c0 2.846-.89 5.107-2.668 6.783-1.778 1.677-3.939 2.515-6.478 2.515m7.164 95.593h-14.176V49.188h14.176v79.265zM699.998 51.476c3.252-.813 7.569-1.677 12.957-2.591 5.385-.915 11.585-1.372 18.597-1.372 6.299 0 11.532.89 15.7 2.667 4.166 1.779 7.493 4.268 9.984 7.469 2.489 3.202 4.242 7.038 5.259 11.509 1.015 4.472 1.524 9.4 1.524 14.786v44.51h-14.176V86.993c0-4.879-.331-9.044-.991-12.5-.661-3.454-1.753-6.25-3.276-8.384-1.525-2.134-3.559-3.682-6.098-4.649-2.541-.965-5.692-1.448-9.451-1.448a76.24 76.24 0 0 0-4.725.153c-1.627.102-3.177.228-4.649.38a58.699 58.699 0 0 0-3.963.534c-1.17.205-2.008.357-2.516.457v66.918h-14.176V51.476zM781.072 88.973c0-7.011 1.015-13.133 3.048-18.368 2.032-5.233 4.726-9.577 8.079-13.033 3.354-3.453 7.215-6.044 11.585-7.774 4.368-1.727 8.841-2.591 13.414-2.591 10.67 0 18.849 3.33 24.542 9.984 5.69 6.657 8.536 16.794 8.536 30.41v2.363c0 .967-.053 1.855-.152 2.667h-54.266c.61 8.232 2.996 14.482 7.164 18.749 4.166 4.269 10.67 6.402 19.511 6.402 4.978 0 9.17-.431 12.576-1.295 3.404-.862 5.968-1.701 7.698-2.515l1.982 11.889c-1.73.915-4.752 1.882-9.071 2.897-4.32 1.015-9.222 1.524-14.709 1.524-6.912 0-12.88-1.043-17.911-3.125-5.03-2.082-9.171-4.954-12.423-8.612-3.253-3.658-5.666-8.003-7.24-13.033-1.577-5.03-2.363-10.541-2.363-16.539m54.418-7.774c.1-6.402-1.501-11.661-4.802-15.777-3.303-4.115-7.85-6.173-13.642-6.173-3.254 0-6.123.636-8.612 1.905-2.491 1.272-4.6 2.923-6.327 4.954-1.729 2.035-3.074 4.371-4.039 7.013a34.522 34.522 0 0 0-1.905 8.078h39.327zM867.28 88.973c0-7.011 1.015-13.133 3.048-18.368 2.032-5.233 4.726-9.577 8.079-13.033 3.354-3.453 7.215-6.044 11.585-7.774 4.368-1.727 8.841-2.591 13.414-2.591 10.67 0 18.849 3.33 24.542 9.984 5.69 6.657 8.536 16.794 8.536 30.41v2.363c0 .967-.053 1.855-.152 2.667h-54.266c.61 8.232 2.996 14.482 7.164 18.749 4.166 4.269 10.67 6.402 19.511 6.402 4.978 0 9.17-.431 12.576-1.295 3.403-.862 5.968-1.701 7.697-2.515l1.982 11.889c-1.729.915-4.751 1.882-9.07 2.897-4.32 1.015-9.222 1.524-14.709 1.524-6.912 0-12.88-1.043-17.911-3.125-5.03-2.082-9.171-4.954-12.423-8.612-3.253-3.658-5.666-8.003-7.24-13.033-1.577-5.03-2.363-10.541-2.363-16.539m54.418-7.774c.1-6.402-1.501-11.661-4.802-15.777-3.303-4.115-7.85-6.173-13.642-6.173-3.254 0-6.123.636-8.612 1.905-2.492 1.272-4.6 2.923-6.327 4.954-1.729 2.035-3.074 4.371-4.039 7.013a34.522 34.522 0 0 0-1.905 8.078h39.327zM985.175 47.512c1.219 0 2.616.076 4.192.229 1.574.152 3.125.357 4.649.61 1.524.254 2.92.509 4.192.761 1.269.255 2.21.484 2.82.686l-2.439 12.347c-1.12-.404-2.972-.888-5.563-1.448-2.592-.557-5.921-.838-9.985-.838-2.643 0-5.258.281-7.85.838-2.591.56-4.295.941-5.107 1.143v66.613h-14.176v-75.91c3.354-1.219 7.519-2.363 12.5-3.43 4.977-1.067 10.567-1.601 16.767-1.601M1027.757 32.86c-2.541 0-4.702-.838-6.479-2.515-1.779-1.676-2.667-3.937-2.667-6.783 0-2.844.888-5.106 2.667-6.783 1.777-1.677 3.938-2.515 6.479-2.515 2.539 0 4.699.838 6.478 2.515 1.777 1.677 2.668 3.939 2.668 6.783 0 2.846-.891 5.107-2.668 6.783-1.779 1.677-3.939 2.515-6.478 2.515m7.164 95.593h-14.176V49.188h14.176v79.265zM1055.308 51.476c3.252-.813 7.569-1.677 12.957-2.591 5.385-.915 11.585-1.372 18.597-1.372 6.299 0 11.532.89 15.7 2.667 4.166 1.779 7.493 4.268 9.984 7.469 2.489 3.202 4.242 7.038 5.259 11.509 1.015 4.472 1.524 9.4 1.524 14.786v44.51h-14.176V86.993c0-4.879-.331-9.044-.991-12.5-.661-3.454-1.753-6.25-3.276-8.384-1.525-2.134-3.559-3.682-6.098-4.649-2.541-.965-5.692-1.448-9.451-1.448a76.24 76.24 0 0 0-4.725.153c-1.627.102-3.177.228-4.649.38a58.699 58.699 0 0 0-3.963.534c-1.17.205-2.008.357-2.516.457v66.918h-14.176V51.476zM1192.495 120.527c-1.22.815-3.582 1.855-7.089 3.125-3.505 1.272-7.597 1.905-12.27 1.905-4.778 0-9.275-.762-13.49-2.286a29.267 29.267 0 0 1-11.051-7.088c-3.152-3.201-5.641-7.188-7.469-11.966-1.83-4.775-2.744-10.465-2.744-17.072 0-5.793.862-11.102 2.591-15.929 1.726-4.826 4.242-8.994 7.545-12.5 3.302-3.506 7.341-6.25 12.118-8.231 4.776-1.982 10.161-2.972 16.159-2.972 6.604 0 12.37.483 17.301 1.448 4.927.967 9.069 1.855 12.422 2.667v77.728c0 12.195-3.15 21.036-9.45 26.523-6.303 5.488-15.853 8.231-28.658 8.231-4.98 0-9.679-.406-14.099-1.219-4.421-.814-8.258-1.779-11.509-2.896l2.591-12.347c2.844 1.117 6.326 2.108 10.442 2.973 4.115.862 8.407 1.295 12.88 1.295 8.434 0 14.505-1.677 18.216-5.03 3.708-3.353 5.564-8.689 5.564-16.005v-10.354zm-.153-58.838c-1.424-.405-3.33-.786-5.716-1.144-2.389-.355-5.616-.533-9.679-.533-7.621 0-13.49 2.491-17.606 7.469-4.116 4.98-6.174 11.585-6.174 19.816 0 4.573.584 8.486 1.753 11.737 1.167 3.254 2.744 5.945 4.726 8.079 1.981 2.134 4.268 3.711 6.859 4.725a21.721 21.721 0 0 0 8.003 1.525c3.758 0 7.214-.534 10.365-1.6 3.149-1.068 5.64-2.311 7.469-3.735V61.689z"/><path clip-path="url(#b)" fill="#009EE3" d="M317.003 88.973c0-7.011 1.014-13.133 3.048-18.368 2.032-5.233 4.726-9.577 8.079-13.033 3.353-3.453 7.214-6.044 11.585-7.774 4.368-1.727 8.841-2.591 13.414-2.591 10.67 0 18.848 3.33 24.541 9.984 4.706 5.505 7.466 13.39 8.281 23.654-1.283 1.478-9.979 11.765-9.997 11.786h-44.166c.61 8.232 2.996 14.482 7.164 18.749 4.166 4.269 10.671 6.402 19.512 6.402 4.978 0 9.169-.431 12.576-1.295 3.403-.862 5.968-1.701 7.697-2.515l1.982 11.889c-1.729.915-4.751 1.882-9.071 2.897-4.32 1.015-9.221 1.524-14.708 1.524-6.912 0-12.881-1.043-17.911-3.125-5.03-2.082-9.172-4.954-12.423-8.612-3.254-3.658-5.667-8.003-7.241-13.033-1.577-5.03-2.362-10.541-2.362-16.539m54.417-7.774c.1-6.402-1.5-11.661-4.801-15.777-3.304-4.115-7.85-6.173-13.643-6.173-3.253 0-6.123.636-8.612 1.905-2.491 1.272-4.599 2.923-6.326 4.954-1.729 2.035-3.075 4.371-4.039 7.013a34.525 34.525 0 0 0-1.906 8.078h39.327z"/><path clip-path="url(#b)" fill="#FFF" d="M462.089 33.205h13.333V-.001H317.011v33.206h13.334V13.359h131.744z"/><path clip-path="url(#b)" fill="#009EE3" d="M330.345 144.154h-13.333v33.205h158.411v-33.205h-13.334V164H330.345z"/><path clip-path="url(#b)" fill="#FFF" d="M406.674 81.185c3.398-20.311 15.19-33.977 36.565-33.977 20.875 0 33.573 14.347 32.023 45.42h-54.266c.41 25.852 23.993 29.815 46.948 21.344l1.982 11.89c-30.562 11.581-62.479 1.043-63.615-33.234h-19.423l9.393-11.443h10.393zm53.954 0c.736-28.507-35.847-30.215-39.327 0h39.327z"/></svg>