<svg version="1.2" baseProfile="tiny" xmlns="http://www.w3.org/2000/svg" width="280" height="280" viewBox="0 0 280 280"><path d="M124.304 148.126c-.052 0-.104 0-.156-.004-1.672-.084-2.96-1.502-2.874-3.168.044-.873 4.445-87.604 6.462-116.827.104-1.49 1.317-2.754 2.827-2.87 1.446-.107 3.256-.243 9.62 13.29 3.014 6.41 6.946 16.22 8.555 26.546 2.636 16.922 5.425 58.05 5.425 80.013 0 1.668-1.357 3.02-3.03 3.02s-3.032-1.352-3.032-3.02c0-21.736-2.75-62.388-5.352-79.088-1.66-10.65-6.108-21.193-9.577-28.023-2.174 35.01-5.8 106.47-5.84 107.262-.083 1.615-1.422 2.87-3.025 2.87zm-92.22 77.544c-.985 0-1.958-.454-2.544-1.292-.83-1.188-1.863-2.667 6.636-14.99 4.024-5.836 10.526-14.178 18.653-20.79 13.313-10.83 47.51-34.045 66.53-45.165 1.44-.845 3.3-.364 4.146 1.075.847 1.438.364 3.288-1.08 4.132-18.82 11.006-52.625 33.95-65.764 44.636-8.38 6.816-15.257 15.976-19.414 22.414 31.413-15.856 95.12-48.918 95.824-49.283 1.488-.773 3.316-.197 4.09 1.282.772 1.477.196 3.3-1.288 4.07-.78.405-78.1 40.53-104.422 53.594-.43.213-.902.316-1.37.316zm212.713-9.236c-2.35 0-5.707-.234-10.552-.83-7.053-.87-17.482-2.774-27.116-6.912-15.784-6.78-52.23-26.312-70.903-38.002-1.417-.887-1.844-2.75-.953-4.163.892-1.41 2.765-1.833 4.18-.95 18.482 11.57 54.5 30.882 70.075 37.57 9.935 4.268 21.265 6.127 28.916 6.835-28.603-20.465-87.416-61.55-88.068-62.004-1.372-.957-1.703-2.84-.742-4.206.96-1.363 2.85-1.696 4.222-.738.718.5 72.098 50.365 95.866 67.616 1.21.88 1.64 2.577.935 3.912-.458.865-.99 1.87-5.864 1.872zm-22.605-91.426c-1.31 0-2.49-.844-2.89-2.115-10.497-33.32-39.848-56.623-74.774-59.363-1.67-.132-2.916-1.585-2.784-3.247.132-1.662 1.602-2.902 3.26-2.774 32.678 2.563 60.8 21.934 74.88 50.58l.97-18.54c.087-1.664 1.507-2.97 3.185-2.856 1.67.086 2.954 1.507 2.867 3.173l-1.687 32.28c-.075 1.457-1.19 2.654-2.645 2.838-.13.014-.257.022-.383.022zM66.87 98.56c-.634 0-1.273-.196-1.82-.604-1.338-1.002-1.608-2.894-.604-4.227 15.358-20.384 38.703-33.52 64.048-36.048 1.67-.15 3.152 1.046 3.318 2.704.167 1.66-1.05 3.14-2.714 3.305-23.662 2.36-45.46 14.63-59.803 33.663-.596.79-1.505 1.206-2.426 1.206zm-7.738 93.503c-1.095 0-2.152-.593-2.692-1.628-6.724-12.877-10.278-27.407-10.278-42.018 0-9.18 1.34-18.134 3.995-26.747l-13.62 11.29c-1.29 1.065-3.2.89-4.27-.39-1.072-1.283-.896-3.186.39-4.253l22.468-18.62c1.085-.897 2.652-.932 3.777-.08 1.123.854 1.506 2.368.922 3.65-5.043 11.07-7.6 22.895-7.6 35.15 0 13.646 3.318 27.212 9.594 39.233.773 1.48.195 3.302-1.29 4.07-.447.233-.925.343-1.396.343zm53.986 44.1c-.278 0-.56-.04-.842-.12-18.012-5.18-33.812-15.624-45.69-30.207-1.056-1.295-.856-3.197.443-4.248 1.3-1.05 3.206-.853 4.263.442 11.095 13.62 25.847 23.375 42.664 28.21 1.608.463 2.536 2.137 2.072 3.74-.385 1.32-1.596 2.182-2.913 2.182zm39.694 18.6c-.56 0-1.13-.155-1.638-.48L127.54 239.13c-1.132-.725-1.648-2.105-1.268-3.39.38-1.286 1.563-2.168 2.908-2.168 29.766 0 55.507-11.195 72.478-31.522 1.07-1.284 2.98-1.458 4.27-.39 1.287 1.065 1.462 2.97.392 4.25-16.258 19.474-39.947 31.108-67.43 33.316l15.566 9.98c1.407.902 1.814 2.77.908 4.173-.58.893-1.555 1.382-2.552 1.382zm62.338-64.73c-.46 0-.928-.106-1.367-.328-1.494-.754-2.09-2.57-1.334-4.057 7.136-14.033 10.755-29.945 10.755-47.296 0-1.668 1.357-3.02 3.03-3.02 1.676 0 3.032 1.352 3.032 3.02 0 18.308-3.84 35.138-11.412 50.024-.533 1.05-1.6 1.656-2.705 1.656zm-77.243-32.893h-.382c-1.674 0-3.03-1.35-3.03-3.02 0-1.667 1.356-3.018 3.03-3.018h.382c1.674 0 3.03 1.35 3.03 3.02 0 1.667-1.356 3.018-3.03 3.018z" fill="#152A49"/></svg>