<svg version="1.2" baseProfile="tiny" xmlns="http://www.w3.org/2000/svg" width="280" height="280" viewBox="0 0 280 280"><path d="M225.64 154.386H54.36c-10.675 0-19.36-8.746-19.36-19.497v-92.8c0-1.678 1.35-3.038 3.017-3.038h203.966c1.667 0 3.017 1.36 3.017 3.038v92.8c0 10.75-8.686 19.496-19.36 19.496zM41.033 45.13v89.76c0 7.4 5.978 13.42 13.326 13.42h171.277c7.348 0 13.326-6.02 13.326-13.42V45.13H41.033zm61.097 28.406H59.276c-1.667 0-3.017-1.36-3.017-3.04 0-1.677 1.35-3.036 3.015-3.036h42.854c1.666 0 3.016 1.36 3.016 3.037 0 1.68-1.35 3.04-3.017 3.04zm119.24 61.73H58.63c-1.667 0-3.017-1.36-3.017-3.037v-26.77c0-1.68 1.35-3.04 3.017-3.04h162.74c1.666 0 3.017 1.36 3.017 3.04v26.767c0 1.68-1.35 3.04-3.018 3.04zM61.646 129.19H218.35V108.5H61.648v20.69zm36.268 111.758c-.87 0-1.73-.376-2.33-1.104-1.06-1.293-.878-3.21.407-4.278.08-.064 8.127-6.897 8.127-14.455 0-6.45-3.316-9.085-7.516-12.422-4.292-3.41-9.156-7.274-9.7-15.508-.76-11.543 10.48-20.88 10.96-21.272 1.293-1.06 3.195-.857 4.245.443 1.05 1.304.855 3.217-.437 4.275-.18.147-9.296 7.804-8.745 16.15.366 5.54 3.477 8.012 7.415 11.14 4.372 3.474 9.815 7.797 9.815 17.196 0 10.44-9.897 18.79-10.32 19.143-.56.467-1.242.696-1.918.696zm41.493 0c-.87 0-1.732-.376-2.33-1.104-1.06-1.293-.878-3.21.407-4.278.077-.064 8.125-6.897 8.125-14.455 0-6.45-3.318-9.085-7.518-12.422-4.293-3.41-9.156-7.274-9.7-15.508-.762-11.543 10.482-20.88 10.96-21.272 1.295-1.056 3.193-.857 4.245.444 1.05 1.302.854 3.213-.438 4.273-.168.14-9.298 7.798-8.746 16.15.366 5.54 3.477 8.012 7.415 11.14 4.37 3.474 9.814 7.797 9.814 17.196 0 10.44-9.897 18.793-10.318 19.144-.563.466-1.243.695-1.92.695zm41.493 0c-.87 0-1.733-.376-2.33-1.104-1.06-1.293-.878-3.21.406-4.278.077-.064 8.126-6.897 8.126-14.455 0-6.45-3.318-9.085-7.518-12.422-4.29-3.408-9.157-7.274-9.7-15.508-.76-11.543 10.48-20.88 10.96-21.272 1.293-1.06 3.194-.857 4.244.443 1.05 1.304.855 3.217-.437 4.275-.177.147-9.294 7.804-8.743 16.15.367 5.54 3.477 8.012 7.415 11.14 4.374 3.474 9.816 7.797 9.816 17.196 0 10.44-9.897 18.79-10.318 19.143-.562.467-1.242.696-1.92.696z" fill="#152A49"/></svg>