<svg version="1.2" baseProfile="tiny" xmlns="http://www.w3.org/2000/svg" width="280" height="280" viewBox="0 0 280 280"><path d="M214.684 234H50.77C39.316 234 30 224.68 30 213.227v-95.885c0-11.454 9.317-20.772 20.77-20.772h163.914c11.452 0 20.77 9.32 20.77 20.773v14.15c0 1.66-1.346 3.004-3.005 3.004s-3.006-1.345-3.006-3.004v-14.15c0-8.14-6.622-14.764-14.76-14.764H50.768c-8.14 0-14.762 6.62-14.762 14.762v95.885c0 8.14 6.622 14.763 14.76 14.763h163.916c8.14 0 14.76-6.622 14.76-14.762V192.04c0-1.66 1.346-3.004 3.005-3.004s3.003 1.345 3.003 3.004v21.188c0 11.453-9.317 20.77-20.77 20.77zm32.312-38.957H161.06c-13.528 0-24.533-11.006-24.533-24.536v-17.485c0-13.53 11.005-24.536 24.532-24.536h85.935c1.66 0 3.004 1.345 3.004 3.004v60.548c0 1.66-1.345 3.005-3.005 3.005zm-85.937-60.548c-10.216 0-18.526 8.31-18.526 18.527v17.485c0 10.216 8.31 18.527 18.524 18.527h82.933v-54.54h-82.93zM71.576 102.58c-.74 0-1.485-.274-2.066-.825-1.202-1.14-1.253-3.043-.11-4.248l45.38-47.863c2.214-2.335 5.206-3.63 8.424-3.643h.05c3.2 0 6.183 1.27 8.404 3.574l44.386 46.038c1.152 1.195 1.118 3.097-.077 4.248-1.193 1.152-3.094 1.12-4.247-.077l-44.39-46.04c-1.085-1.124-2.505-1.71-4.105-1.733-1.563.006-3.015.634-4.09 1.768l-45.38 47.863c-.59.626-1.384.94-2.18.94zm129.51-1.88c-.788 0-1.573-.306-2.163-.918l-44.387-46.038c-1.084-1.125-2.594-1.71-4.105-1.734-1.563.007-3.015.635-4.09 1.77l-6.635 6.996c-1.142 1.203-3.044 1.255-4.247.113-1.204-1.143-1.254-3.045-.112-4.25l6.635-6.998c2.214-2.335 5.206-3.63 8.424-3.643h.05c3.2 0 6.183 1.266 8.404 3.57l44.388 46.04c1.152 1.193 1.118 3.095-.077 4.246-.58.564-1.332.844-2.083.844zm-30.47 73.775h-4.77c-4.893 0-8.874-3.982-8.874-8.876v-4.77c0-4.895 3.98-8.876 8.875-8.876h4.768c4.894 0 8.875 3.98 8.875 8.876v4.77c0 4.893-3.98 8.875-8.873 8.875zm-4.77-16.512c-1.58 0-2.866 1.286-2.866 2.867v4.768c0 1.58 1.288 2.867 2.87 2.867h4.767c1.58 0 2.867-1.286 2.867-2.867v-4.768c0-1.58-1.286-2.867-2.867-2.867h-4.768zM102.115 92c-.77 0-1.537-.292-2.124-.88-1.173-1.173-1.173-3.075 0-4.248l20.616-20.62c1.173-1.172 3.074-1.172 4.247 0 1.174 1.175 1.174 3.077 0 4.25l-20.616 20.62c-.586.586-1.355.88-2.123.88zm-52.67 107.273c-1.66 0-3.004-1.345-3.004-3.004v-61.815c0-1.66 1.345-3.004 3.004-3.004 1.66 0 3.004 1.346 3.004 3.005v61.813c0 1.658-1.345 3.003-3.004 3.003z" fill="#152A49"/></svg>