<svg version="1.2" baseProfile="tiny" xmlns="http://www.w3.org/2000/svg" width="380" height="280" viewBox="0 0 380 280"><path d="M319.806 210.162h-109.05c-1.764 0-3.195-1.422-3.195-3.178 0-1.755 1.433-3.176 3.197-3.176h105.857V46.59H164.7v72.237c0 1.755-1.43 3.177-3.194 3.177s-3.194-1.422-3.194-3.177V43.413c0-1.756 1.43-3.177 3.194-3.177h158.3c1.764 0 3.194 1.422 3.194 3.177v163.57c0 1.757-1.43 3.18-3.194 3.18zm-124.05 32.848c-.798 0-1.597-.298-2.216-.892l-34.25-32.847c-.625-.597-.978-1.422-.978-2.285v-40.53c0-1.755 1.43-3.176 3.194-3.176s3.194 1.42 3.194 3.176v39.18l33.273 31.91c1.27 1.217 1.308 3.23.083 4.492-.628.646-1.464.972-2.3.972zm27.71-187.63c-1.763 0-3.194-1.423-3.194-3.18v-6.354c0-1.755 1.43-3.177 3.194-3.177s3.194 1.42 3.194 3.175V52.2c0 1.757-1.43 3.18-3.194 3.18zm0 52.766c-1.763 0-3.194-1.422-3.194-3.177V91.775c0-1.755 1.43-3.178 3.194-3.178s3.194 1.422 3.194 3.177v13.192c0 1.754-1.43 3.176-3.194 3.176zm0-26.383c-1.763 0-3.194-1.422-3.194-3.178V65.393c0-1.755 1.43-3.177 3.194-3.177s3.194 1.422 3.194 3.177v13.19c0 1.758-1.43 3.18-3.194 3.18zm6.39 45.93h-6.39c-1.763 0-3.194-1.423-3.194-3.178v-6.354c0-1.754 1.43-3.176 3.194-3.176s3.194 1.422 3.194 3.178v3.177h3.194c1.764 0 3.194 1.422 3.194 3.177s-1.43 3.177-3.193 3.177zm71.624 0h-11.94c-1.763 0-3.194-1.423-3.194-3.178s1.432-3.178 3.194-3.178h11.937c1.763 0 3.193 1.423 3.193 3.178s-1.43 3.177-3.194 3.177zm-23.875 0h-11.938c-1.763 0-3.194-1.423-3.194-3.178s1.432-3.178 3.194-3.178h11.938c1.764 0 3.194 1.423 3.194 3.178s-1.433 3.177-3.196 3.177zm-23.875 0h-11.937c-1.764 0-3.194-1.423-3.194-3.178s1.43-3.178 3.192-3.178h11.937c1.763 0 3.193 1.423 3.193 3.178s-1.43 3.177-3.194 3.177zm66.076 0h-6.388c-1.764 0-3.194-1.423-3.194-3.178s1.43-3.178 3.194-3.178h6.388c1.764 0 3.194 1.423 3.194 3.178s-1.43 3.177-3.194 3.177zm-141.078 45.275c-.375 0-.75-.065-1.115-.2L142.62 159.82c-.476-.175-.902-.46-1.246-.835l-83.54-91.108c-.57-.623-.87-1.445-.83-2.288.036-.843.41-1.634 1.037-2.2l28.186-25.57c1.3-1.18 3.324-1.09 4.513.206l83.54 91.11c.408.444.68.996.787 1.59l6.808 38.515c.198 1.123-.222 2.265-1.102 2.994-.582.483-1.308.735-2.044.735zm-33.155-18.836l29.043 10.747-5.683-32.146-80.763-88.08L64.707 65.94l80.866 88.19zm-3.593-24.682c-.864 0-1.73-.35-2.36-1.036L89.495 73.747c-1.19-1.297-1.096-3.306.208-4.49 1.3-1.178 3.323-1.092 4.513.207l50.127 54.667c1.19 1.298 1.096 3.307-.208 4.49-.612.557-1.383.83-2.153.83zm31.956 38.46c-.865 0-1.73-.35-2.36-1.038l-9.586-10.454c-1.19-1.296-1.096-3.305.208-4.49 1.3-1.177 3.326-1.09 4.513.208l9.587 10.453c1.19 1.294 1.096 3.304-.208 4.487-.61.557-1.383.83-2.153.83zm76.124 33.793c-1.763 0-3.193-1.422-3.193-3.177v-12.71c0-1.756 1.43-3.178 3.194-3.178 1.766 0 3.196 1.422 3.196 3.178v12.71c0 1.756-1.43 3.177-3.194 3.177zm0-25.418c-1.763 0-3.193-1.422-3.193-3.177v-12.71c0-1.755 1.43-3.177 3.194-3.177 1.766 0 3.196 1.424 3.196 3.18v12.71c0 1.754-1.43 3.176-3.194 3.176zm-34.19-1.985h-12.777c-1.764 0-3.194-1.422-3.194-3.177 0-1.755 1.43-3.178 3.192-3.178h12.778c1.764 0 3.195 1.422 3.195 3.178 0 1.755-1.43 3.178-3.194 3.178zm-25.554 0h-9.46c-1.763 0-3.193-1.422-3.193-3.177 0-1.755 1.43-3.178 3.194-3.178h9.46c1.762 0 3.193 1.422 3.193 3.178 0 1.755-1.43 3.178-3.194 3.178z" fill="#152A49"/></svg>