<svg version="1.2" baseProfile="tiny" xmlns="http://www.w3.org/2000/svg" width="280" height="280" viewBox="0 0 280 280"><path d="M35.02 86.192c-1.024 0-2.024-.52-2.59-1.46-.857-1.422-.393-3.267 1.035-4.122l75.598-45.17c.996-.593 2.244-.568 3.21.065l69.024 45.17c1.393.912 1.78 2.775.865 4.163-.915 1.387-2.787 1.773-4.18.86l-67.44-44.133-73.97 44.198c-.487.29-1.023.43-1.55.43zm134.102 89.032H50.795c-1.667 0-3.017-1.344-3.017-3.005V93.66c0-1.66 1.35-3.005 3.017-3.005 1.668 0 3.018 1.344 3.018 3.005v75.552h112.29v-75.55c0-1.66 1.352-3.005 3.018-3.005 1.67 0 3.02 1.344 3.02 3.005v78.558c0 1.66-1.35 3.004-3.017 3.004zm-42.072 0c-1.667 0-3.018-1.344-3.018-3.005v-48.06h-24.86v46.093c0 1.66-1.35 3.006-3.018 3.006-1.667 0-3.018-1.347-3.018-3.007v-49.098c0-1.66 1.35-3.006 3.018-3.006h30.896c1.667 0 3.018 1.344 3.018 3.005v51.062c0 1.662-1.35 3.006-3.018 3.006zm109.125-139.44H127.05c-1.667 0-3.018-1.345-3.018-3.005s1.35-3.007 3.018-3.007h109.124c1.667 0 3.018 1.345 3.018 3.005s-1.35 3.005-3.017 3.005zm8.807 140.49h-61.135c-1.667 0-3.018-1.346-3.018-3.007 0-1.66 1.35-3.005 3.016-3.005h61.135c1.67 0 3.02 1.346 3.02 3.005 0 1.66-1.35 3.006-3.02 3.006zm-24.584-22.248c-1.667 0-3.018-1.346-3.018-3.005V53.73c0-1.66 1.35-3.006 3.018-3.006 1.667 0 3.018 1.347 3.018 3.007v97.293c0 1.66-1.35 3.006-3.018 3.006zm15.777-84.236c-.79 0-1.58-.306-2.173-.92l-13.604-14.05-13.606 14.05c-1.156 1.198-3.066 1.232-4.267.08-1.2-1.153-1.235-3.057-.078-4.25l15.777-16.297c.568-.587 1.352-.92 2.172-.92.82 0 1.604.333 2.172.92L238.345 64.7c1.157 1.193 1.123 3.097-.078 4.25-.584.56-1.338.84-2.092.84zm-15.777 90.244c-.82 0-1.604-.332-2.172-.92L202.45 142.82c-1.158-1.195-1.125-3.097.077-4.25 1.2-1.15 3.11-1.116 4.267.08L220.4 152.7l13.604-14.05c1.158-1.196 3.068-1.23 4.267-.08 1.2 1.153 1.237 3.055.08 4.25l-15.777 16.295c-.57.587-1.355.92-2.174.92zm-64.643 74.48H70.47c-1.668 0-3.018-1.345-3.018-3.005s1.35-3.007 3.017-3.007h85.284c1.667 0 3.018 1.345 3.018 3.005s-1.35 3.005-3.018 3.005zm-13.912 15.712c-.79 0-1.58-.307-2.173-.92-1.156-1.194-1.122-3.097.078-4.25l14.11-13.547-14.11-13.55c-1.2-1.15-1.235-3.054-.078-4.25 1.16-1.19 3.07-1.226 4.268-.076l16.364 15.712c.59.567.923 1.348.923 2.163 0 .816-.333 1.597-.923 2.163l-16.364 15.713c-.586.56-1.34.84-2.095.84zm-61.043 0c-.755 0-1.51-.28-2.095-.842L62.342 233.67c-.59-.564-.923-1.345-.923-2.162 0-.815.33-1.597.92-2.162l16.364-15.71c1.2-1.153 3.11-1.12 4.267.076 1.158 1.194 1.124 3.097-.077 4.25l-14.11 13.546 14.11 13.548c1.2 1.152 1.235 3.055.078 4.25-.59.612-1.38.92-2.17.92zm-30.005 0c-1.667 0-3.017-1.346-3.017-3.006v-60.3c0-1.66 1.35-3.005 3.017-3.005 1.668 0 3.018 1.346 3.018 3.005v60.3c0 1.66-1.35 3.006-3.018 3.006zm118.327 0c-1.667 0-3.017-1.346-3.017-3.006v-60.3c0-1.66 1.35-3.005 3.017-3.005 1.668 0 3.018 1.346 3.018 3.005v60.3c0 1.66-1.35 3.006-3.018 3.006z" fill="#152A49"/></svg>