<?xml version="1.0" encoding="utf-8"?>
<!-- Generator: Adobe Illustrator 17.0.0, SVG Export Plug-In . SVG Version: 6.00 Build 0)  -->
<!DOCTYPE svg PUBLIC "-//W3C//DTD SVG 1.1//EN" "http://www.w3.org/Graphics/SVG/1.1/DTD/svg11.dtd">
<svg version="1.1" id="Layer_1" xmlns="http://www.w3.org/2000/svg" xmlns:xlink="http://www.w3.org/1999/xlink" x="0px" y="0px"
	 width="30px" height="30px" viewBox="0 0 30 30" enable-background="new 0 0 30 30" xml:space="preserve">
<g>
	<path fill="#152A49" d="M27.176,3.164l-2.485-2.476c-0.135-0.135-0.323-0.202-0.513-0.184c-0.192,0.018-0.364,0.12-0.473,0.281
		C22.759,2.171,21.197,3,19.526,3c-1.644,0-3.192-0.804-4.141-2.15c-0.088-0.126-0.232-0.2-0.386-0.2
		c-0.154,0-0.297,0.074-0.386,0.2C13.665,2.196,12.117,3,10.474,3c-1.67,0-3.232-0.829-4.178-2.217
		c-0.109-0.16-0.282-0.262-0.473-0.281C5.631,0.485,5.444,0.552,5.309,0.687L2.825,3.163C2.588,3.399,2.582,3.775,2.81,4.021
		c1.525,1.644,1.162,4.182,0.703,7.394c-0.258,1.81-0.552,3.861-0.552,6.087c0,4.537,4.262,6.918,7.685,8.831
		c1.783,0.996,3.467,1.938,3.929,2.899C14.653,29.396,14.819,29.5,15,29.5c0.181,0,0.347-0.104,0.425-0.267
		c0.463-0.961,2.147-1.902,3.929-2.899c3.424-1.914,7.685-4.294,7.685-8.831c0-2.226-0.293-4.278-0.552-6.087
		c-0.459-3.212-0.822-5.75,0.703-7.394C27.418,3.775,27.412,3.399,27.176,3.164L27.176,3.164z M25.553,11.548
		c0.254,1.779,0.543,3.796,0.543,5.955c0,1.759-0.757,3.317-2.315,4.763c-1.401,1.3-3.254,2.335-4.888,3.249
		c-1.64,0.916-3.096,1.73-3.893,2.671c-0.797-0.941-2.253-1.755-3.893-2.671c-1.635-0.913-3.488-1.948-4.888-3.249
		c-1.558-1.446-2.315-3.004-2.315-4.763c0-2.16,0.288-4.176,0.543-5.955c0.475-3.326,0.855-5.98-0.742-7.933l2.021-2.014
		c1.135,1.471,2.885,2.339,4.748,2.339c1.741,0,3.392-0.76,4.526-2.058c1.135,1.298,2.785,2.058,4.526,2.058
		c1.863,0,3.612-0.868,4.748-2.339l2.021,2.014C24.699,5.568,25.078,8.221,25.553,11.548L25.553,11.548z M25.553,11.548"/>
	<path fill="#152A49" d="M23.834,5.107c0.046-0.181-0.02-0.372-0.169-0.486c-0.148-0.115-0.35-0.131-0.515-0.041
		c-1.108,0.606-2.361,0.925-3.624,0.925c-1.524,0-2.996-0.454-4.261-1.312c-0.16-0.109-0.371-0.109-0.531,0
		c-1.265,0.858-2.738,1.312-4.261,1.312c-1.263,0-2.516-0.32-3.624-0.925c-0.164-0.09-0.366-0.074-0.515,0.041
		C6.186,4.735,6.12,4.926,6.166,5.107c0.504,1.991,0.18,4.259-0.164,6.662c-0.259,1.812-0.527,3.685-0.527,5.734
		c0,2.849,2.653,4.552,6.4,6.646c1.041,0.582,2.025,1.131,2.851,1.718c0.082,0.058,0.178,0.087,0.274,0.087
		c0.096,0,0.192-0.03,0.274-0.087c0.826-0.587,1.809-1.136,2.851-1.718c3.748-2.094,6.4-3.797,6.4-6.646
		c0-2.049-0.268-3.922-0.527-5.734C23.654,9.366,23.329,7.098,23.834,5.107L23.834,5.107z M15,19.539
		c-2.791,0-5.061-2.262-5.061-5.043c0-2.781,2.27-5.044,5.061-5.044s5.061,2.262,5.061,5.044C20.061,17.276,17.791,19.539,15,19.539
		L15,19.539z M6.419,17.503c0-1.982,0.263-3.822,0.517-5.602c0.306-2.141,0.598-4.179,0.328-6.086c1.017,0.413,2.11,0.63,3.21,0.63
		c1.425,0,2.811-0.354,4.055-1.028v3.113c-3.091,0.24-5.533,2.823-5.533,5.965c0,3.141,2.441,5.724,5.533,5.964v4.145
		c-0.68-0.43-1.42-0.844-2.192-1.275C8.872,21.393,6.419,19.841,6.419,17.503L6.419,17.503z M17.663,23.33
		c-0.772,0.431-1.512,0.845-2.192,1.275V20.46c3.091-0.24,5.533-2.823,5.533-5.964c0-3.141-2.441-5.724-5.533-5.965V5.418
		c1.244,0.674,2.63,1.028,4.055,1.028c1.1,0,2.194-0.217,3.209-0.63c-0.269,1.906,0.022,3.945,0.328,6.086
		c0.255,1.779,0.518,3.619,0.518,5.602C23.581,19.841,21.128,21.393,17.663,23.33L17.663,23.33z M17.663,23.33"/>
	<path fill="#152A49" d="M17.951,13.07l-1.59-0.23l-0.711-1.436c-0.118-0.237-0.356-0.385-0.622-0.385
		c-0.266,0-0.504,0.148-0.622,0.385l-0.711,1.436l-1.59,0.23c-0.263,0.038-0.478,0.218-0.56,0.47
		c-0.082,0.253-0.015,0.524,0.175,0.709l1.151,1.118L12.6,16.944c-0.045,0.261,0.061,0.52,0.276,0.676
		c0.215,0.155,0.495,0.176,0.73,0.052l1.422-0.745l1.422,0.745c0.103,0.053,0.213,0.08,0.323,0.08c0.143,0,0.286-0.045,0.407-0.132
		c0.216-0.157,0.321-0.415,0.276-0.676l-0.272-1.578l1.15-1.118c0.191-0.184,0.258-0.456,0.176-0.709
		C18.428,13.288,18.214,13.108,17.951,13.07L17.951,13.07z M16.349,14.865c-0.111,0.109-0.162,0.264-0.136,0.416l0.228,1.325
		l-1.194-0.626c-0.138-0.072-0.302-0.072-0.439,0l-1.194,0.626l0.228-1.325c0.027-0.152-0.024-0.308-0.135-0.416l-0.966-0.938
		l1.335-0.194c0.154-0.022,0.286-0.118,0.355-0.256l0.597-1.206l0.597,1.206c0.069,0.138,0.202,0.234,0.355,0.256l1.335,0.194
		L16.349,14.865z M16.349,14.865"/>
</g>
</svg>
