<?xml version="1.0" encoding="utf-8"?>
<!-- Generator: Adobe Illustrator 17.0.0, SVG Export Plug-In . SVG Version: 6.00 Build 0)  -->
<!DOCTYPE svg PUBLIC "-//W3C//DTD SVG 1.1//EN" "http://www.w3.org/Graphics/SVG/1.1/DTD/svg11.dtd">
<svg version="1.1" id="Layer_1" xmlns="http://www.w3.org/2000/svg" xmlns:xlink="http://www.w3.org/1999/xlink" x="0px" y="0px"
	 width="30px" height="30px" viewBox="0 0 30 30" enable-background="new 0 0 30 30" xml:space="preserve">
<g>
	<path fill="#152A49" d="M25.127,21.716c-0.194-1.938-1.668-3.344-3.514-3.344c-1.156,0-2.129,0.685-2.747,1.523
		c-0.616-0.838-1.588-1.523-2.746-1.523c-1.846,0-3.321,1.406-3.515,3.344c-0.021,0.128-0.07,0.579,0.109,1.285
		c0.264,1.043,0.871,1.987,1.756,2.738l4.026,3.379c0.106,0.09,0.239,0.136,0.37,0.136c0.132,0,0.264-0.046,0.373-0.136l4.026-3.381
		c0.883-0.748,1.489-1.693,1.753-2.735C25.198,22.296,25.148,21.844,25.127,21.716z M24.081,22.773
		c-0.214,0.849-0.715,1.628-1.447,2.244l-3.769,3.165l-3.767-3.165c-0.732-0.616-1.232-1.395-1.446-2.244
		c-0.146-0.575-0.094-0.901-0.094-0.901l0.009-0.049c0.118-1.244,1.034-2.501,2.553-2.501c1.057,0,1.919,0.857,2.304,1.709
		l0.444,0.977l0.442-0.977c0.385-0.852,1.246-1.709,2.305-1.709c1.52,0,2.434,1.258,2.559,2.545
		C24.174,21.869,24.228,22.194,24.081,22.773z"/>
	<path fill="#152A49" d="M24.081,22.773"/>
	<path fill="#152A49" d="M14.516,13.086c-0.696,0.178-1.241,0.723-1.399,1.413H9.683c-0.267,0-0.484,0.213-0.484,0.474
		c0,0.262,0.217,0.475,0.484,0.475h3.472c0.236,0.786,0.968,1.364,1.846,1.364c1.067,0,1.933-0.85,1.933-1.896
		c0-0.883-0.618-1.617-1.449-1.829V8.277c0-0.262-0.217-0.475-0.484-0.475c-0.266,0-0.484,0.213-0.484,0.475V13.086z"/>
	<path fill="#152A49" d="M15.968,14.915c0,0.524-0.434,0.949-0.968,0.949c-0.534,0-0.968-0.425-0.968-0.949
		c0-0.523,0.434-0.947,0.968-0.947C15.534,13.968,15.968,14.392,15.968,14.915L15.968,14.915z"/>
	<path fill="#152A49" d="M15.968,14.915"/>
	<path fill="#152A49" d="M15,5.43c0.267,0,0.484-0.211,0.484-0.475V4.483c0-0.264-0.217-0.475-0.484-0.475
		c-0.266,0-0.484,0.211-0.484,0.475v0.473C14.516,5.22,14.734,5.43,15,5.43L15,5.43z"/>
	<path fill="#152A49" d="M15,5.43"/>
	<path fill="#152A49" d="M25.635,14.441h-0.484c-0.267,0-0.484,0.213-0.484,0.475s0.217,0.475,0.484,0.475h0.484
		c0.266,0,0.481-0.214,0.481-0.475S25.901,14.441,25.635,14.441L25.635,14.441z"/>
	<path fill="#152A49" d="M25.635,14.441"/>
	<path fill="#152A49" d="M4.366,14.441c-0.266,0-0.481,0.213-0.481,0.475s0.215,0.475,0.481,0.475H4.85
		c0.267,0,0.484-0.214,0.484-0.475s-0.217-0.475-0.484-0.475H4.366z"/>
	<path fill="#152A49" d="M4.366,14.441"/>
	<path fill="#152A49" d="M22.519,8.209l0.343-0.336c0.188-0.185,0.188-0.485,0-0.671c-0.189-0.185-0.496-0.185-0.685,0l-0.343,0.336
		c-0.189,0.185-0.189,0.487,0,0.671c0.095,0.093,0.22,0.14,0.343,0.14C22.302,8.348,22.425,8.301,22.519,8.209L22.519,8.209z"/>
	<path fill="#152A49" d="M22.519,8.209"/>
	<path fill="#152A49" d="M7.481,21.624l-0.342,0.334c-0.188,0.185-0.188,0.486,0,0.671c0.095,0.093,0.217,0.14,0.342,0.14
		c0.123,0,0.248-0.046,0.342-0.14l0.342-0.335c0.188-0.185,0.188-0.483,0-0.669C7.974,21.437,7.67,21.437,7.481,21.624L7.481,21.624
		z"/>
	<path fill="#152A49" d="M7.481,21.624"/>
	<path fill="#152A49" d="M8.166,7.537L7.823,7.202c-0.189-0.185-0.496-0.185-0.685,0c-0.188,0.186-0.188,0.486,0,0.671l0.342,0.336
		c0.094,0.093,0.217,0.14,0.342,0.14c0.122,0,0.248-0.047,0.342-0.14C8.354,8.024,8.354,7.723,8.166,7.537L8.166,7.537z"/>
	<path fill="#152A49" d="M8.166,7.537"/>
	<path fill="#152A49" d="M15,0.746c-7.995,0-14.5,6.382-14.5,14.227c0,6.556,4.524,12.236,11.002,13.81
		c0.038,0.01,0.078,0.015,0.116,0.015c0.217,0,0.416-0.145,0.47-0.361c0.063-0.255-0.095-0.512-0.354-0.574
		C5.69,26.395,1.468,21.094,1.468,14.973C1.468,7.651,7.537,1.695,15,1.695c7.463,0,13.532,5.956,13.532,13.278
		c0,1.644-0.304,3.256-0.908,4.787c-0.097,0.246,0.026,0.519,0.276,0.614c0.248,0.094,0.529-0.028,0.625-0.271
		c0.646-1.643,0.975-3.367,0.975-5.13C29.5,7.128,22.995,0.746,15,0.746L15,0.746z"/>
	<path fill="#152A49" d="M15,0.746"/>
</g>
</svg>
