<?xml version="1.0" encoding="utf-8"?>
<!-- Generator: Adobe Illustrator 17.0.0, SVG Export Plug-In . SVG Version: 6.00 Build 0)  -->
<!DOCTYPE svg PUBLIC "-//W3C//DTD SVG 1.1//EN" "http://www.w3.org/Graphics/SVG/1.1/DTD/svg11.dtd">
<svg version="1.1" id="Layer_1" xmlns="http://www.w3.org/2000/svg" xmlns:xlink="http://www.w3.org/1999/xlink" x="0px" y="0px"
	 width="30px" height="30px" viewBox="0 0 30 30" enable-background="new 0 0 30 30" xml:space="preserve">
<g>
	<path fill="#152A49" d="M28.476,13.114h-0.718V8.349c0-1.118-0.896-1.999-1.976-1.999h-0.54V3.165c0-1.117-0.839-1.999-1.855-1.999
		h-0.121L2.782,6.344c-0.005,0-0.017,0.006-0.023,0.006C1.748,6.429,0.927,7.281,0.927,8.349v18.487
		c0,1.117,0.896,1.998,1.976,1.998h22.88c1.138,0,2.033-0.881,2.033-1.998v-4.89h0.661c0.362,0,0.597-0.237,0.597-0.588v-7.651
		C29.073,13.351,28.775,13.114,28.476,13.114L28.476,13.114z M23.502,2.284c0.299,0.056,0.597,0.412,0.597,0.881v3.179H7.573
		L23.502,2.284z M26.621,26.836c0,0.468-0.362,0.881-0.839,0.881H2.902c-0.477,0-0.838-0.412-0.838-0.881V8.349
		c0-0.468,0.362-0.881,0.838-0.881h22.817c0.477,0,0.838,0.413,0.838,0.881v4.766h-5.928c-2.516,0-4.492,1.942-4.492,4.415
		c0,2.473,2.033,4.416,4.492,4.416h5.991V26.836z M27.873,20.827h-7.244c-1.798,0-3.291-1.473-3.291-3.235
		c0-1.761,1.499-3.235,3.291-3.235h7.244V20.827z M27.873,20.827"/>
	<path fill="#152A49" d="M19.969,17.648c0,0.355,0.299,0.588,0.598,0.588h0.54c0.299,0,0.597-0.237,0.597-0.588
		c0-0.355-0.299-0.588-0.597-0.588h-0.534C20.21,17.061,19.969,17.298,19.969,17.648L19.969,17.648z M19.969,17.648"/>
</g>
</svg>
