<?xml version="1.0" encoding="utf-8"?>
<!-- Generator: Adobe Illustrator 17.0.0, SVG Export Plug-In . SVG Version: 6.00 Build 0)  -->
<!DOCTYPE svg PUBLIC "-//W3C//DTD SVG 1.1//EN" "http://www.w3.org/Graphics/SVG/1.1/DTD/svg11.dtd">
<svg version="1.1" id="Layer_1" xmlns="http://www.w3.org/2000/svg" xmlns:xlink="http://www.w3.org/1999/xlink" x="0px" y="0px"
	 width="30px" height="30px" viewBox="0 0 30 30" enable-background="new 0 0 30 30" xml:space="preserve">
<g>
	<path fill="#152A49" d="M28.629,4.124c-0.006-0.179-0.094-0.345-0.237-0.451c-0.144-0.106-0.328-0.14-0.5-0.091
		c-1.162,0.327-2.367,0.494-3.583,0.494c-3.371,0-6.583-1.275-9.045-3.59c-0.223-0.21-0.571-0.21-0.794,0
		c-2.463,2.315-5.674,3.59-9.045,3.59c-1.128,0-2.249-0.143-3.331-0.425C1.923,3.606,1.742,3.642,1.601,3.748
		C1.46,3.855,1.373,4.02,1.368,4.197C1.358,4.512,1.353,4.83,1.353,5.14c0,4.956,1.266,9.848,3.661,14.145
		c2.322,4.165,5.667,7.726,9.673,10.296c0.095,0.061,0.204,0.091,0.312,0.091c0.108,0,0.217-0.031,0.313-0.091
		c4.007-2.57,7.352-6.131,9.673-10.296c2.395-4.297,3.661-9.189,3.661-14.145C28.647,4.811,28.641,4.469,28.629,4.124L28.629,4.124z
		 M15,28.392C7.175,23.225,2.515,14.561,2.515,5.14c0-0.063,0-0.128,0-0.192c0.954,0.197,1.929,0.296,2.91,0.296
		c3.487,0,6.82-1.256,9.442-3.546c2.621,2.29,5.954,3.546,9.442,3.546c1.072,0,2.136-0.119,3.174-0.354
		c0.001,0.084,0.001,0.167,0.001,0.249C27.485,14.561,22.825,23.225,15,28.392L15,28.392z M15,28.392"/>
	<path fill="#152A49" d="M10.844,6.155c-0.101-0.307-0.43-0.473-0.735-0.371c-1.474,0.493-3.016,0.718-4.584,0.67
		C5.206,6.444,4.936,6.697,4.927,7.02c-0.01,0.322,0.242,0.593,0.563,0.602c0.151,0.004,0.302,0.007,0.453,0.007
		c1.548,0,3.071-0.247,4.533-0.735C10.78,6.792,10.945,6.461,10.844,6.155L10.844,6.155z M10.844,6.155"/>
	<path fill="#152A49" d="M12.533,5.946c0.094,0,0.189-0.023,0.277-0.072c0.488-0.266,0.966-0.566,1.421-0.889
		c0.263-0.186,0.325-0.55,0.14-0.814c-0.185-0.264-0.548-0.327-0.81-0.141c-0.418,0.296-0.857,0.572-1.306,0.817
		c-0.282,0.154-0.387,0.51-0.233,0.793C12.127,5.835,12.327,5.946,12.533,5.946L12.533,5.946z M12.533,5.946"/>
	<path fill="#152A49" d="M21.331,9.852l-7.755,7.799L9.657,13.71c-0.227-0.229-0.595-0.229-0.822,0
		c-0.227,0.228-0.227,0.599,0,0.827l4.33,4.355c0.113,0.114,0.262,0.171,0.411,0.171c0.149,0,0.298-0.057,0.411-0.171l8.166-8.213
		c0.227-0.228,0.227-0.598,0-0.826C21.926,9.624,21.558,9.624,21.331,9.852L21.331,9.852z M21.331,9.852"/>
</g>
</svg>
