<svg version="1.2" baseProfile="tiny" xmlns="http://www.w3.org/2000/svg" width="70" height="70" viewBox="0 0 70 70"><g fill="#152A49"><path d="M41.082 11.74c-3.92-3.92-9.13-6.078-14.67-6.078S15.658 7.82 11.74 11.74c-3.918 3.918-6.077 9.13-6.077 14.67 0 5.544 2.158 10.754 6.077 14.673 3.92 3.92 9.13 6.077 14.67 6.077s10.753-2.158 14.672-6.077c3.918-3.92 6.077-9.13 6.077-14.672 0-5.54-2.16-10.752-6.078-14.67zm-1.954 27.39c-3.397 3.397-7.914 5.268-12.717 5.268-4.804 0-9.32-1.87-12.717-5.268-7.012-7.013-7.012-18.425 0-25.437 3.398-3.398 7.914-5.27 12.718-5.27 4.805 0 9.322 1.872 12.718 5.27 7.013 7.012 7.013 18.424 0 25.437zm0 0M34.81 12.577c-.653-.396-1.502-.19-1.9.462-.394.65-.188 1.5.464 1.897.912.555 1.76 1.223 2.524 1.986.27.27.623.404.977.404s.707-.135.976-.404c.54-.538.54-1.414 0-1.953-.917-.92-1.94-1.724-3.04-2.393zm0 0M15.947 17.327c.353 0 .707-.135.976-.404 3.018-3.018 7.342-4.427 11.564-3.77.754.12 1.46-.397 1.578-1.15.117-.755-.4-1.46-1.153-1.578-5.09-.793-10.302.906-13.942 4.545-.54.54-.54 1.415 0 1.953.27.27.624.404.977.404zm0 0M19.322 37.807c-.864-.54-1.67-1.18-2.4-1.908-.538-.54-1.412-.54-1.952 0s-.54 1.413 0 1.952c.876.876 1.848 1.65 2.89 2.3.228.14.48.208.73.208.46 0 .91-.23 1.172-.65.405-.648.207-1.5-.44-1.903zm0 0M35.9 35.9c-2.928 2.925-6.964 4.323-11.08 3.835-.756-.09-1.444.45-1.533 1.21-.09.756.45 1.443 1.208 1.533.65.077 1.297.115 1.94.115 4.272 0 8.35-1.675 11.416-4.74.54-.54.54-1.415 0-1.955-.538-.538-1.412-.538-1.95 0zm0 0M68.323 60.218L51.61 43.503c-.54-.54-1.414-.54-1.952 0l-.67.67-1.64-1.64c7.984-10.356 7.233-25.32-2.253-34.807-10.303-10.303-27.065-10.303-37.367 0-10.303 10.303-10.303 27.067 0 37.37 5.15 5.15 11.917 7.726 18.683 7.726 5.696 0 11.39-1.824 16.12-5.473l1.64 1.64-.668.668c-.26.258-.404.61-.404.977 0 .366.146.717.404.976l16.714 16.715C61.334 69.443 62.8 70 64.27 70c1.467 0 2.935-.557 4.053-1.675 2.235-2.235 2.235-5.872 0-8.107zM9.68 43.143C5.21 38.673 2.75 32.73 2.75 26.41c0-6.32 2.46-12.26 6.93-16.73 4.47-4.47 10.41-6.93 16.73-6.93s12.263 2.46 16.732 6.93c4.47 4.47 6.93 10.41 6.93 16.73s-2.46 12.264-6.93 16.733c-4.47 4.47-10.41 6.93-16.73 6.93s-12.262-2.46-16.732-6.93zm34.954 2.403c.154-.148.308-.298.46-.45.153-.153.303-.306.45-.46l1.492 1.49-.91.912-1.492-1.492zM66.37 66.373c-1.16 1.158-3.043 1.158-4.2 0L46.43 50.635l4.204-4.202L66.37 62.17c1.158 1.16 1.158 3.045 0 4.203zm0 0"/></g></svg>
