<?xml version="1.0" encoding="utf-8"?>
<!-- Generator: Adobe Illustrator 17.0.0, SVG Export Plug-In . SVG Version: 6.00 Build 0)  -->
<!DOCTYPE svg PUBLIC "-//W3C//DTD SVG 1.1//EN" "http://www.w3.org/Graphics/SVG/1.1/DTD/svg11.dtd">
<svg version="1.1" id="Layer_1" xmlns="http://www.w3.org/2000/svg" xmlns:xlink="http://www.w3.org/1999/xlink" x="0px" y="0px"
	 width="74px" height="104px" viewBox="0 0 74 104" enable-background="new 0 0 74 104" xml:space="preserve">
<path fill="#FFFFFF" d="M63.647,46.469H50.132c-0.902,0-1.634,0.743-1.634,1.66v6.639c0,0.916,0.732,1.659,1.634,1.659h13.514
	c0.902,0,1.635-0.744,1.635-1.659v-6.639C65.281,47.212,64.549,46.469,63.647,46.469L63.647,46.469z M62.012,53.107H51.767v-3.319
	h10.244V53.107z M62.012,53.107"/>
<path fill="#FFFFFF" d="M23.704,79.108H10.354c-0.902,0-1.634,0.744-1.634,1.659v12.724c0,0.916,0.732,1.66,1.634,1.66h13.351
	c0.902,0,1.634-0.744,1.634-1.66V80.767C25.338,79.852,24.606,79.108,23.704,79.108L23.704,79.108z M22.069,91.831H11.988v-9.404
	h10.081V91.831z M22.069,91.831"/>
<path fill="#FFFFFF" d="M43.594,79.108H30.243c-0.903,0-1.635,0.744-1.635,1.659v12.724c0,0.916,0.732,1.66,1.635,1.66h13.351
	c0.902,0,1.634-0.744,1.634-1.66V80.767C45.228,79.852,44.496,79.108,43.594,79.108L43.594,79.108z M41.959,91.831H31.877v-9.404
	h10.081V91.831z M41.959,91.831"/>
<path fill="#FFFFFF" d="M23.704,59.746H10.354c-0.902,0-1.634,0.742-1.634,1.659v12.723c0,0.917,0.732,1.66,1.634,1.66h13.351
	c0.902,0,1.634-0.743,1.634-1.66V61.406C25.338,60.489,24.606,59.746,23.704,59.746L23.704,59.746z M22.069,72.469H11.988v-9.405
	h10.081V72.469z M22.069,72.469"/>
<path fill="#FFFFFF" d="M43.594,59.746H30.243c-0.903,0-1.635,0.742-1.635,1.659v12.723c0,0.917,0.732,1.66,1.635,1.66h13.351
	c0.902,0,1.634-0.743,1.634-1.66V61.406C45.228,60.489,44.496,59.746,43.594,59.746L43.594,59.746z M41.959,72.469H31.877v-9.405
	h10.081V72.469z M41.959,72.469"/>
<path fill="#FFFFFF" d="M63.647,59.746H50.132c-0.902,0-1.634,0.742-1.634,1.659v32.085c0,0.916,0.732,1.66,1.634,1.66h13.514
	c0.902,0,1.635-0.744,1.635-1.66V82.428c0-0.916-0.732-1.661-1.635-1.661c-0.903,0-1.635,0.744-1.635,1.661v9.404H51.767V63.065
	h10.244v12.724c0,0.916,0.732,1.66,1.635,1.66c0.902,0,1.635-0.744,1.635-1.66V61.406C65.281,60.489,64.549,59.746,63.647,59.746
	L63.647,59.746z M63.647,59.746"/>
<path fill="#FFFFFF" d="M65.827,0H8.174C3.666,0,0,3.722,0,8.298v87.406c0,4.575,3.666,8.298,8.174,8.298h57.653
	c4.506,0,8.173-3.723,8.173-8.298V8.298C74,3.722,70.332,0,65.827,0L65.827,0z M70.731,95.704c0,2.745-2.201,4.979-4.904,4.979
	H8.174c-2.705,0-4.904-2.234-4.904-4.979V8.298c0-2.746,2.199-4.979,4.904-4.979h57.653c2.703,0,4.904,2.233,4.904,4.979V95.704z
	 M70.731,95.704"/>
<path fill="#FFFFFF" d="M63.647,8.852H10.518c-0.903,0-1.635,0.743-1.635,1.658v19.915c0,0.917,0.732,1.66,1.635,1.66h53.129
	c0.902,0,1.635-0.744,1.635-1.66V10.511C65.281,9.595,64.549,8.852,63.647,8.852L63.647,8.852z M12.152,12.17h20.573L16.379,28.767
	h-4.226V12.17z M62.012,28.767H34.081l4.706-4.778c0.638-0.649,0.638-1.698,0-2.347c-0.639-0.649-1.673-0.647-2.313,0l-7.018,7.124
	h-8.454L37.351,12.17h8.454l-4.706,4.778c-0.638,0.649-0.638,1.699,0,2.347c0.319,0.325,0.738,0.486,1.156,0.486
	c0.419,0,0.836-0.161,1.157-0.486l7.018-7.125h11.583V28.767z M62.012,28.767"/>
<path fill="#FFFFFF" d="M63.647,37.617H30.243c-0.903,0-1.635,0.745-1.635,1.661c0,0.916,0.732,1.658,1.635,1.658h33.403
	c0.902,0,1.635-0.742,1.635-1.658C65.281,38.362,64.549,37.617,63.647,37.617L63.647,37.617z M63.647,37.617"/>
<path fill="#FFFFFF" d="M23.704,37.617H10.518c-0.903,0-1.635,0.745-1.635,1.661c0,0.916,0.732,1.658,1.635,1.658h13.186
	c0.902,0,1.634-0.742,1.634-1.658C25.338,38.362,24.606,37.617,23.704,37.617L23.704,37.617z M23.704,37.617"/>
</svg>
