<svg version="1.2" baseProfile="tiny" xmlns="http://www.w3.org/2000/svg" width="40" height="40" viewBox="0 0 40 40">
    <g fill="#152A49">
        <path d="M20.098 12.137c-2.114 0-3.834 1.606-3.834 3.58s1.72 3.58 3.834 3.58c2.112 0 3.83-1.606 3.83-3.58.002-1.975-1.717-3.58-3.83-3.58zm0 6.135c-1.51 0-2.738-1.146-2.738-2.557 0-1.41 1.227-2.557 2.738-2.557 1.508 0 2.738 1.148 2.738 2.557 0 1.41-1.23 2.557-2.738 2.557zm0 0"/>
        <path d="M27.427 8.87C25.444 7.02 22.807 6 20.003 6c-2.808 0-5.443 1.02-7.428 2.87-3.668 3.43-4.125 9.877-.986 13.785l8.413 11.347L28.4 22.67c3.152-3.923 2.695-10.37-.973-13.8zm.085 13.203l-7.51 10.133-7.526-10.148c-2.845-3.545-2.44-9.37.874-12.463 1.778-1.658 4.14-2.572 6.652-2.572 2.51 0 4.87.914 6.65 2.572 3.312 3.093 3.72 8.917.86 12.478zm0 0"/>
    </g>
</svg>
