<svg version="1.2" baseProfile="tiny" xmlns="http://www.w3.org/2000/svg" width="40" height="40" viewBox="0 0 40 40"><g fill="#132948"><path d="M36.99 15.142c-.002-1.185-.95-2.153-2.12-2.153l-17.71.008c-1.1 0-1.997.86-2.096 1.95-.03.09-.014 12.908-.014 12.908 0 .574.22 1.114.62 1.52.313.318.702.523 1.125.6.122.02.248.032.373.032L34.878 30c.568 0 1.097-.225 1.498-.632.4-.407.622-.947.62-1.523l-.006-12.703zm-1.094 10.442l-4.994-5.548c1.935-1.488 3.97-3.14 4.988-3.97l.006 9.518zM16.44 14.42c.193-.195.45-.305.72-.306l17.712-.007c.06.002.12.007.177.017.33.06.604.283.742.585-.607.5-6.102 5.01-8.66 6.708-.673.445-1.53.433-2.182-.03-2.382-1.684-7.53-5.574-8.767-6.513.045-.17.13-.328.258-.455zm-.298 1.82c1.16.874 3.266 2.462 5.194 3.888l-5.19 5.71-.004-9.6zm19.456 12.338c-.192.196-.448.305-.72.304l-17.71.008c-.273 0-.53-.106-.72-.304-.194-.196-.3-.455-.3-.73v-.37l6.086-6.695c.793.584 1.52 1.112 2.09 1.516.37.264.79.432 1.214.508.746.134 1.53-.02 2.195-.46.634-.42 1.432-1 2.286-1.646l5.876 6.535.002.602c-.003.277-.108.538-.3.733zM13.61 18.066c-.002-.308-.247-.56-.55-.56l-9.505.006c-.302 0-.55.25-.55.558.002.277.196.506.456.552.03.005.062.01.096.006l9.505-.004c.303 0 .55-.248.55-.558zM13.61 21.35c0-.312-.246-.56-.55-.56h-5.7c-.304.002-.552.25-.55.56-.002.275.196.505.452.55.032.007.064.01.097.01l5.702-.004c.302 0 .55-.25.548-.557zM13.06 24.057H9.263c-.306.002-.55.25-.55.56 0 .276.195.502.454.55.03.005.063.007.096.008h3.8c.305-.002.55-.25.55-.56 0-.31-.247-.562-.55-.558z"/></g></svg>