<?xml version="1.0" encoding="utf-8"?>
<!-- Generator: Adobe Illustrator 17.0.0, SVG Export Plug-In . SVG Version: 6.00 Build 0)  -->
<svg version="1.2" baseProfile="tiny" id="Layer_1" xmlns="http://www.w3.org/2000/svg" xmlns:xlink="http://www.w3.org/1999/xlink"
	 x="0px" y="0px" width="37px" height="52px" viewBox="0 0 37 52" xml:space="preserve">
<path fill="#FFFFFF" d="M31.823,23.234h-6.757c-0.451,0-0.817,0.372-0.817,0.83v3.32c0,0.458,0.366,0.829,0.817,0.829h6.757
	c0.451,0,0.817-0.372,0.817-0.829v-3.32C32.641,23.606,32.274,23.234,31.823,23.234L31.823,23.234z M31.006,26.553h-5.122v-1.659
	h5.122V26.553z M31.006,26.553"/>
<path fill="#FFFFFF" d="M11.852,39.554H5.177c-0.451,0-0.817,0.372-0.817,0.829v6.362c0,0.458,0.366,0.83,0.817,0.83h6.675
	c0.451,0,0.817-0.372,0.817-0.83v-6.362C12.669,39.926,12.303,39.554,11.852,39.554L11.852,39.554z M11.035,45.915H5.994v-4.702
	h5.041V45.915z M11.035,45.915"/>
<path fill="#FFFFFF" d="M21.797,39.554h-6.675c-0.452,0-0.818,0.372-0.818,0.829v6.362c0,0.458,0.366,0.83,0.818,0.83h6.675
	c0.451,0,0.817-0.372,0.817-0.83v-6.362C22.614,39.926,22.248,39.554,21.797,39.554L21.797,39.554z M20.979,45.915h-5.04v-4.702
	h5.04V45.915z M20.979,45.915"/>
<path fill="#FFFFFF" d="M11.852,29.873H5.177c-0.451,0-0.817,0.371-0.817,0.83v6.362c0,0.458,0.366,0.83,0.817,0.83h6.675
	c0.451,0,0.817-0.372,0.817-0.83v-6.362C12.669,30.244,12.303,29.873,11.852,29.873L11.852,29.873z M11.035,36.234H5.994v-4.702
	h5.041V36.234z M11.035,36.234"/>
<path fill="#FFFFFF" d="M21.797,29.873h-6.675c-0.452,0-0.818,0.371-0.818,0.83v6.362c0,0.458,0.366,0.83,0.818,0.83h6.675
	c0.451,0,0.817-0.372,0.817-0.83v-6.362C22.614,30.244,22.248,29.873,21.797,29.873L21.797,29.873z M20.979,36.234h-5.04v-4.702
	h5.04V36.234z M20.979,36.234"/>
<path fill="#FFFFFF" d="M31.823,29.873h-6.757c-0.451,0-0.817,0.371-0.817,0.83v16.042c0,0.458,0.366,0.83,0.817,0.83h6.757
	c0.451,0,0.817-0.372,0.817-0.83v-5.531c0-0.458-0.366-0.83-0.817-0.83c-0.452,0-0.818,0.372-0.818,0.83v4.702h-5.122V31.532h5.122
	v6.362c0,0.458,0.366,0.83,0.818,0.83c0.451,0,0.817-0.372,0.817-0.83v-7.191C32.641,30.244,32.274,29.873,31.823,29.873
	L31.823,29.873z M31.823,29.873"/>
<path fill="#FFFFFF" d="M32.913,0H4.087C1.833,0,0,1.861,0,4.149v43.703c0,2.287,1.833,4.149,4.087,4.149h28.826
	c2.253,0,4.087-1.861,4.087-4.149V4.149C37,1.861,35.166,0,32.913,0L32.913,0z M35.365,47.852c0,1.372-1.1,2.489-2.452,2.489H4.087
	c-1.352,0-2.452-1.118-2.452-2.489V4.149c0-1.373,1.099-2.489,2.452-2.489h28.826c1.352,0,2.452,1.117,2.452,2.489V47.852z
	 M35.365,47.852"/>
<path fill="#FFFFFF" d="M31.823,4.426H5.259c-0.452,0-0.818,0.372-0.818,0.829v9.957c0,0.459,0.366,0.83,0.818,0.83h26.564
	c0.451,0,0.817-0.372,0.817-0.83V5.255C32.641,4.797,32.274,4.426,31.823,4.426L31.823,4.426z M6.076,6.085h10.287l-8.173,8.298
	H6.076V6.085z M31.006,14.383H17.04l2.353-2.389c0.319-0.325,0.319-0.849,0-1.173c-0.32-0.324-0.837-0.324-1.156,0l-3.509,3.562
	h-4.227l8.174-8.298h4.227l-2.353,2.389c-0.319,0.324-0.319,0.849,0,1.173c0.16,0.162,0.369,0.243,0.578,0.243
	c0.209,0,0.418-0.081,0.578-0.243l3.509-3.562h5.791V14.383z M31.006,14.383"/>
<path fill="#FFFFFF" d="M31.823,18.808H15.122c-0.452,0-0.818,0.372-0.818,0.83c0,0.459,0.366,0.83,0.818,0.83h16.702
	c0.451,0,0.817-0.371,0.817-0.83C32.641,19.181,32.274,18.808,31.823,18.808L31.823,18.808z M31.823,18.808"/>
<path fill="#FFFFFF" d="M11.852,18.808H5.259c-0.452,0-0.818,0.372-0.818,0.83c0,0.459,0.366,0.83,0.818,0.83h6.593
	c0.451,0,0.817-0.371,0.817-0.83C12.669,19.181,12.303,18.808,11.852,18.808L11.852,18.808z M11.852,18.808"/>
</svg>
