<?xml version="1.0" encoding="utf-8"?>
<!-- Generator: Adobe Illustrator 17.0.0, SVG Export Plug-In . SVG Version: 6.00 Build 0)  -->
<svg version="1.2" baseProfile="tiny" id="Layer_1" xmlns="http://www.w3.org/2000/svg" xmlns:xlink="http://www.w3.org/1999/xlink"
	 x="0px" y="0px" width="16px" height="16px" viewBox="0 0 16 16" xml:space="preserve">
<path fill="#FFFFFF" d="M13.463,9.341c-0.767-0.791-1.897-0.794-2.687-0.008l-0.989,0.993c-0.04-0.02-0.083-0.041-0.13-0.064
	l-0.065-0.034c-0.094-0.048-0.183-0.093-0.266-0.145c-1.014-0.64-1.939-1.481-2.826-2.569C6.112,7.027,5.843,6.616,5.646,6.206
	C5.89,5.978,6.124,5.743,6.35,5.515l0.295-0.298c0.403-0.403,0.617-0.873,0.617-1.359c0-0.484-0.213-0.953-0.617-1.359L5.281,1.13
	C5.093,0.94,4.902,0.746,4.717,0.572c-0.762-0.758-1.877-0.768-2.678,0L0.836,1.77C0.353,2.251,0.077,2.841,0.015,3.527
	C-0.051,4.34,0.097,5.193,0.477,6.21c0.572,1.547,1.435,2.982,2.714,4.519c1.552,1.85,3.421,3.309,5.557,4.337
	c0.821,0.389,1.921,0.846,3.174,0.928C11.998,15.996,12.071,16,12.144,16c0.884,0,1.596-0.305,2.168-0.926l0.055-0.065
	c0.157-0.185,0.337-0.359,0.527-0.544l0.119-0.114c0.129-0.126,0.261-0.254,0.385-0.386c0.792-0.823,0.787-1.911-0.011-2.707
	L13.463,9.341z M4.474,5.42c-0.427,0.427-0.28,0.866-0.215,1.056c0.257,0.618,0.616,1.201,1.166,1.897
	c0.988,1.21,2.022,2.148,3.161,2.868c0.148,0.093,0.304,0.174,0.447,0.242l0.06,0.031c0.096,0.049,0.188,0.095,0.271,0.148
	l0.059,0.033c0.394,0.201,0.802,0.131,1.128-0.193l1.198-1.194c0.285-0.285,0.576-0.168,0.737,0l1.931,1.925
	c0.271,0.271,0.268,0.501-0.014,0.794h0c-0.133,0.14-0.27,0.273-0.421,0.416l-0.042,0.041c-0.216,0.209-0.44,0.425-0.638,0.663
	c-0.312,0.336-0.67,0.487-1.16,0.487c-0.049,0-0.102-0.004-0.15-0.006c-1.01-0.065-1.947-0.46-2.651-0.797
	c-1.953-0.941-3.668-2.28-5.096-3.979C3.068,8.442,2.28,7.134,1.763,5.734C1.454,4.905,1.332,4.24,1.38,3.642
	c0.03-0.355,0.168-0.649,0.423-0.901l1.188-1.185c0.128-0.123,0.265-0.191,0.386-0.191c0.118,0,0.243,0.065,0.376,0.198
	c0.212,0.198,0.413,0.402,0.626,0.621l1.286,1.288C5.763,3.57,5.879,3.716,5.879,3.861c0,0.145-0.116,0.291-0.214,0.388L5.363,4.553
	C5.069,4.857,4.801,5.13,4.474,5.42z"/>
<path fill="#FFFFFF" d="M15.324,0.009h-4.057c-0.38,0-0.689,0.308-0.689,0.687c0,0.379,0.309,0.686,0.689,0.686h2.397L8.924,6.11
	C8.793,6.24,8.721,6.414,8.722,6.599c0.001,0.183,0.074,0.354,0.201,0.478c0.13,0.13,0.303,0.202,0.487,0.202
	c0.184,0,0.357-0.072,0.487-0.202l4.738-4.726V4.74c0,0.379,0.309,0.688,0.689,0.688c0.38,0,0.689-0.308,0.689-0.688V0.696
	C16.013,0.317,15.704,0.009,15.324,0.009z"/>
</svg>
