<svg version="1.2" baseProfile="tiny" xmlns="http://www.w3.org/2000/svg" width="40" height="40" viewBox="0 0 40 40"><g fill="#152A49"><path d="M33.483 23.595c-.183-1.862-1.58-3.212-3.328-3.212-1.097 0-2.02.66-2.602 1.464-.586-.803-1.507-1.464-2.602-1.464-1.75 0-3.146 1.35-3.33 3.212-.017.122-.064.556.106 1.234.25 1 .825 1.91 1.66 2.628l4.167 3.545 4.164-3.548c.838-.716 1.413-1.625 1.663-2.626.167-.678.12-1.112.103-1.235zm-.992 1.017c-.203.817-.676 1.56-1.367 2.155l-3.57 3.038-3.57-3.038c-.69-.594-1.163-1.34-1.367-2.157-.138-.55-.09-.863-.09-.863l.007-.05c.112-1.194.98-2.4 2.418-2.4 1.002 0 1.82.822 2.184 1.64l.418.938.418-.938c.365-.82 1.18-1.64 2.184-1.64 1.44 0 2.304 1.207 2.422 2.443.004.002.053.314-.085.872zm0 0"/><path d="M18.11 19.86c.46.408 1.06.613 1.664.613.6 0 1.2-.205 1.66-.61l10.698-9.4v8.1c0 .25.203.455.458.455.252 0 .456-.204.456-.456v-9.11l-.002-.01c0-.05-.01-.1-.027-.15-.002-.005-.005-.007-.005-.01-.005-.012-.014-.02-.018-.032-.02-.038-.043-.07-.07-.102l-.037-.035c-.03-.024-.058-.045-.094-.063-.013-.007-.03-.015-.045-.02-.05-.02-.103-.034-.16-.034H6.957c-.058 0-.11.014-.16.034-.017.004-.03.013-.046.02-.033.017-.065.038-.094.062l-.038.035c-.027.032-.05.065-.067.103l-.02.03c0 .005 0 .008-.004.01-.017.05-.026.1-.026.15l-.002.012V27.22c.002.05.01.1.025.146.002.007.007.01.01.015.005.017.015.03.02.044.02.035.04.067.063.093.013.015.027.027.04.038.03.024.058.044.092.063.015.008.03.018.047.022.05.02.102.033.16.033H20.69c.252 0 .458-.204.458-.456 0-.25-.206-.455-.458-.455H8.272c2.083-1.642 6.776-5.365 9.188-7.47l.65.57zM31.378 9.91l-10.553 9.275c-.58.514-1.524.514-2.106-.002l-.907-.795c0-.002 0-.007-.003-.01-.01-.012-.027-.017-.038-.028l-9.605-8.44h23.212zM7.414 26.275V10.462l9.353 8.22c-2.543 2.21-7.485 6.12-9.353 7.593zm0 0"/></g><path fill="none" d="M14.61 18.066c-.002-.308-.247-.56-.55-.56l-9.505.006c-.302 0-.55.25-.55.558.002.277.197.506.456.552.03.005.062.01.096.006l9.505-.004c.303 0 .55-.248.55-.558zM14.61 21.35c0-.312-.246-.56-.55-.56h-5.7c-.304.002-.552.25-.55.56-.002.275.196.505.452.55.032.007.064.01.097.01l5.702-.004c.302 0 .55-.25.548-.557zM14.06 24.057h-3.798c-.306.002-.55.25-.55.56 0 .276.195.502.454.55.03.005.063.007.096.008h3.8c.305-.002.55-.25.55-.56 0-.31-.247-.562-.55-.558z"/></svg>
