<svg version="1.2" baseProfile="tiny" xmlns="http://www.w3.org/2000/svg" width="40" height="40" viewBox="0 0 40 40"><g fill="#152A49"><path d="M15.29 22.32c-1.212 0-2.228.736-2.873 1.635-.646-.9-1.663-1.635-2.875-1.635-1.93 0-3.473 1.506-3.675 3.587-.02.137-.072.62.116 1.38.274 1.117.908 2.13 1.833 2.933l4.21 3.627c.114.097.252.147.39.147.136 0 .274-.05.388-.147l4.21-3.627c.926-.8 1.56-1.816 1.833-2.934.188-.757.136-1.242.116-1.38-.2-2.08-1.742-3.586-3.673-3.586zm2.58 4.72c-.224.915-.747 1.746-1.51 2.408l-3.942 3.395-3.94-3.395c-.766-.66-1.287-1.496-1.512-2.408-.153-.616-.098-.966-.098-.966l.008-.052c.123-1.334 1.08-2.683 2.67-2.683 1.106 0 2.01.92 2.412 1.832l.46 1.048.463-1.048c.403-.914 1.304-1.836 2.412-1.836 1.59 0 2.545 1.35 2.676 2.73-.002.005.054.353-.098.974zm0 0M33.862 26.82c-1.017-1.93-4.54-4.025-4.694-4.118-.646-.37-1.315-.487-1.883-.328-.427.12-.773.39-1.007.785-.516.62-1.155 1.345-1.31 1.46-1.197.815-2.15.718-3.182-.32l-5.807-5.844c-1.033-1.04-1.13-2-.32-3.202.115-.16.835-.803 1.452-1.32.392-.235.66-.585.78-1.015.155-.564.037-1.253-.328-1.9-.09-.15-2.17-3.698-4.087-4.72-.975-.518-2.152-.342-2.93.443L9.264 8.036c-3.048 3.068-3.15 6.82-.29 10.843.164.228.477.28.707.116.228-.162.28-.48.117-.708-2.606-3.67-2.547-6.786.183-9.534l1.28-1.29c.468-.466 1.166-.573 1.743-.262 1.666.887 3.668 4.3 3.685 4.328.228.403.313.82.23 1.118-.05.184-.163.322-.344.425l-.076.054c-.432.36-1.458 1.238-1.673 1.558-.308.46-.514.91-.622 1.356-.36-.72-.65-1.556-.746-2.483-.03-.278-.274-.48-.555-.455-.28.03-.48.28-.452.56.365 3.54 3.1 5.84 3.216 5.936.012.01.027.015.042.025l5.36 5.4.07.06c.017.028.03.058.054.083.094.095 2.377 2.322 5.86 2.688.02 0 .036.003.053.003.257 0 .476-.196.504-.457.03-.28-.173-.53-.453-.56-1.068-.11-2.014-.426-2.803-.79.387-.118.78-.314 1.18-.585.316-.216 1.187-1.25 1.547-1.682l.053-.077c.104-.184.242-.298.422-.348.296-.084.713.003 1.106.23.95.56 3.578 2.32 4.308 3.71.306.584.202 1.287-.262 1.754l-1.284 1.29c-2.724 2.744-5.957 2.77-9.61.08-.228-.166-.543-.116-.706.11-.165.226-.116.544.11.71 1.99 1.466 3.91 2.196 5.715 2.196 1.88 0 3.634-.792 5.208-2.377l1.284-1.29c.78-.785.954-1.97.44-2.95zm0 0"/></g></svg>