<svg xmlns="http://www.w3.org/2000/svg" width="30" height="30" viewBox="0 0 30 30"><g fill="#152A49"><path d="M27.176 3.164L24.69.688c-.134-.135-.322-.202-.512-.184-.192.018-.364.12-.473.28C22.76 2.172 21.197 3 19.525 3c-1.643 0-3.19-.804-4.14-2.15-.088-.126-.232-.2-.386-.2-.155 0-.298.074-.387.2C13.665 2.196 12.117 3 10.473 3c-1.67 0-3.23-.83-4.177-2.217-.11-.16-.282-.262-.473-.28-.192-.018-.38.05-.514.184L2.824 3.163c-.237.236-.243.612-.015.858 1.525 1.645 1.162 4.183.703 7.395-.258 1.81-.552 3.86-.552 6.087 0 4.537 4.263 6.918 7.686 8.83 1.783.997 3.467 1.94 3.93 2.9.077.164.243.268.424.268.18 0 .347-.104.425-.267.463-.96 2.147-1.902 3.93-2.9 3.423-1.913 7.684-4.293 7.684-8.83 0-2.226-.294-4.278-.553-6.087-.46-3.212-.822-5.75.703-7.394.228-.247.222-.623-.014-.858zm-1.623 8.384c.254 1.78.543 3.796.543 5.955 0 1.76-.757 3.317-2.315 4.763-1.4 1.3-3.253 2.335-4.887 3.25-1.64.915-3.096 1.73-3.893 2.67-.797-.94-2.253-1.755-3.893-2.67-1.635-.914-3.488-1.95-4.888-3.25-1.56-1.446-2.316-3.004-2.316-4.763 0-2.16.288-4.176.543-5.955.475-3.326.855-5.98-.742-7.933L5.725 1.6c1.136 1.472 2.886 2.34 4.75 2.34 1.74 0 3.39-.76 4.525-2.058 1.135 1.298 2.785 2.058 4.526 2.058 1.863 0 3.612-.868 4.748-2.34l2.02 2.015c-1.595 1.953-1.216 4.606-.74 7.933zm0 0M23.834 5.107c.046-.18-.02-.372-.17-.486-.147-.114-.35-.13-.514-.04-1.108.606-2.36.925-3.624.925-1.524 0-2.996-.454-4.26-1.312-.16-.11-.372-.11-.532 0-1.265.858-2.738 1.312-4.26 1.312-1.264 0-2.517-.32-3.625-.925-.165-.09-.367-.074-.516.04-.148.115-.214.306-.168.487.504 1.99.18 4.26-.164 6.662-.26 1.81-.527 3.684-.527 5.733 0 2.85 2.653 4.552 6.4 6.646 1.04.58 2.025 1.13 2.85 1.717.083.058.18.087.275.087.096 0 .192-.03.274-.087.826-.587 1.81-1.136 2.85-1.718 3.75-2.095 6.4-3.798 6.4-6.647 0-2.05-.267-3.922-.526-5.734-.344-2.404-.67-4.672-.164-6.663zM15 19.54c-2.79 0-5.06-2.263-5.06-5.044 0-2.78 2.27-5.044 5.06-5.044s5.06 2.262 5.06 5.044c0 2.78-2.27 5.043-5.06 5.043zm-8.58-2.037c0-1.982.262-3.822.516-5.602.306-2.14.598-4.178.328-6.085 1.017.413 2.11.63 3.21.63 1.425 0 2.81-.354 4.055-1.028V8.53c-3.092.24-5.534 2.823-5.534 5.965 0 3.14 2.44 5.724 5.533 5.964v4.144c-.68-.43-1.42-.844-2.193-1.275-3.465-1.937-5.918-3.49-5.918-5.827zm11.243 5.827c-.772.43-1.512.845-2.192 1.275V20.46c3.092-.24 5.534-2.823 5.534-5.964 0-3.14-2.44-5.724-5.533-5.965V5.42c1.245.674 2.63 1.028 4.056 1.028 1.1 0 2.194-.217 3.21-.63-.27 1.906.02 3.945.327 6.086.255 1.78.518 3.62.518 5.602 0 2.337-2.452 3.89-5.917 5.826zm0 0M17.95 13.07l-1.59-.23-.71-1.436c-.118-.237-.356-.385-.622-.385s-.504.147-.622.384l-.71 1.436-1.59.23c-.264.038-.48.218-.56.47-.083.253-.016.524.174.71l1.15 1.117-.27 1.577c-.045.26.06.52.276.676.215.155.495.176.73.052l1.422-.745 1.422.745c.103.053.213.08.323.08.143 0 .286-.045.407-.132.216-.157.32-.415.276-.676l-.272-1.578 1.15-1.118c.19-.184.258-.456.176-.71-.082-.25-.296-.43-.56-.468zm-1.6 1.795c-.112.11-.163.264-.137.416l.228 1.326-1.193-.626c-.138-.072-.302-.072-.44 0l-1.193.626.228-1.325c.027-.15-.024-.307-.135-.415l-.966-.938 1.336-.194c.154-.022.286-.118.355-.256l.598-1.206.597 1.207c.07.138.202.234.355.256l1.335.194-.966.938zm0 0"/></g></svg>