<svg xmlns="http://www.w3.org/2000/svg" width="30" height="30" viewBox="0 0 30 30"><g fill="#152A49"><path d="M25.127 21.716c-.194-1.938-1.668-3.344-3.514-3.344-1.156 0-2.13.685-2.747 1.523-.616-.838-1.588-1.523-2.746-1.523-1.846 0-3.32 1.406-3.515 3.344-.02.128-.07.58.11 1.285.263 1.044.87 1.988 1.755 2.74l4.026 3.378c.106.09.24.136.37.136.132 0 .264-.046.373-.136l4.025-3.38c.883-.75 1.49-1.694 1.753-2.736.18-.706.13-1.158.11-1.286zm-1.046 1.057c-.213.85-.714 1.628-1.446 2.244l-3.77 3.165-3.766-3.165c-.732-.616-1.232-1.395-1.446-2.244-.146-.575-.094-.9-.094-.9l.01-.05c.117-1.244 1.033-2.5 2.552-2.5 1.057 0 1.92.856 2.304 1.708l.444.978.442-.977c.385-.85 1.246-1.708 2.305-1.708 1.52 0 2.434 1.258 2.56 2.545 0 .002.053.327-.094.906zM24.08 22.773"/><path d="M14.516 13.086c-.696.178-1.24.723-1.4 1.413H9.684c-.267 0-.484.212-.484.473 0 .262.216.475.483.475h3.472c.236.786.968 1.364 1.846 1.364 1.068 0 1.934-.85 1.934-1.896 0-.883-.618-1.617-1.45-1.83v-4.81c0-.26-.216-.474-.483-.474-.265 0-.483.213-.483.475v4.81zM15.968 14.915c0 .524-.434.95-.968.95s-.968-.426-.968-.95c0-.523.434-.947.968-.947s.968.424.968.947zM15.968 14.915"/><path d="M15 5.43c.267 0 .484-.21.484-.475v-.472c0-.264-.217-.475-.484-.475-.266 0-.484.21-.484.475v.473c0 .264.218.474.484.474zM15 5.43"/><path d="M25.635 14.44h-.484c-.266 0-.483.214-.483.476s.217.475.484.475h.485c.266 0 .48-.213.48-.474s-.214-.475-.48-.475zM25.635 14.44"/><path d="M4.366 14.44c-.266 0-.48.214-.48.476s.214.475.48.475h.484c.267 0 .484-.213.484-.474s-.217-.475-.484-.475h-.484zM4.366 14.44"/><path d="M22.52 8.21l.342-.337c.188-.185.188-.485 0-.67-.19-.186-.496-.186-.685 0l-.343.335c-.19.185-.19.487 0 .67.095.094.22.14.343.14.125 0 .248-.047.342-.14zM22.52 8.21"/><path d="M7.48 21.624l-.34.334c-.19.185-.19.486 0 .67.094.094.216.14.34.14.124 0 .25-.045.343-.14l.342-.334c.188-.185.188-.483 0-.67-.19-.187-.495-.187-.684 0zM7.48 21.624"/><path d="M8.166 7.537l-.343-.335c-.19-.185-.496-.185-.685 0-.188.186-.188.486 0 .67l.342.337c.094.092.217.14.342.14.122 0 .248-.048.342-.14.19-.186.19-.487.002-.673zM8.166 7.537"/><path d="M15 .746C7.005.746.5 7.128.5 14.973c0 6.556 4.524 12.236 11.002 13.81.038.01.078.015.116.015.217 0 .416-.145.47-.36.063-.256-.095-.513-.354-.575-6.044-1.468-10.266-6.77-10.266-12.89C1.468 7.65 7.538 1.695 15 1.695c7.463 0 13.532 5.956 13.532 13.278 0 1.644-.304 3.256-.908 4.787-.097.246.026.52.276.614.248.094.53-.028.625-.27.646-1.644.975-3.368.975-5.13C29.5 7.127 22.995.745 15 .745zM15 .746"/></g></svg>