<svg xmlns="http://www.w3.org/2000/svg" width="30" height="30" viewBox="0 0 30 30"><g fill="#152A49"><path d="M28.476 13.114h-.718V8.35c0-1.12-.896-2-1.976-2h-.54V3.165c0-1.117-.84-2-1.855-2h-.12L2.78 6.346c-.005 0-.017.005-.023.005-1.012.08-1.833.93-1.833 2v18.486c0 1.117.896 1.998 1.976 1.998h22.88c1.138 0 2.033-.88 2.033-1.998v-4.89h.66c.363 0 .598-.237.598-.588v-7.65c0-.357-.3-.594-.598-.594zm-4.974-10.83c.3.056.597.412.597.88v3.18H7.572l15.93-4.06zm3.12 24.552c0 .468-.363.88-.84.88H2.902c-.477 0-.838-.41-.838-.88V8.35c0-.47.362-.882.838-.882H25.72c.476 0 .837.413.837.88v4.767H20.63c-2.517 0-4.493 1.942-4.493 4.415s2.033 4.416 4.492 4.416h5.99v4.89zm1.25-6.01H20.63c-1.8 0-3.292-1.472-3.292-3.234 0-1.76 1.5-3.235 3.29-3.235h7.245v6.47zm0 0M19.97 17.648c0 .355.298.588.597.588h.54c.3 0 .597-.237.597-.588 0-.355-.3-.588-.597-.588h-.534c-.363 0-.604.238-.604.588zm0 0"/></g></svg>