<svg xmlns="http://www.w3.org/2000/svg" width="30" height="30" viewBox="0 0 30 30"><g fill="#152A49"><path d="M28.63 4.124c-.007-.18-.095-.345-.238-.45-.144-.107-.328-.14-.5-.092-1.162.327-2.367.494-3.583.494-3.372 0-6.584-1.275-9.046-3.59-.223-.21-.57-.21-.794 0-2.463 2.315-5.674 3.59-9.045 3.59-1.128 0-2.25-.143-3.33-.425-.172-.044-.353-.008-.494.098-.14.107-.227.272-.232.45-.01.314-.015.632-.015.942 0 4.956 1.266 9.848 3.66 14.145 2.323 4.165 5.668 7.726 9.674 10.296.095.062.204.092.312.092.107 0 .216-.03.312-.09 4.007-2.57 7.352-6.132 9.673-10.297 2.395-4.297 3.66-9.19 3.66-14.145.002-.33-.004-.67-.016-1.016zM15 28.392C7.175 23.225 2.515 14.562 2.515 5.14v-.192c.954.197 1.93.296 2.91.296 3.487 0 6.82-1.256 9.442-3.546 2.62 2.29 5.954 3.546 9.442 3.546 1.07 0 2.135-.12 3.173-.354v.25C27.486 14.56 22.826 23.224 15 28.39zm0 0M10.844 6.155c-.1-.307-.43-.473-.735-.37-1.475.492-3.017.717-4.585.67-.32-.01-.59.242-.598.565-.01.322.242.593.563.602.15.004.302.007.453.007 1.548 0 3.07-.248 4.533-.736.304-.102.47-.433.368-.74zm0 0M12.533 5.946c.094 0 .19-.023.277-.072.488-.266.966-.566 1.42-.89.264-.185.326-.55.14-.813-.184-.263-.547-.326-.81-.14-.417.296-.856.572-1.305.817-.282.154-.387.51-.233.793.105.195.305.306.51.306zm0 0M21.33 9.852l-7.754 7.8-3.92-3.942c-.226-.23-.594-.23-.82 0-.228.228-.228.6 0 .827l4.33 4.355c.112.114.26.17.41.17.15 0 .298-.056.41-.17l8.167-8.213c.227-.23.227-.6 0-.827-.227-.23-.595-.23-.822 0zm0 0"/></g></svg>