<?xml version="1.0" encoding="utf-8"?>
<!DOCTYPE svg PUBLIC "-//W3C//DTD SVG 1.1//EN" "http://www.w3.org/Graphics/SVG/1.1/DTD/svg11.dtd">
<svg
	version="1.1"
	id="Layer_1"
	xmlns="http://www.w3.org/2000/svg"
	xmlns:xlink="http://www.w3.org/1999/xlink"
	x="0px"
	y="0px"
	width="1206.52px"
	height="177.359px"
	viewBox="0 0 1206.52 177.359"
	enable-background="new 0 0 1206.52 177.359"
	xml:space="preserve">
	<g>
		<defs>
			<rect id="SVGID_1_" width="1206.518" height="177.359"/>
		</defs>
		<clipPath id="SVGID_2_">
			<use xlink:href="#SVGID_1_" overflow="visible"/>
		</clipPath>
		<path
			clip-path="url(#SVGID_2_)"
			fill="#009EE3"
			d="M69.813,88.974c0,5.997-0.788,11.535-2.363,16.615
		c-1.576,5.083-3.887,9.451-6.935,13.109c-3.049,3.659-6.784,6.505-11.204,8.536c-4.421,2.032-9.477,3.049-15.167,3.049
		c-4.573,0-8.612-0.61-12.118-1.829c-3.506-1.22-6.124-2.387-7.851-3.506v39.036H0V51.628c3.353-0.812,7.545-1.7,12.575-2.667
		c5.03-0.965,10.846-1.448,17.454-1.448c6.097,0,11.584,0.967,16.462,2.896c4.878,1.932,9.043,4.675,12.499,8.231
		c3.454,3.558,6.122,7.903,8.003,13.033C68.872,76.805,69.813,82.572,69.813,88.974 M55.028,88.974c0-9.246-2.286-16.36-6.859-21.34
		c-4.573-4.978-10.67-7.469-18.292-7.469c-4.268,0-7.598,0.152-9.984,0.457c-2.389,0.305-4.295,0.662-5.717,1.067v49.997
		c1.727,1.424,4.216,2.796,7.47,4.116c3.251,1.322,6.806,1.981,10.67,1.981c4.063,0,7.545-0.735,10.441-2.209
		c2.897-1.473,5.259-3.507,7.088-6.098c1.829-2.592,3.149-5.64,3.964-9.146C54.62,96.824,55.028,93.04,55.028,88.974"/>
		<path
			clip-path="url(#SVGID_2_)"
			fill="#009EE3"
			d="M119.047,47.512c1.22,0,2.615,0.076,4.192,0.229
		c1.574,0.152,3.125,0.357,4.649,0.61c1.524,0.254,2.92,0.509,4.192,0.761c1.269,0.255,2.21,0.484,2.82,0.686l-2.439,12.347
		c-1.119-0.404-2.973-0.888-5.564-1.448c-2.591-0.557-5.921-0.838-9.984-0.838c-2.644,0-5.259,0.281-7.85,0.838
		c-2.592,0.56-4.295,0.941-5.107,1.143v66.613H89.78V52.543c3.354-1.219,7.519-2.363,12.499-3.43
		C107.257,48.046,112.847,47.512,119.047,47.512"/>
		<path
			clip-path="url(#SVGID_2_)"
			fill="#009EE3"
			d="M161.628,32.86c-2.541,0-4.701-0.838-6.478-2.515
		c-1.779-1.676-2.668-3.937-2.668-6.783c0-2.844,0.889-5.106,2.668-6.783c1.777-1.677,3.937-2.515,6.478-2.515
		c2.539,0,4.7,0.838,6.479,2.515c1.776,1.677,2.667,3.939,2.667,6.783c0,2.846-0.891,5.107-2.667,6.783
		C166.328,32.022,164.167,32.86,161.628,32.86 M168.793,128.453h-14.176V49.188h14.176V128.453z"/>
		<path
			clip-path="url(#SVGID_2_)"
			fill="#009EE3"
			d="M189.18,51.476c3.251-0.813,7.545-1.677,12.881-2.591
		c5.334-0.915,11.508-1.372,18.52-1.372c5.08,0,9.348,0.686,12.804,2.058c3.453,1.372,6.35,3.379,8.689,6.02
		c0.709-0.507,1.829-1.219,3.353-2.134c1.524-0.914,3.404-1.803,5.64-2.667c2.234-0.862,4.726-1.625,7.469-2.287
		c2.744-0.659,5.69-0.99,8.841-0.99c6.097,0,11.075,0.89,14.938,2.667c3.861,1.779,6.884,4.294,9.07,7.546
		c2.184,3.253,3.658,7.114,4.421,11.585c0.762,4.472,1.143,9.35,1.143,14.633v44.51h-14.176V86.993c0-4.673-0.229-8.69-0.686-12.043
		c-0.458-3.353-1.322-6.147-2.591-8.383c-1.272-2.234-2.999-3.888-5.183-4.955c-2.186-1.067-5.007-1.6-8.46-1.6
		c-4.778,0-8.715,0.636-11.813,1.905c-3.102,1.272-5.209,2.416-6.326,3.43c0.812,2.644,1.421,5.54,1.829,8.689
		c0.405,3.15,0.61,6.454,0.61,9.908v44.51h-14.177V86.993c0-4.673-0.255-8.69-0.762-12.043c-0.509-3.353-1.398-6.147-2.667-8.383
		c-1.272-2.234-2.999-3.888-5.183-4.955c-2.186-1.067-4.954-1.6-8.307-1.6c-1.425,0-2.949,0.052-4.573,0.153
		c-1.627,0.102-3.178,0.228-4.65,0.38c-1.474,0.153-2.819,0.331-4.039,0.534c-1.219,0.205-2.034,0.357-2.439,0.457v66.918H189.18
		V51.476z"/>
		<path
			clip-path="url(#SVGID_2_)"
			fill="#162A49"
			d="M495.838,51.476c3.251-0.813,7.569-1.677,12.957-2.591
		c5.385-0.915,11.585-1.372,18.597-1.372c6.299,0,11.532,0.89,15.7,2.667c4.166,1.779,7.493,4.268,9.984,7.469
		c2.489,3.202,4.242,7.038,5.259,11.509c1.015,4.472,1.524,9.4,1.524,14.786v44.51h-14.176V86.993c0-4.879-0.331-9.044-0.991-12.5
		c-0.661-3.454-1.753-6.25-3.277-8.384c-1.524-2.134-3.558-3.682-6.097-4.649c-2.541-0.965-5.692-1.448-9.451-1.448
		c-1.524,0-3.101,0.052-4.726,0.153c-1.626,0.102-3.177,0.228-4.648,0.38c-1.474,0.153-2.796,0.331-3.963,0.534
		c-1.17,0.205-2.008,0.357-2.516,0.457v66.918h-14.176V51.476z"/>
		<path
			clip-path="url(#SVGID_2_)"
			fill="#162A49"
			d="M631.025,120.527c-1.22,0.815-3.582,1.855-7.089,3.125
		c-3.505,1.272-7.597,1.905-12.27,1.905c-4.778,0-9.275-0.762-13.49-2.286c-4.218-1.525-7.903-3.887-11.051-7.088
		c-3.151-3.201-5.64-7.188-7.469-11.966c-1.83-4.775-2.744-10.465-2.744-17.072c0-5.793,0.862-11.102,2.591-15.929
		c1.727-4.826,4.242-8.994,7.545-12.5c3.302-3.506,7.341-6.25,12.119-8.231c4.775-1.982,10.16-2.972,16.158-2.972
		c6.604,0,12.37,0.483,17.301,1.448c4.927,0.967,9.069,1.855,12.422,2.667v77.728c0,12.195-3.15,21.036-9.45,26.523
		c-6.303,5.488-15.853,8.231-28.658,8.231c-4.98,0-9.679-0.406-14.099-1.219c-4.421-0.814-8.257-1.779-11.509-2.896l2.591-12.347
		c2.845,1.117,6.327,2.108,10.443,2.973c4.115,0.862,8.406,1.295,12.879,1.295c8.434,0,14.505-1.677,18.216-5.03
		c3.708-3.353,5.564-8.689,5.564-16.005V120.527z M630.872,61.689c-1.424-0.405-3.33-0.786-5.716-1.144
		c-2.389-0.355-5.616-0.533-9.679-0.533c-7.621,0-13.49,2.491-17.606,7.469c-4.116,4.98-6.173,11.585-6.173,19.816
		c0,4.573,0.583,8.486,1.752,11.737c1.168,3.254,2.744,5.945,4.726,8.079c1.981,2.134,4.268,3.711,6.859,4.725
		c2.591,1.017,5.259,1.525,8.003,1.525c3.758,0,7.214-0.534,10.365-1.6c3.149-1.068,5.64-2.311,7.469-3.735V61.689z"/>
		<path
			clip-path="url(#SVGID_2_)"
			fill="#162A49"
			d="M672.447,32.86c-2.541,0-4.701-0.838-6.479-2.515
		c-1.778-1.676-2.667-3.937-2.667-6.783c0-2.844,0.889-5.106,2.667-6.783c1.778-1.677,3.938-2.515,6.479-2.515
		c2.539,0,4.7,0.838,6.478,2.515s2.668,3.939,2.668,6.783c0,2.846-0.89,5.107-2.668,6.783
		C677.147,32.022,674.986,32.86,672.447,32.86 M679.611,128.453h-14.176V49.188h14.176V128.453z"/>
		<path
			clip-path="url(#SVGID_2_)"
			fill="#162A49"
			d="M699.998,51.476c3.252-0.813,7.569-1.677,12.957-2.591
		c5.385-0.915,11.585-1.372,18.597-1.372c6.299,0,11.532,0.89,15.7,2.667c4.166,1.779,7.493,4.268,9.984,7.469
		c2.489,3.202,4.242,7.038,5.259,11.509c1.015,4.472,1.524,9.4,1.524,14.786v44.51h-14.176V86.993c0-4.879-0.331-9.044-0.991-12.5
		c-0.661-3.454-1.753-6.25-3.276-8.384c-1.525-2.134-3.559-3.682-6.098-4.649c-2.541-0.965-5.692-1.448-9.451-1.448
		c-1.524,0-3.101,0.052-4.725,0.153c-1.627,0.102-3.177,0.228-4.649,0.38c-1.474,0.153-2.796,0.331-3.963,0.534
		c-1.17,0.205-2.008,0.357-2.516,0.457v66.918h-14.176V51.476z"/>
		<path
			clip-path="url(#SVGID_2_)"
			fill="#162A49"
			d="M781.072,88.973c0-7.011,1.015-13.133,3.048-18.368
		c2.032-5.233,4.726-9.577,8.079-13.033c3.354-3.453,7.215-6.044,11.585-7.774c4.368-1.727,8.841-2.591,13.414-2.591
		c10.67,0,18.849,3.33,24.542,9.984c5.69,6.657,8.536,16.794,8.536,30.41v2.363c0,0.967-0.053,1.855-0.152,2.667h-54.266
		c0.61,8.232,2.996,14.482,7.164,18.749c4.166,4.269,10.67,6.402,19.511,6.402c4.978,0,9.17-0.431,12.576-1.295
		c3.404-0.862,5.968-1.701,7.698-2.515l1.982,11.889c-1.73,0.915-4.752,1.882-9.071,2.897c-4.32,1.015-9.222,1.524-14.709,1.524
		c-6.912,0-12.88-1.043-17.911-3.125c-5.03-2.082-9.171-4.954-12.423-8.612c-3.253-3.658-5.666-8.003-7.24-13.033
		C781.858,100.482,781.072,94.971,781.072,88.973 M835.49,81.199c0.1-6.402-1.501-11.661-4.802-15.777
		c-3.303-4.115-7.85-6.173-13.642-6.173c-3.254,0-6.123,0.636-8.612,1.905c-2.491,1.272-4.6,2.923-6.327,4.954
		c-1.729,2.035-3.074,4.371-4.039,7.013c-0.967,2.643-1.6,5.334-1.905,8.078H835.49z"/>
		<path
			clip-path="url(#SVGID_2_)"
			fill="#162A49"
			d="M867.28,88.973c0-7.011,1.015-13.133,3.048-18.368
		c2.032-5.233,4.726-9.577,8.079-13.033c3.354-3.453,7.215-6.044,11.585-7.774c4.368-1.727,8.841-2.591,13.414-2.591
		c10.67,0,18.849,3.33,24.542,9.984c5.69,6.657,8.536,16.794,8.536,30.41v2.363c0,0.967-0.053,1.855-0.152,2.667h-54.266
		c0.61,8.232,2.996,14.482,7.164,18.749c4.166,4.269,10.67,6.402,19.511,6.402c4.978,0,9.17-0.431,12.576-1.295
		c3.403-0.862,5.968-1.701,7.697-2.515l1.982,11.889c-1.729,0.915-4.751,1.882-9.07,2.897c-4.32,1.015-9.222,1.524-14.709,1.524
		c-6.912,0-12.88-1.043-17.911-3.125c-5.03-2.082-9.171-4.954-12.423-8.612c-3.253-3.658-5.666-8.003-7.24-13.033
		C868.066,100.482,867.28,94.971,867.28,88.973 M921.698,81.199c0.1-6.402-1.501-11.661-4.802-15.777
		c-3.303-4.115-7.85-6.173-13.642-6.173c-3.254,0-6.123,0.636-8.612,1.905c-2.492,1.272-4.6,2.923-6.327,4.954
		c-1.729,2.035-3.074,4.371-4.039,7.013c-0.967,2.643-1.6,5.334-1.905,8.078H921.698z"/>
		<path
			clip-path="url(#SVGID_2_)"
			fill="#162A49"
			d="M985.175,47.512c1.219,0,2.616,0.076,4.192,0.229
		c1.574,0.152,3.125,0.357,4.649,0.61c1.524,0.254,2.92,0.509,4.192,0.761c1.269,0.255,2.21,0.484,2.82,0.686l-2.439,12.347
		c-1.12-0.404-2.972-0.888-5.563-1.448c-2.592-0.557-5.921-0.838-9.985-0.838c-2.643,0-5.258,0.281-7.85,0.838
		c-2.591,0.56-4.295,0.941-5.107,1.143v66.613h-14.176V52.543c3.354-1.219,7.519-2.363,12.5-3.43
		C973.385,48.046,978.975,47.512,985.175,47.512"/>
		<path
			clip-path="url(#SVGID_2_)"
			fill="#162A49"
			d="M1027.757,32.86c-2.541,0-4.702-0.838-6.479-2.515
		c-1.779-1.676-2.667-3.937-2.667-6.783c0-2.844,0.888-5.106,2.667-6.783c1.777-1.677,3.938-2.515,6.479-2.515
		c2.539,0,4.699,0.838,6.478,2.515c1.777,1.677,2.668,3.939,2.668,6.783c0,2.846-0.891,5.107-2.668,6.783
		C1032.456,32.022,1030.296,32.86,1027.757,32.86 M1034.921,128.453h-14.176V49.188h14.176V128.453z"/>
		<path
			clip-path="url(#SVGID_2_)"
			fill="#162A49"
			d="M1055.308,51.476c3.252-0.813,7.569-1.677,12.957-2.591
		c5.385-0.915,11.585-1.372,18.597-1.372c6.299,0,11.532,0.89,15.7,2.667c4.166,1.779,7.493,4.268,9.984,7.469
		c2.489,3.202,4.242,7.038,5.259,11.509c1.015,4.472,1.524,9.4,1.524,14.786v44.51h-14.176V86.993c0-4.879-0.331-9.044-0.991-12.5
		c-0.661-3.454-1.753-6.25-3.276-8.384c-1.525-2.134-3.559-3.682-6.098-4.649c-2.541-0.965-5.692-1.448-9.451-1.448
		c-1.524,0-3.101,0.052-4.725,0.153c-1.627,0.102-3.177,0.228-4.649,0.38c-1.474,0.153-2.796,0.331-3.963,0.534
		c-1.17,0.205-2.008,0.357-2.516,0.457v66.918h-14.176V51.476z"/>
		<path
			clip-path="url(#SVGID_2_)"
			fill="#162A49"
			d="M1192.495,120.527c-1.22,0.815-3.582,1.855-7.089,3.125
		c-3.505,1.272-7.597,1.905-12.27,1.905c-4.778,0-9.275-0.762-13.49-2.286c-4.218-1.525-7.903-3.887-11.051-7.088
		c-3.152-3.201-5.641-7.188-7.469-11.966c-1.83-4.775-2.744-10.465-2.744-17.072c0-5.793,0.862-11.102,2.591-15.929
		c1.726-4.826,4.242-8.994,7.545-12.5c3.302-3.506,7.341-6.25,12.118-8.231c4.776-1.982,10.161-2.972,16.159-2.972
		c6.604,0,12.37,0.483,17.301,1.448c4.927,0.967,9.069,1.855,12.422,2.667v77.728c0,12.195-3.15,21.036-9.45,26.523
		c-6.303,5.488-15.853,8.231-28.658,8.231c-4.98,0-9.679-0.406-14.099-1.219c-4.421-0.814-8.258-1.779-11.509-2.896l2.591-12.347
		c2.844,1.117,6.326,2.108,10.442,2.973c4.115,0.862,8.407,1.295,12.88,1.295c8.434,0,14.505-1.677,18.216-5.03
		c3.708-3.353,5.564-8.689,5.564-16.005V120.527z M1192.342,61.689c-1.424-0.405-3.33-0.786-5.716-1.144
		c-2.389-0.355-5.616-0.533-9.679-0.533c-7.621,0-13.49,2.491-17.606,7.469c-4.116,4.98-6.174,11.585-6.174,19.816
		c0,4.573,0.584,8.486,1.753,11.737c1.167,3.254,2.744,5.945,4.726,8.079c1.981,2.134,4.268,3.711,6.859,4.725
		c2.591,1.017,5.259,1.525,8.003,1.525c3.758,0,7.214-0.534,10.365-1.6c3.149-1.068,5.64-2.311,7.469-3.735V61.689z"/>
		<path
			clip-path="url(#SVGID_2_)"
			fill="#009EE3"
			d="M317.003,88.973c0-7.011,1.014-13.133,3.048-18.368
		c2.032-5.233,4.726-9.577,8.079-13.033c3.353-3.453,7.214-6.044,11.585-7.774c4.368-1.727,8.841-2.591,13.414-2.591
		c10.67,0,18.848,3.33,24.541,9.984c4.706,5.505,7.466,13.39,8.281,23.654c-1.283,1.478-9.979,11.765-9.997,11.786h-44.166
		c0.61,8.232,2.996,14.482,7.164,18.749c4.166,4.269,10.671,6.402,19.512,6.402c4.978,0,9.169-0.431,12.576-1.295
		c3.403-0.862,5.968-1.701,7.697-2.515l1.982,11.889c-1.729,0.915-4.751,1.882-9.071,2.897c-4.32,1.015-9.221,1.524-14.708,1.524
		c-6.912,0-12.881-1.043-17.911-3.125c-5.03-2.082-9.172-4.954-12.423-8.612c-3.254-3.658-5.667-8.003-7.241-13.033
		C317.788,100.482,317.003,94.971,317.003,88.973 M371.42,81.199c0.1-6.402-1.5-11.661-4.801-15.777
		c-3.304-4.115-7.85-6.173-13.643-6.173c-3.253,0-6.123,0.636-8.612,1.905c-2.491,1.272-4.599,2.923-6.326,4.954
		c-1.729,2.035-3.075,4.371-4.039,7.013c-0.967,2.643-1.601,5.334-1.906,8.078H371.42z"/>
		<polygon clip-path="url(#SVGID_2_)" fill="#162A49" points="462.089,33.205 475.422,33.205 475.422,-0.001 317.011,-0.001
		317.011,33.205 330.345,33.205 330.345,13.359 462.089,13.359 	"/>
		<polygon clip-path="url(#SVGID_2_)" fill="#009EE3" points="330.345,144.154 317.012,144.154 317.012,177.359 475.423,177.359
		475.423,144.154 462.089,144.154 462.089,164 330.345,164 	"/>
		<path
			clip-path="url(#SVGID_2_)"
			fill="#162A49"
			d="M406.674,81.185c3.398-20.311,15.19-33.977,36.565-33.977
		c20.875,0,33.573,14.347,32.023,45.42h-54.266c0.41,25.852,23.993,29.815,46.948,21.344l1.982,11.89
		c-30.562,11.581-62.479,1.043-63.615-33.234h-19.423l9.393-11.443H406.674z M460.628,81.185c0.736-28.507-35.847-30.215-39.327,0
		H460.628z"/>
	</g>
</svg>
