<svg version="1.2" baseProfile="tiny" xmlns="http://www.w3.org/2000/svg" width="16" height="16" viewBox="0 0 16 16"><path fill="#fff" d="M13.463 9.34c-.767-.79-1.897-.793-2.687-.007l-.99.993-.13-.064-.064-.034c-.094-.048-.183-.093-.266-.145-1.014-.64-1.94-1.48-2.826-2.57-.388-.486-.657-.897-.854-1.307.244-.228.478-.463.704-.69l.295-.3c.403-.402.617-.872.617-1.358 0-.484-.213-.953-.617-1.36L5.28 1.13C5.094.94 4.903.746 4.718.572c-.762-.758-1.877-.768-2.678 0L.835 1.77c-.483.48-.76 1.07-.82 1.757-.067.813.08 1.666.46 2.683.573 1.547 1.436 2.982 2.715 4.52 1.553 1.85 3.422 3.308 5.558 4.336.82.39 1.92.846 3.174.928.076.002.15.006.222.006.884 0 1.596-.305 2.168-.926l.055-.065c.157-.186.337-.36.527-.545l.12-.114c.128-.125.26-.253.384-.385.792-.823.787-1.91-.01-2.707L13.462 9.34zm-8.99-3.92c-.426.427-.28.866-.214 1.056.256.618.615 1.2 1.165 1.897.988 1.21 2.022 2.148 3.16 2.868.15.094.305.175.448.243l.06.03c.096.05.188.096.27.15l.06.032c.394.2.802.13 1.128-.193l1.2-1.194c.284-.285.575-.168.736 0l1.93 1.925c.272.27.27.5-.013.794-.133.14-.27.273-.42.416l-.043.04c-.216.21-.44.426-.638.664-.312.336-.67.487-1.16.487-.05 0-.102-.004-.15-.006-1.01-.065-1.947-.46-2.65-.797-1.954-.94-3.67-2.28-5.097-3.978-1.177-1.41-1.965-2.718-2.482-4.118-.31-.83-.43-1.494-.383-2.092.03-.355.168-.65.423-.9L2.99 1.555c.13-.123.266-.19.387-.19.118 0 .243.064.376.197.212.198.413.402.626.62l1.285 1.29c.098.097.214.243.214.388 0 .146-.117.292-.215.39l-.302.303c-.294.304-.562.577-.89.867zM15.324.01h-4.057c-.38 0-.69.307-.69.686 0 .38.31.686.69.686h2.397L8.924 6.11c-.13.13-.203.304-.202.49 0 .182.074.353.2.477.13.13.304.202.488.202s.357-.073.487-.203l4.738-4.726v2.39c0 .38.31.688.69.688.38 0 .688-.308.688-.688V.696c0-.38-.31-.687-.69-.687z"/></svg>