<svg version="1.2" baseProfile="tiny" xmlns="http://www.w3.org/2000/svg" width="37" height="52" viewBox="0 0 37 52"><path fill="#fff" d="M31.823 23.234h-6.757c-.45 0-.817.372-.817.83v3.32c0 .458.365.83.816.83h6.757c.45 0 .817-.373.817-.83v-3.32c0-.458-.366-.83-.817-.83zm-.817 3.32h-5.122v-1.66h5.122v1.66zm0 0M11.852 39.554H5.177c-.45 0-.817.372-.817.83v6.36c0 .46.366.83.817.83h6.675c.45 0 .817-.37.817-.83v-6.36c0-.458-.367-.83-.818-.83zm-.817 6.36h-5.04v-4.7h5.04v4.7zm0 0M21.797 39.554h-6.675c-.452 0-.818.372-.818.83v6.36c0 .46.366.83.818.83h6.675c.45 0 .817-.37.817-.83v-6.36c0-.458-.366-.83-.817-.83zm-.818 6.36h-5.04v-4.7h5.04v4.7zm0 0M11.852 29.873H5.177c-.45 0-.817.37-.817.83v6.362c0 .458.366.83.817.83h6.675c.45 0 .817-.372.817-.83v-6.362c0-.46-.367-.83-.818-.83zm-.817 6.36h-5.04v-4.7h5.04v4.7zm0 0M21.797 29.873h-6.675c-.452 0-.818.37-.818.83v6.362c0 .458.366.83.818.83h6.675c.45 0 .817-.372.817-.83v-6.362c0-.46-.366-.83-.817-.83zm-.818 6.36h-5.04v-4.7h5.04v4.7zm0 0M31.823 29.873h-6.757c-.45 0-.817.37-.817.83v16.042c0 .458.365.83.816.83h6.757c.45 0 .817-.372.817-.83v-5.53c0-.46-.366-.83-.817-.83-.452 0-.818.37-.818.83v4.7h-5.122V31.533h5.122v6.362c0 .458.366.83.818.83.45 0 .817-.372.817-.83v-7.19c0-.46-.366-.83-.817-.83zm0 0M32.913 0H4.087C1.833 0 0 1.86 0 4.15V47.85c0 2.287 1.833 4.15 4.087 4.15h28.826C35.166 52 37 50.14 37 47.85V4.15C37 1.86 35.166 0 32.913 0zm2.452 47.852c0 1.372-1.1 2.49-2.452 2.49H4.087c-1.352 0-2.452-1.12-2.452-2.49V4.15c0-1.374 1.1-2.49 2.452-2.49h28.826c1.352 0 2.452 1.117 2.452 2.49V47.85zm0 0M31.823 4.426H5.26c-.453 0-.82.372-.82.83v9.956c0 .46.367.83.82.83h26.563c.45 0 .817-.372.817-.83V5.255c0-.458-.366-.83-.817-.83zM6.076 6.086h10.287L8.19 14.382H6.076V6.085zm24.93 8.297H17.04l2.353-2.39c.32-.324.32-.848 0-1.172-.32-.323-.837-.323-1.156 0l-3.51 3.563h-4.226l8.175-8.298h4.227l-2.353 2.39c-.32.323-.32.848 0 1.172.16.162.368.243.577.243.21 0 .418-.08.578-.243l3.51-3.562h5.79v8.298zm0 0M31.823 18.808h-16.7c-.453 0-.82.372-.82.83 0 .46.367.83.82.83h16.7c.452 0 .818-.37.818-.83 0-.457-.366-.83-.817-.83zm0 0M11.852 18.808H5.26c-.453 0-.82.372-.82.83 0 .46.367.83.82.83h6.592c.45 0 .817-.37.817-.83 0-.457-.367-.83-.818-.83zm0 0"/></svg>