<svg version="1.2" baseProfile="tiny" xmlns="http://www.w3.org/2000/svg" width="280" height="280" viewBox="0 0 280 280"><g fill="#152A49"><path d="M141.75 209.913c-39.024 0-70.77-31.806-70.77-70.9s31.746-70.9 70.77-70.9c39.022 0 70.77 31.806 70.77 70.9s-31.748 70.9-70.77 70.9zm0-135.818c-35.732 0-64.8 29.123-64.8 64.918s29.07 64.918 64.8 64.918 64.8-29.12 64.8-64.917-29.07-64.918-64.8-64.918zM223.496 119.105c-.127 0-.255-.008-.385-.024-1.627-.21-2.78-1.696-2.582-3.325.022-.21 1.1-11.896-11.452-30.517-13.407-19.89-40.925-33.253-68.477-33.253-27.204 0-52.27 12.438-68.79 34.128-.743 1.162-9.41 15.07-9.41 28.816 0 1.65-1.336 2.99-2.986 2.99s-2.986-1.34-2.986-2.99c0-16.11 10.016-31.533 10.442-32.182.038-.057.077-.113.118-.166 17.66-23.246 44.49-36.578 73.61-36.578 29.91 0 58.732 14.086 73.426 35.887 14.013 20.79 12.5 34.052 12.43 34.606-.195 1.51-1.48 2.61-2.958 2.61zM88.1 135.315c-.93 0-1.493-.02-1.617-.026-1.646-.07-2.925-1.46-2.857-3.11.067-1.65 1.485-2.92 3.104-2.866.174.003 18.442.64 35.267-7.224 17.897-8.367 24.09-15.646 25.484-29.954.15-1.533 1.435-2.7 2.972-2.7s2.822 1.167 2.97 2.7c1.43 14.66 15.003 24.606 34.58 25.333 1.648.06 2.935 1.448 2.874 3.1-.06 1.648-1.384 2.95-3.094 2.877-17.487-.65-30.88-7.93-36.928-19.362-4.293 11.062-13.307 17.337-26.33 23.426-15.367 7.183-31.352 7.805-36.423 7.805zM181.586 233.996c-7.513 0-13.626-6.124-13.626-13.65 0-7.528 6.113-13.652 13.626-13.652 7.513 0 13.626 6.124 13.626 13.65 0 7.53-6.112 13.652-13.626 13.652zm0-21.32c-4.22 0-7.655 3.442-7.655 7.67 0 4.23 3.435 7.67 7.656 7.67 4.22 0 7.655-3.44 7.655-7.67.002-4.23-3.433-7.67-7.654-7.67zM192.23 219.785c-1.032 0-2.036-.537-2.59-1.497-.823-1.43-.333-3.26 1.095-4.085 10.025-5.795 15.092-11.052 22.585-23.44 7.22-11.935 4.36-32.158 4.33-32.362-.24-1.633.886-3.152 2.517-3.393 1.63-.248 3.147.886 3.39 2.52.134.914 3.213 22.545-5.13 36.337-8.012 13.244-13.785 19.206-24.707 25.52-.47.27-.984.4-1.49.4zM64.726 160.956H54.07c-5 0-9.07-4.077-9.07-9.087v-28.475c0-5.01 4.07-9.088 9.07-9.088h10.655c5 0 9.07 4.077 9.07 9.088v28.474c0 5.01-4.068 9.086-9.07 9.086zM54.07 120.29c-1.708 0-3.1 1.392-3.1 3.105v28.474c0 1.71 1.392 3.104 3.1 3.104h10.655c1.708 0 3.1-1.393 3.1-3.105v-28.475c0-1.713-1.392-3.106-3.1-3.106H54.07zM225.93 160.956h-10.655c-5 0-9.07-4.077-9.07-9.087v-28.475c0-5.01 4.07-9.088 9.07-9.088h10.655c5 0 9.07 4.077 9.07 9.088v28.474c0 5.01-4.07 9.086-9.07 9.086zm-10.656-40.667c-1.708 0-3.1 1.392-3.1 3.105v28.474c0 1.71 1.392 3.104 3.1 3.104h10.655c1.708 0 3.098-1.393 3.098-3.105v-28.475c0-1.713-1.39-3.106-3.1-3.106h-10.654z"/></g></svg>