<svg version="1.2" baseProfile="tiny" xmlns="http://www.w3.org/2000/svg" width="280" height="280" viewBox="0 0 280 280"><g fill="#152A49"><path d="M168.89 89.974H92.767c-1.494 0-2.704-1.216-2.704-2.715 0-1.5 1.21-2.717 2.704-2.717h76.123c1.494 0 2.704 1.216 2.704 2.716 0 1.498-1.21 2.714-2.704 2.714zM168.89 112.568H92.767c-1.494 0-2.704-1.216-2.704-2.715 0-1.5 1.21-2.716 2.704-2.716h76.123c1.494 0 2.704 1.216 2.704 2.716 0 1.5-1.21 2.715-2.704 2.715zM168.89 135.162H92.767c-1.494 0-2.704-1.216-2.704-2.715 0-1.5 1.21-2.717 2.704-2.717h76.123c1.494 0 2.704 1.216 2.704 2.717 0 1.5-1.21 2.715-2.704 2.715zM168.89 157.756H92.767c-1.494 0-2.704-1.216-2.704-2.715 0-1.5 1.21-2.715 2.704-2.715h76.123c1.494 0 2.704 1.216 2.704 2.716 0 1.5-1.21 2.716-2.704 2.716zM94.33 223.042c-5.95 0-10.77-1.937-14.326-5.76-6.81-7.32-6.368-18.985-6.296-20.288V84.064H40.704c-.725 0-1.42-.293-1.93-.813-.508-.518-.787-1.222-.774-1.95.153-8.42 4.276-24.34 18.792-24.34 18.527 0 22.323 9.748 22.323 24.388v115.728c0 .06 0 .123-.005.184-.007.1-.603 10.48 4.86 16.33 2.527 2.706 5.916 4.022 10.36 4.022 6.485 0 11.373-1.778 14.532-5.286 5.002-5.552 4.238-13.836 4.23-13.92-.076-.76.172-1.526.684-2.096.513-.57 1.242-.898 2.005-.898h30.477c1.494 0 2.704 1.215 2.704 2.715 0 1.5-1.21 2.717-2.703 2.717h-27.73c-.145 3.687-1.115 10.054-5.616 15.083-4.227 4.722-10.478 7.115-18.58 7.115zM43.65 78.632h30.006c-.5-12.372-4.746-16.244-16.863-16.244-9.843 0-12.457 10.97-13.144 16.244zM180.984 223.042H99.432c-1.494 0-2.704-1.215-2.704-2.715 0-1.5 1.21-2.715 2.704-2.715h81.552c1.494 0 2.704 1.216 2.704 2.715 0 1.5-1.21 2.715-2.704 2.715zM184.908 127.61c-1.494 0-2.704-1.217-2.704-2.716V79.77c0-14.267-10.767-17.044-12.388-17.382H56.596c-1.494 0-2.704-1.214-2.704-2.715 0-1.5 1.21-2.715 2.704-2.715h113.472c.14 0 .283.01.423.033 5.923.945 17.122 6.92 17.122 22.78v45.123c0 1.5-1.21 2.716-2.704 2.716zM242 148.145"/><path d="M184.15 173.026c-.374 0-.754-.08-1.116-.244-1.36-.62-1.96-2.23-1.344-3.595 1.214-2.686 2.584-6.307 2.68-7.475.228-2.74 3.243-4.154 10.04-7.087 2.698-1.166 7.213-3.115 8.01-4.044 1.77-2.222 8.64-19.663 10.016-31.693 1.548-13.53 3.615-41.913 2.85-49.35-3.647 2.7-12.773 14.186-21.95 39.536-11.546 31.886-15.912 60.692-15.956 60.98-.22 1.483-1.597 2.505-3.073 2.284-1.478-.222-2.496-1.603-2.275-3.088.043-.293 4.492-29.64 16.22-62.034 8.903-24.587 20.87-43.382 27.838-43.717 1.694-.093 3.11.777 3.828 2.294 2.854 6.022-2.056 53.243-2.11 53.71-1.44 12.585-8.464 31.075-11.17 34.473-1.447 1.818-4.778 3.34-10.092 5.636-2.33 1.007-5.748 2.48-6.894 3.316-.527 2.857-2.595 7.522-3.04 8.504-.452 1-1.434 1.592-2.462 1.592zM197.463 129.186c-1.144 0-2.205-.734-2.574-1.886-.458-1.428.325-2.958 1.747-3.416 1.29-.416 12.76-4.03 18.357-2.772 1.457.327 2.374 1.78 2.05 3.243-.327 1.462-1.772 2.38-3.23 2.056-3.147-.71-11.19 1.248-15.523 2.645-.274.09-.553.13-.827.13zM203.322 114.028c-1.2 0-2.295-.806-2.613-2.027-.38-1.45.483-2.934 1.926-3.315 4.9-1.293 11.286-2.565 13.886-1.264 1.337.67 1.882 2.3 1.216 3.642-.665 1.344-2.292 1.89-3.624 1.222-.96-.235-5.748.507-10.104 1.654-.23.06-.462.09-.688.09zM208.036 99.463c-1.088 0-2.115-.665-2.526-1.747-.533-1.4.163-2.968 1.557-3.506.862-.33 5.313-1.956 8.24-1.62 1.483.176 2.544 1.525 2.37 3.015-.175 1.49-1.522 2.554-3.002 2.38-1.198-.138-4.09.69-5.675 1.297-.317.123-.643.18-.964.18zM178.63 223.042h-6.278c-25.057 0-28.798-12.36-28.798-19.727 0-7.734 6.183-14.687 10.274-19.287.804-.905 1.744-1.96 2.335-2.72-1.335-.752-3.192-2.328-3.192-6.17 0-1.73.61-3.24 1.764-4.364 2.764-2.696 7.775-2.548 13.578-2.374 1.343.04 2.705.082 4.04.082h6.278c1.334 0 2.697-.04 4.04-.082 5.8-.173 10.813-.324 13.577 2.374 1.152 1.123 1.763 2.633 1.763 4.364 0 3.852-1.866 5.426-3.2 6.177.577.726 1.53 1.796 2.344 2.713 4.09 4.6 10.274 11.553 10.274 19.287 0 7.368-3.742 19.727-28.798 19.727zm-14.196-49.285c-2.66 0-5.172.17-5.933.914-.045.045-.122.12-.122.468 0 1.246.098 1.29.86 1.645 2.323 1.08 3.23 2.79 2.7 5.08-.377 1.622-1.77 3.187-4.077 5.78-3.542 3.988-8.898 10.01-8.898 15.67 0 11.816 12.72 14.297 23.39 14.297h6.278c10.67 0 23.39-2.48 23.39-14.296 0-5.66-5.357-11.684-8.9-15.67-2.307-2.594-3.7-4.16-4.076-5.78-.532-2.29.376-4 2.7-5.08.76-.355.86-.4.86-1.646 0-.348-.078-.423-.124-.467-1.12-1.095-6.052-.945-9.65-.84-1.396.042-2.812.084-4.2.084h-6.277c-1.388 0-2.804-.042-4.2-.084-1.16-.034-2.457-.073-3.72-.073z"/></g></svg>