<svg version="1.2" baseProfile="tiny" xmlns="http://www.w3.org/2000/svg" width="280" height="280" viewBox="0 0 280 280"><g fill="#152A49"><path d="M76.77 173.33C41.61 173.33 13 144.767 13 109.662c0-35.107 28.608-63.667 63.77-63.667 35.163 0 63.77 28.56 63.77 63.667 0 35.105-28.607 63.666-63.77 63.666zm0-121.353c-31.858 0-57.78 25.878-57.78 57.685 0 31.808 25.922 57.685 57.78 57.685 31.86 0 57.78-25.877 57.78-57.685 0-31.807-25.92-57.685-57.78-57.685zM110.867 117.833c-.15 0-.303-.01-.455-.035l-34.092-5.18c-1.465-.222-2.545-1.478-2.545-2.956V69.706c0-1.652 1.342-2.99 2.996-2.99s2.997 1.338 2.997 2.99v37.386l31.547 4.794c1.636.248 2.76 1.773 2.51 3.405-.225 1.482-1.503 2.543-2.957 2.543zM174.604 216.615c-1.654 0-2.996-1.34-2.996-2.99V108.213h-34.063c-1.653 0-2.995-1.338-2.995-2.99s1.342-2.99 2.995-2.99h37.058c1.654 0 2.996 1.338 2.996 2.99v108.403c0 1.65-1.342 2.99-2.996 2.99zM67.398 218.835h-12.12c-10.065 0-17.078-8.594-17.078-16.308v-43.683c0-1.65 1.342-2.99 2.996-2.99s2.995 1.34 2.995 2.99v43.683c0 4.22 3.95 10.328 11.088 10.328H67.4c1.654 0 2.996 1.34 2.996 2.99s-1.344 2.99-2.998 2.99zM86.777 234.004c-11.868 0-21.525-9.64-21.525-21.49 0-11.848 9.656-21.49 21.525-21.49 11.87 0 21.523 9.642 21.523 21.49 0 11.85-9.654 21.49-21.523 21.49zm0-36.998c-8.564 0-15.534 6.958-15.534 15.51 0 8.55 6.97 15.507 15.534 15.507 8.565 0 15.533-6.957 15.533-15.508 0-8.55-6.968-15.51-15.533-15.51zM213.345 234.004c-11.868 0-21.525-9.64-21.525-21.49 0-11.848 9.657-21.49 21.525-21.49 11.868 0 21.524 9.642 21.524 21.49 0 11.85-9.657 21.49-21.525 21.49zm0-36.998c-8.564 0-15.534 6.958-15.534 15.51 0 8.55 6.97 15.507 15.535 15.507 8.565 0 15.533-6.957 15.533-15.508 0-8.55-6.968-15.51-15.533-15.51zM195.13 218.835h-90.14c-1.653 0-2.995-1.338-2.995-2.99s1.342-2.99 2.996-2.99h90.14c1.655 0 2.997 1.338 2.997 2.99s-1.342 2.99-2.996 2.99zM72.323 202.556H43.1c-1.655 0-2.997-1.34-2.997-2.99s1.342-2.99 2.996-2.99h29.223c1.654 0 2.996 1.337 2.996 2.99s-1.343 2.99-2.997 2.99zM196.543 203.953H103.56c-1.652 0-2.994-1.34-2.994-2.99 0-1.652 1.342-2.99 2.995-2.99h92.983c1.654 0 2.996 1.338 2.996 2.99 0 1.65-1.343 2.99-2.997 2.99zM261.688 203.953h-31.556c-1.654 0-2.996-1.34-2.996-2.99 0-1.652 1.342-2.99 2.996-2.99h31.556c1.654 0 2.996 1.338 2.996 2.99 0 1.65-1.342 2.99-2.996 2.99zM234.098 164.82h-59.494c-1.654 0-2.996-1.34-2.996-2.99 0-1.653 1.342-2.99 2.996-2.99h59.494c1.653 0 2.995 1.337 2.995 2.99 0 1.65-1.342 2.99-2.995 2.99zM212.218 142.99h-37.614c-1.654 0-2.996-1.338-2.996-2.99 0-1.652 1.342-2.99 2.996-2.99h37.614c1.653 0 2.995 1.338 2.995 2.99 0 1.652-1.342 2.99-2.995 2.99zM256.222 218.835h-23.068c-1.654 0-2.996-1.338-2.996-2.99s1.342-2.99 2.996-2.99H255.4c1.426-.99 5.61-4.69 5.61-14.113 0-8.737-6.426-14.776-14.562-22.42-2.953-2.773-6.005-5.643-9.09-8.937-12.613-13.472-37.96-38.418-44.203-42.562-4.84-3.217-15.004-3.727-18.49-3.664-1.7.05-3.022-1.277-3.057-2.93-.033-1.65 1.28-3.017 2.933-3.05.61-.01 14.553-.24 21.934 4.662 7.104 4.717 33.608 31.012 45.26 43.457 2.954 3.155 5.936 5.956 8.82 8.665C259.378 180.26 267 187.42 267 198.743c0 15.14-9.107 19.622-9.495 19.805-.402.19-.838.287-1.283.287z"/></g></svg>