<svg version="1.2" baseProfile="tiny" xmlns="http://www.w3.org/2000/svg" width="280" height="280" viewBox="0 0 280 280"><g fill="#152A49"><path d="M98.236 243.057h-43.42c-5.413 0-9.816-4.388-9.816-9.78V151.65c0-5.392 4.403-9.78 9.815-9.78h41.187c1.67 0 3.025 1.35 3.025 3.015s-1.355 3.014-3.025 3.014H54.815c-2.075 0-3.764 1.682-3.764 3.75v81.626c0 2.068 1.69 3.75 3.765 3.75h43.42c1.67 0 3.027 1.35 3.027 3.014 0 1.666-1.357 3.017-3.026 3.017zM213.23 246.664H112.297c-4.857 0-8.816-1.602-11.767-4.76-5.723-6.125-5.363-16.016-5.29-17.288V129.1c0-.983.48-1.904 1.29-2.468l39.377-27.51c.768-.538 1.743-.688 2.635-.41.894.277 1.612.952 1.937 1.827.092.246 2.264 6.156 3.698 18.286.302 2.547 1.195 4.364 2.658 5.402 2.592 1.843 6.398 1.04 6.435 1.03.23-.05.494-.07.717-.072l55.218.9c7.777.592 20.628 4.35 20.628 14.74 0 7.198-3.05 12.478-5.466 15.532 2.594 2.148 5.466 6.23 5.466 13.783 0 7.854-3.28 12.57-5.976 15.12 2.612 2.79 5.976 7.653 5.976 14.194 0 6.528-3.45 10.703-6.287 13.032 2.757 3.086 6.287 8.696 6.287 17.184 0 11.72-10.6 16.224-16.202 16.97-.133.015-.267.024-.4.024zM101.29 130.67v94.038c0 .072-.002.143-.008.215-.006.076-.512 8.41 3.69 12.887 1.784 1.9 4.18 2.824 7.325 2.824H213c1.43-.24 10.78-2.153 10.78-10.967 0-10.443-6.732-15.034-6.798-15.08-.918-.61-1.43-1.67-1.335-2.764.092-1.095.776-2.053 1.785-2.498.242-.112 6.35-2.993 6.35-9.873 0-7.288-6.36-11.93-6.423-11.975-.872-.624-1.352-1.665-1.254-2.728.098-1.065.75-2.002 1.72-2.456.212-.107 5.955-3.075 5.955-12.155 0-8.588-4.803-10.11-5.008-10.17-1.075-.32-1.92-1.215-2.14-2.31-.217-1.098.154-2.235 1.025-2.94.238-.197 6.124-5.17 6.124-13.895 0-7.338-14.713-8.71-14.862-8.72l-54.704-.89c-1.54.284-6.62.917-10.836-2.04-2.944-2.065-4.698-5.31-5.21-9.646-.698-5.912-1.58-10.247-2.266-13.044L101.29 130.67zM71.11 178.115c-5.912 0-10.72-4.79-10.72-10.682 0-5.89 4.808-10.68 10.72-10.68 5.91 0 10.717 4.792 10.717 10.68 0 5.89-4.807 10.682-10.718 10.682zm0-15.333c-2.576 0-4.67 2.087-4.67 4.65 0 2.568 2.094 4.654 4.67 4.654 2.573 0 4.667-2.087 4.667-4.653 0-2.564-2.093-4.65-4.668-4.65zM165.854 119.638c-8.657 0-15.698-6.61-15.698-14.74 0-8.128 7.04-14.74 15.698-14.74 8.658 0 15.7 6.612 15.7 14.74 0 8.13-7.042 14.74-15.7 14.74zm0-23.45c-5.32 0-9.647 3.907-9.647 8.71 0 4.803 4.327 8.71 9.647 8.71s9.648-3.907 9.648-8.71c0-4.803-4.327-8.71-9.648-8.71zM143.358 54.59c-6.017 0-10.913-4.624-10.913-10.31 0-5.687 4.897-10.313 10.913-10.313 6.018 0 10.912 4.626 10.912 10.313 0 5.685-4.894 10.31-10.912 10.31zm0-14.594c-2.68 0-4.863 1.922-4.863 4.284 0 2.36 2.182 4.28 4.863 4.28 2.682 0 4.86-1.92 4.86-4.28.002-2.362-2.178-4.284-4.86-4.284zM193.137 54.59c-6.017 0-10.914-4.624-10.914-10.31 0-5.687 4.897-10.313 10.914-10.313 6.018 0 10.912 4.626 10.912 10.313 0 5.685-4.896 10.31-10.913 10.31zm0-14.594c-2.68 0-4.863 1.922-4.863 4.284 0 2.36 2.182 4.28 4.863 4.28 2.68 0 4.86-1.92 4.86-4.28 0-2.362-2.18-4.284-4.86-4.284zM222.16 72.746c-6.018 0-10.912-4.626-10.912-10.313 0-5.685 4.894-10.312 10.912-10.312 6.017 0 10.914 4.627 10.914 10.313 0 5.686-4.897 10.313-10.914 10.313zm0-14.596c-2.68 0-4.86 1.92-4.86 4.282 0 2.36 2.18 4.283 4.86 4.283s4.863-1.922 4.863-4.283c0-2.36-2.182-4.282-4.863-4.282zM193.137 121.288c-1.67 0-3.025-1.35-3.025-3.014 0-1.665 1.356-3.016 3.025-3.016 5.32 0 9.648-3.907 9.648-8.71 0-3.177-.952-8.506-7.324-8.506-1.67 0-3.024-1.35-3.024-3.014 0-1.666 1.356-3.014 3.025-3.014 8.126 0 13.376 5.705 13.376 14.534 0 8.128-7.043 14.74-15.7 14.74zM189.087 131.788c-.15 0-.3-.01-.453-.034-1.652-.247-2.792-1.782-2.543-3.428.432-2.87 10.612-70.406 13.084-81.446.45-2.01.235-3.532-.66-4.654-1.83-2.296-6.242-2.85-7.643-2.86h-43.724c-5.046 0-8.56 1.074-9.894 3.03-1.45 2.123-.29 5.118-.276 5.148.11.28.187.596.21.896l4.452 56.222c.132 1.66-1.112 3.11-2.777 3.242-1.64.14-3.123-1.107-3.253-2.768l-4.42-55.825c-.513-1.543-1.693-6.195 1.015-10.236 2.553-3.808 7.58-5.738 14.944-5.738h43.752c.874.008 8.428.216 12.353 5.14 1.425 1.79 2.9 4.926 1.828 9.717-2.425 10.832-12.898 80.327-13.004 81.027-.224 1.495-1.516 2.568-2.987 2.568zM207.498 132.09c-.35 0-.707-.062-1.056-.19-1.566-.582-2.362-2.318-1.778-3.878l22.627-60.555c.09-.24.212-.47.36-.68.01-.013 2.03-3.01 1.026-5.59-.81-2.084-3.577-3.738-7.995-4.777-15.814-3.724-18.56-4.14-18.67-4.157-1.642-.24-2.796-1.756-2.57-3.395.224-1.64 1.733-2.79 3.37-2.58.257.03 2.98.43 19.26 4.264 6.576 1.548 10.705 4.42 12.273 8.53 1.834 4.81-.666 9.453-1.495 10.793l-22.515 60.25c-.454 1.215-1.608 1.965-2.835 1.965z"/></g></svg>