<svg version="1.2" baseProfile="tiny" xmlns="http://www.w3.org/2000/svg" width="380" height="280" viewBox="0 0 380 280"><g fill="#152A49"><path d="M319.806 210.162h-109.05c-1.764 0-3.195-1.422-3.195-3.178 0-1.755 1.432-3.176 3.196-3.176h105.857V46.59H164.7v72.237c0 1.755-1.43 3.177-3.194 3.177s-3.194-1.422-3.194-3.177V43.413c0-1.756 1.43-3.177 3.194-3.177h158.3c1.764 0 3.194 1.422 3.194 3.177v163.57c0 1.757-1.43 3.18-3.194 3.18zM195.756 243.01c-.798 0-1.597-.298-2.216-.892l-34.25-32.847c-.625-.598-.978-1.423-.978-2.286v-40.53c0-1.755 1.43-3.176 3.194-3.176s3.194 1.422 3.194 3.177v39.18l33.273 31.91c1.27 1.217 1.308 3.23.083 4.492-.628.646-1.464.972-2.3.972zM223.466 55.38c-1.763 0-3.194-1.423-3.194-3.18v-6.354c0-1.755 1.43-3.177 3.194-3.177s3.194 1.42 3.194 3.176V52.2c0 1.757-1.43 3.18-3.194 3.18zM223.466 108.146c-1.763 0-3.194-1.422-3.194-3.177V91.776c0-1.755 1.43-3.178 3.194-3.178s3.194 1.422 3.194 3.177v13.192c0 1.754-1.43 3.176-3.194 3.176zm0-26.383c-1.763 0-3.194-1.422-3.194-3.178V65.393c0-1.755 1.43-3.177 3.194-3.177s3.194 1.422 3.194 3.177v13.19c0 1.758-1.43 3.18-3.194 3.18zM229.855 127.692h-6.39c-1.762 0-3.193-1.422-3.193-3.177v-6.354c0-1.755 1.43-3.177 3.194-3.177s3.194 1.422 3.194 3.178v3.177h3.194c1.764 0 3.194 1.423 3.194 3.178s-1.43 3.177-3.193 3.177zM301.48 127.692H289.54c-1.763 0-3.194-1.422-3.194-3.177 0-1.755 1.432-3.178 3.194-3.178h11.937c1.763 0 3.193 1.423 3.193 3.178s-1.43 3.177-3.194 3.177zm-23.875 0h-11.938c-1.763 0-3.194-1.422-3.194-3.177 0-1.755 1.432-3.178 3.194-3.178h11.938c1.764 0 3.194 1.423 3.194 3.178s-1.432 3.177-3.195 3.177zm-23.875 0h-11.937c-1.764 0-3.194-1.422-3.194-3.177 0-1.755 1.43-3.178 3.193-3.178h11.937c1.764 0 3.194 1.423 3.194 3.178s-1.43 3.177-3.194 3.177zM319.806 127.692h-6.388c-1.764 0-3.194-1.422-3.194-3.177 0-1.755 1.43-3.178 3.194-3.178h6.388c1.764 0 3.194 1.423 3.194 3.178s-1.43 3.177-3.194 3.177zM178.728 172.968c-.375 0-.75-.065-1.115-.2l-34.993-12.947c-.476-.176-.902-.462-1.246-.836l-83.54-91.108c-.57-.623-.87-1.445-.83-2.288.036-.842.41-1.633 1.037-2.2L86.226 37.82c1.3-1.18 3.324-1.09 4.513.206l83.542 91.11c.407.444.68.996.786 1.59l6.808 38.515c.198 1.122-.222 2.264-1.102 2.993-.582.483-1.308.735-2.044.735zm-33.155-18.836l29.043 10.747-5.683-32.145-80.763-88.08-23.463 21.287 80.866 88.19zM141.98 129.45c-.864 0-1.73-.35-2.36-1.036L89.495 73.747c-1.19-1.297-1.096-3.306.208-4.49 1.3-1.178 3.323-1.092 4.513.207l50.127 54.667c1.19 1.297 1.096 3.306-.208 4.49-.612.556-1.383.83-2.153.83zM173.936 167.91c-.865 0-1.73-.35-2.36-1.038l-9.586-10.454c-1.19-1.296-1.096-3.305.208-4.49 1.3-1.177 3.326-1.09 4.513.208l9.586 10.453c1.19 1.295 1.096 3.305-.208 4.488-.61.557-1.382.83-2.152.83zM250.06 201.703c-1.763 0-3.193-1.422-3.193-3.177v-12.71c0-1.756 1.43-3.178 3.194-3.178 1.765 0 3.195 1.422 3.195 3.178v12.71c0 1.756-1.43 3.177-3.194 3.177zm0-25.418c-1.763 0-3.193-1.422-3.193-3.177v-12.71c0-1.755 1.43-3.177 3.194-3.177 1.765 0 3.195 1.423 3.195 3.178v12.71c0 1.755-1.43 3.177-3.194 3.177zM215.87 174.3h-12.777c-1.764 0-3.194-1.422-3.194-3.177 0-1.755 1.43-3.178 3.193-3.178h12.778c1.764 0 3.195 1.422 3.195 3.178 0 1.755-1.43 3.178-3.194 3.178zm-25.554 0h-9.46c-1.763 0-3.193-1.422-3.193-3.177 0-1.755 1.43-3.178 3.194-3.178h9.46c1.762 0 3.193 1.422 3.193 3.178 0 1.755-1.43 3.178-3.194 3.178z"/></g></svg>
