<?xml version="1.0" standalone="no"?>
<!DOCTYPE svg PUBLIC "-//W3C//DTD SVG 20010904//EN"
 "http://www.w3.org/TR/2001/REC-SVG-20010904/DTD/svg10.dtd">
<svg version="1.0" xmlns="http://www.w3.org/2000/svg"
 width="400.000000pt" height="400.000000pt" viewBox="0 0 400.000000 400.000000"
 preserveAspectRatio="xMidYMid meet">
<metadata>
Created by potrace 1.11, written by Peter Selinger 2001-2013
</metadata>
<g transform="translate(0.000000,400.000000) scale(0.100000,-0.100000)"
fill="#000000" stroke="none">
<path d="M2358 3554 c-12 -7 -33 -26 -45 -43 -27 -36 -31 -116 -9 -199 54
-200 275 -500 531 -717 400 -341 748 -398 722 -118 -16 170 -171 425 -397 653
-186 188 -306 279 -479 366 -139 69 -260 91 -323 58z"/>
<path d="M1660 3549 c-88 -12 -135 -43 -173 -114 -18 -34 -22 -56 -21 -140 1
-85 6 -114 33 -195 37 -109 116 -270 186 -380 400 -627 1162 -1227 1581 -1245
102 -5 152 8 203 51 86 74 98 210 35 402 -36 113 -85 205 -109 208 -11 1 -45
5 -76 8 -94 10 -194 50 -359 144 -324 185 -567 442 -733 775 -41 83 -82 183
-85 210 -1 4 -4 23 -8 41 -3 19 -7 52 -7 73 -2 36 -5 39 -67 70 -135 67 -303
105 -400 92z"/>
<path d="M817 3369 c-85 -20 -146 -72 -186 -159 -21 -47 -25 -69 -25 -155 2
-576 803 -1607 1676 -2156 220 -138 487 -252 648 -277 70 -10 191 -7 240 7
193 54 250 265 154 576 -13 44 -28 86 -33 93 -4 8 -53 24 -107 37 -409 98
-750 305 -1143 695 -403 401 -629 767 -716 1165 -10 44 -19 85 -20 91 -4 13
-126 56 -220 77 -70 16 -213 20 -268 6z"/>
<path d="M550 2499 c-71 -29 -118 -116 -118 -219 2 -564 988 -1630 1678 -1814
151 -40 268 -29 333 32 31 29 57 72 57 94 0 8 -35 31 -78 52 -123 61 -276 150
-432 254 -80 52 -147 98 -150 101 -3 3 -34 28 -70 56 -165 125 -449 389 -550
510 -14 17 -50 59 -80 95 -178 210 -378 514 -501 763 -24 48 -48 87 -54 86 -5
0 -21 -5 -35 -10z"/>
<path d="M455 1660 c-14 -15 -20 -39 -21 -88 -6 -157 75 -382 208 -580 108
-161 314 -336 501 -425 87 -43 224 -94 270 -103 143 -26 211 -25 241 5 18 19
18 19 -10 37 -189 116 -422 282 -519 369 -105 93 -246 241 -329 345 -112 140
-306 425 -306 450 0 16 -16 11 -35 -10z"/>
</g>
</svg>
