<?xml version="1.0" encoding="utf-8"?>
<!-- Generator: Adobe Illustrator 17.0.0, SVG Export Plug-In . SVG Version: 6.00 Build 0)  -->
<svg version="1.2" baseProfile="tiny" id="Layer_1" xmlns="http://www.w3.org/2000/svg" xmlns:xlink="http://www.w3.org/1999/xlink"
	 x="0px" y="0px" width="1206.52px" height="177.359px" viewBox="0 0 1206.52 177.359" xml:space="preserve">
<g>
	<path fill="none" d="M615.477,60.012c-7.621,0-13.49,2.491-17.606,7.469c-4.116,4.98-6.173,11.585-6.173,19.816
		c0,4.573,0.583,8.486,1.752,11.737c1.168,3.254,2.744,5.945,4.726,8.079c1.981,2.134,4.268,3.711,6.859,4.725
		c2.591,1.017,5.259,1.525,8.003,1.525c3.758,0,7.214-0.534,10.365-1.6c3.149-1.068,5.64-2.311,7.469-3.735V61.689
		c-1.424-0.405-3.33-0.786-5.716-1.144C622.767,60.19,619.54,60.012,615.477,60.012z"/>
	<path fill="none" d="M352.976,59.249c-3.253,0-6.123,0.636-8.612,1.905c-2.491,1.272-4.599,2.923-6.326,4.954
		c-1.729,2.035-3.075,4.371-4.039,7.013c-0.967,2.643-1.601,5.334-1.906,8.078h39.327c0.1-6.402-1.5-11.661-4.801-15.777
		C363.315,61.307,358.769,59.249,352.976,59.249z"/>
	<path fill="none" d="M817.046,59.249c-3.254,0-6.123,0.636-8.612,1.905c-2.491,1.272-4.6,2.923-6.327,4.954
		c-1.729,2.035-3.074,4.371-4.039,7.013c-0.967,2.643-1.6,5.334-1.905,8.078h39.327c0.1-6.402-1.501-11.661-4.802-15.777
		C827.385,61.307,822.838,59.249,817.046,59.249z"/>
	<path fill="none" d="M903.254,59.249c-3.254,0-6.123,0.636-8.612,1.905c-2.492,1.272-4.6,2.923-6.327,4.954
		c-1.729,2.035-3.074,4.371-4.039,7.013c-0.967,2.643-1.6,5.334-1.905,8.078h39.327c0.1-6.402-1.501-11.661-4.802-15.777
		C913.593,61.307,909.046,59.249,903.254,59.249z"/>
	<path fill="none" d="M421.301,81.185h39.327C461.364,52.678,424.781,50.97,421.301,81.185z"/>
	<path fill="none" d="M1176.947,60.012c-7.621,0-13.49,2.491-17.606,7.469c-4.116,4.98-6.174,11.585-6.174,19.816
		c0,4.573,0.584,8.486,1.753,11.737c1.167,3.254,2.744,5.945,4.726,8.079c1.981,2.134,4.268,3.711,6.859,4.725
		c2.591,1.017,5.259,1.525,8.003,1.525c3.758,0,7.214-0.534,10.365-1.6c3.149-1.068,5.64-2.311,7.469-3.735V61.689
		c-1.424-0.405-3.33-0.786-5.716-1.144C1184.237,60.19,1181.01,60.012,1176.947,60.012z"/>
	<path fill="none" d="M32.315,117.783c4.063,0,7.545-0.735,10.441-2.209c2.897-1.473,5.259-3.507,7.088-6.098
		c1.829-2.592,3.149-5.64,3.964-9.146c0.812-3.506,1.219-7.29,1.219-11.356c0-9.246-2.286-16.36-6.859-21.34
		c-4.573-4.978-10.67-7.469-18.292-7.469c-4.268,0-7.598,0.152-9.984,0.457c-2.389,0.305-4.295,0.662-5.717,1.067v49.997
		c1.727,1.424,4.216,2.796,7.47,4.116C24.896,117.124,28.451,117.783,32.315,117.783z"/>
	<path fill="#009EE3" d="M14.175,124.948c1.727,1.119,4.345,2.286,7.851,3.506c3.506,1.219,7.545,1.829,12.118,1.829
		c5.69,0,10.746-1.017,15.167-3.049c4.42-2.031,8.155-4.877,11.204-8.536c3.048-3.658,5.359-8.026,6.935-13.109
		c1.575-5.08,2.363-10.618,2.363-16.615c0-6.402-0.941-12.169-2.82-17.301c-1.881-5.13-4.549-9.475-8.003-13.033
		c-3.456-3.556-7.621-6.299-12.499-8.231c-4.878-1.929-10.365-2.896-16.462-2.896c-6.608,0-12.424,0.483-17.454,1.448
		C7.546,49.928,3.354,50.816,0,51.628v112.356h14.175V124.948z M14.175,61.689c1.422-0.405,3.328-0.762,5.717-1.067
		c2.386-0.305,5.716-0.457,9.984-0.457c7.622,0,13.719,2.491,18.292,7.469c4.573,4.98,6.859,12.094,6.859,21.34
		c0,4.066-0.407,7.85-1.219,11.356c-0.815,3.506-2.135,6.554-3.964,9.146c-1.829,2.591-4.191,4.625-7.088,6.098
		c-2.896,1.474-6.378,2.209-10.441,2.209c-3.864,0-7.419-0.659-10.67-1.981c-3.254-1.32-5.743-2.692-7.47-4.116V61.689z"/>
	<path fill="#009EE3" d="M123.239,47.742c-1.577-0.153-2.972-0.229-4.192-0.229c-6.2,0-11.79,0.533-16.768,1.6
		c-4.98,1.067-9.145,2.211-12.499,3.43v75.911h14.176V61.84c0.812-0.202,2.515-0.583,5.107-1.143
		c2.591-0.557,5.206-0.838,7.85-0.838c4.063,0,7.393,0.281,9.984,0.838c2.591,0.56,4.445,1.044,5.564,1.448l2.439-12.347
		c-0.61-0.202-1.551-0.431-2.82-0.686c-1.272-0.252-2.668-0.507-4.192-0.761C126.364,48.098,124.813,47.893,123.239,47.742z"/>
	<rect x="154.617" y="49.188" fill="#009EE3" width="14.176" height="79.265"/>
	<path fill="#009EE3" d="M168.107,16.779c-1.779-1.677-3.94-2.515-6.479-2.515c-2.541,0-4.701,0.838-6.478,2.515
		c-1.779,1.677-2.668,3.939-2.668,6.783c0,2.846,0.889,5.107,2.668,6.783c1.777,1.677,3.937,2.515,6.478,2.515
		c2.539,0,4.7-0.838,6.479-2.515c1.776-1.676,2.667-3.937,2.667-6.783C170.774,20.718,169.883,18.456,168.107,16.779z"/>
	<path fill="#009EE3" d="M296.949,128.454v-44.51c0-5.283-0.381-10.161-1.143-14.633c-0.763-4.471-2.237-8.332-4.421-11.585
		c-2.186-3.252-5.209-5.767-9.07-7.546c-3.863-1.777-8.841-2.667-14.938-2.667c-3.151,0-6.097,0.331-8.841,0.99
		c-2.743,0.662-5.235,1.425-7.469,2.287c-2.236,0.864-4.116,1.753-5.64,2.667c-1.524,0.915-2.644,1.627-3.353,2.134
		c-2.339-2.641-5.236-4.648-8.689-6.02c-3.456-1.372-7.724-2.058-12.804-2.058c-7.012,0-13.186,0.457-18.52,1.372
		c-5.336,0.914-9.63,1.778-12.881,2.591v76.978h14.176V61.536c0.405-0.1,1.22-0.252,2.439-0.457c1.22-0.203,2.565-0.381,4.039-0.534
		c1.472-0.152,3.023-0.278,4.65-0.38c1.624-0.101,3.148-0.153,4.573-0.153c3.353,0,6.121,0.533,8.307,1.6
		c2.184,1.067,3.911,2.721,5.183,4.955c1.269,2.236,2.158,5.03,2.667,8.383c0.507,3.353,0.762,7.37,0.762,12.043v41.461h14.177
		v-44.51c0-3.454-0.205-6.758-0.61-9.908c-0.408-3.149-1.017-6.045-1.829-8.689c1.117-1.014,3.224-2.158,6.326-3.43
		c3.098-1.269,7.035-1.905,11.813-1.905c3.453,0,6.274,0.533,8.46,1.6c2.184,1.067,3.911,2.721,5.183,4.955
		c1.269,2.236,2.133,5.03,2.591,8.383c0.457,3.353,0.686,7.37,0.686,12.043v41.461H296.949z"/>
	<path fill="#FFFFFF" d="M559.859,128.454v-44.51c0-5.386-0.509-10.314-1.524-14.786c-1.017-4.471-2.77-8.307-5.259-11.509
		c-2.491-3.201-5.818-5.69-9.984-7.469c-4.168-1.777-9.401-2.667-15.7-2.667c-7.012,0-13.212,0.457-18.597,1.372
		c-5.388,0.914-9.706,1.778-12.957,2.591v76.978h14.176V61.536c0.508-0.1,1.346-0.252,2.516-0.457
		c1.167-0.203,2.489-0.381,3.963-0.534c1.471-0.152,3.022-0.278,4.648-0.38c1.625-0.101,3.202-0.153,4.726-0.153
		c3.759,0,6.91,0.483,9.451,1.448c2.539,0.967,4.573,2.515,6.097,4.649c1.524,2.134,2.616,4.93,3.277,8.384
		c0.66,3.456,0.991,7.621,0.991,12.5v41.461H559.859z"/>
	<path fill="#FFFFFF" d="M625.461,146.886c-3.711,3.353-9.782,5.03-18.216,5.03c-4.473,0-8.764-0.433-12.879-1.295
		c-4.116-0.865-7.598-1.856-10.443-2.973l-2.591,12.347c3.252,1.117,7.088,2.082,11.509,2.896c4.42,0.813,9.119,1.219,14.099,1.219
		c12.805,0,22.355-2.743,28.658-8.231c6.3-5.487,9.45-14.328,9.45-26.523V51.628c-3.353-0.812-7.495-1.7-12.422-2.667
		c-4.931-0.965-10.697-1.448-17.301-1.448c-5.998,0-11.383,0.99-16.158,2.972c-4.778,1.981-8.817,4.725-12.119,8.231
		c-3.303,3.506-5.818,7.674-7.545,12.5c-1.729,4.827-2.591,10.136-2.591,15.929c0,6.607,0.914,12.297,2.744,17.072
		c1.829,4.778,4.318,8.765,7.469,11.966c3.148,3.201,6.833,5.563,11.051,7.088c4.215,1.524,8.712,2.286,13.49,2.286
		c4.673,0,8.765-0.633,12.27-1.905c3.507-1.27,5.869-2.31,7.089-3.125v10.354C631.025,138.197,629.169,143.533,625.461,146.886z
		 M630.872,108.028c-1.829,1.424-4.32,2.667-7.469,3.735c-3.151,1.066-6.607,1.6-10.365,1.6c-2.744,0-5.412-0.508-8.003-1.525
		c-2.591-1.014-4.878-2.591-6.859-4.725c-1.982-2.134-3.558-4.825-4.726-8.079c-1.169-3.251-1.752-7.164-1.752-11.737
		c0-8.231,2.057-14.836,6.173-19.816c4.116-4.978,9.985-7.469,17.606-7.469c4.063,0,7.29,0.178,9.679,0.533
		c2.386,0.358,4.292,0.739,5.716,1.144V108.028z"/>
	<rect x="665.435" y="49.188" fill="#FFFFFF" width="14.176" height="79.265"/>
	<path fill="#FFFFFF" d="M678.925,16.779c-1.778-1.677-3.939-2.515-6.478-2.515c-2.541,0-4.701,0.838-6.479,2.515
		c-1.778,1.677-2.667,3.939-2.667,6.783c0,2.846,0.889,5.107,2.667,6.783c1.778,1.677,3.938,2.515,6.479,2.515
		c2.539,0,4.7-0.838,6.478-2.515c1.778-1.676,2.668-3.937,2.668-6.783C681.593,20.718,680.703,18.456,678.925,16.779z"/>
	<path fill="#FFFFFF" d="M764.019,128.454v-44.51c0-5.386-0.509-10.314-1.524-14.786c-1.017-4.471-2.77-8.307-5.259-11.509
		c-2.491-3.201-5.818-5.69-9.984-7.469c-4.168-1.777-9.401-2.667-15.7-2.667c-7.012,0-13.212,0.457-18.597,1.372
		c-5.388,0.914-9.705,1.778-12.957,2.591v76.978h14.176V61.536c0.508-0.1,1.346-0.252,2.516-0.457
		c1.167-0.203,2.489-0.381,3.963-0.534c1.472-0.152,3.022-0.278,4.649-0.38c1.624-0.101,3.201-0.153,4.725-0.153
		c3.759,0,6.91,0.483,9.451,1.448c2.539,0.967,4.573,2.515,6.098,4.649c1.523,2.134,2.615,4.93,3.276,8.384
		c0.66,3.456,0.991,7.621,0.991,12.5v41.461H764.019z"/>
	<path fill="#FFFFFF" d="M850.276,89.965v-2.363c0-13.616-2.846-23.753-8.536-30.41c-5.693-6.654-13.872-9.984-24.542-9.984
		c-4.573,0-9.046,0.864-13.414,2.591c-4.37,1.73-8.231,4.321-11.585,7.774c-3.353,3.456-6.047,7.8-8.079,13.033
		c-2.033,5.235-3.048,11.357-3.048,18.368c0,5.998,0.786,11.509,2.363,16.539c1.574,5.03,3.987,9.375,7.24,13.033
		c3.252,3.658,7.393,6.53,12.423,8.612c5.031,2.082,10.999,3.125,17.911,3.125c5.487,0,10.389-0.509,14.709-1.524
		c4.319-1.015,7.341-1.982,9.071-2.897l-1.982-11.889c-1.73,0.814-4.294,1.653-7.698,2.515c-3.406,0.864-7.598,1.295-12.576,1.295
		c-8.841,0-15.345-2.133-19.511-6.402c-4.168-4.267-6.554-10.517-7.164-18.749h54.266C850.223,91.82,850.276,90.932,850.276,89.965z
		 M796.163,81.2c0.305-2.744,0.938-5.435,1.905-8.078c0.965-2.642,2.31-4.978,4.039-7.013c1.727-2.031,3.836-3.682,6.327-4.954
		c2.489-1.269,5.358-1.905,8.612-1.905c5.792,0,10.339,2.058,13.642,6.173c3.301,4.116,4.902,9.375,4.802,15.777H796.163z"/>
	<path fill="#FFFFFF" d="M936.484,89.965v-2.363c0-13.616-2.846-23.753-8.536-30.41c-5.693-6.654-13.872-9.984-24.542-9.984
		c-4.573,0-9.046,0.864-13.414,2.591c-4.37,1.73-8.231,4.321-11.585,7.774c-3.353,3.456-6.047,7.8-8.079,13.033
		c-2.033,5.235-3.048,11.357-3.048,18.368c0,5.998,0.786,11.509,2.363,16.539c1.574,5.03,3.987,9.375,7.24,13.033
		c3.252,3.658,7.393,6.53,12.423,8.612c5.031,2.082,10.999,3.125,17.911,3.125c5.487,0,10.389-0.509,14.709-1.524
		c4.319-1.015,7.341-1.982,9.07-2.897l-1.982-11.889c-1.729,0.814-4.294,1.653-7.697,2.515c-3.406,0.864-7.598,1.295-12.576,1.295
		c-8.841,0-15.345-2.133-19.511-6.402c-4.168-4.267-6.554-10.517-7.164-18.749h54.266C936.431,91.82,936.484,90.932,936.484,89.965z
		 M882.371,81.2c0.305-2.744,0.938-5.435,1.905-8.078c0.965-2.642,2.31-4.978,4.039-7.013c1.727-2.031,3.835-3.682,6.327-4.954
		c2.489-1.269,5.358-1.905,8.612-1.905c5.792,0,10.339,2.058,13.642,6.173c3.301,4.116,4.902,9.375,4.802,15.777H882.371z"/>
	<path fill="#FFFFFF" d="M989.367,47.742c-1.576-0.153-2.973-0.229-4.192-0.229c-6.2,0-11.79,0.533-16.767,1.6
		c-4.981,1.067-9.146,2.211-12.5,3.43v75.911h14.176V61.84c0.812-0.202,2.516-0.583,5.107-1.143c2.592-0.557,5.207-0.838,7.85-0.838
		c4.064,0,7.393,0.281,9.985,0.838c2.591,0.56,4.443,1.044,5.563,1.448l2.439-12.347c-0.61-0.202-1.551-0.431-2.82-0.686
		c-1.272-0.252-2.668-0.507-4.192-0.761C992.492,48.098,990.941,47.893,989.367,47.742z"/>
	<path fill="#FFFFFF" d="M1034.235,16.779c-1.779-1.677-3.939-2.515-6.478-2.515c-2.541,0-4.702,0.838-6.479,2.515
		c-1.779,1.677-2.667,3.939-2.667,6.783c0,2.846,0.888,5.107,2.667,6.783c1.777,1.677,3.938,2.515,6.479,2.515
		c2.539,0,4.699-0.838,6.478-2.515c1.777-1.676,2.668-3.937,2.668-6.783C1036.903,20.718,1036.012,18.456,1034.235,16.779z"/>
	<rect x="1020.745" y="49.188" fill="#FFFFFF" width="14.176" height="79.265"/>
	<path fill="#FFFFFF" d="M1119.329,128.454v-44.51c0-5.386-0.509-10.314-1.524-14.786c-1.017-4.471-2.77-8.307-5.259-11.509
		c-2.491-3.201-5.818-5.69-9.984-7.469c-4.168-1.777-9.401-2.667-15.7-2.667c-7.012,0-13.212,0.457-18.597,1.372
		c-5.388,0.914-9.705,1.778-12.957,2.591v76.978h14.176V61.536c0.508-0.1,1.346-0.252,2.516-0.457
		c1.167-0.203,2.489-0.381,3.963-0.534c1.472-0.152,3.022-0.278,4.649-0.38c1.624-0.101,3.201-0.153,4.725-0.153
		c3.759,0,6.91,0.483,9.451,1.448c2.539,0.967,4.573,2.515,6.098,4.649c1.523,2.134,2.615,4.93,3.276,8.384
		c0.66,3.456,0.991,7.621,0.991,12.5v41.461H1119.329z"/>
	<path fill="#FFFFFF" d="M1206.518,51.628c-3.353-0.812-7.495-1.7-12.422-2.667c-4.931-0.965-10.697-1.448-17.301-1.448
		c-5.998,0-11.383,0.99-16.159,2.972c-4.777,1.981-8.816,4.725-12.118,8.231c-3.303,3.506-5.819,7.674-7.545,12.5
		c-1.729,4.827-2.591,10.136-2.591,15.929c0,6.607,0.914,12.297,2.744,17.072c1.828,4.778,4.317,8.765,7.469,11.966
		c3.148,3.201,6.833,5.563,11.051,7.088c4.215,1.524,8.712,2.286,13.49,2.286c4.673,0,8.765-0.633,12.27-1.905
		c3.507-1.27,5.869-2.31,7.089-3.125v10.354c0,7.316-1.856,12.652-5.564,16.005c-3.711,3.353-9.782,5.03-18.216,5.03
		c-4.473,0-8.765-0.433-12.88-1.295c-4.116-0.865-7.598-1.856-10.442-2.973l-2.591,12.347c3.251,1.117,7.088,2.082,11.509,2.896
		c4.42,0.813,9.119,1.219,14.099,1.219c12.805,0,22.355-2.743,28.658-8.231c6.299-5.486,9.448-14.324,9.45-26.516V51.628z
		 M1192.342,108.028c-1.829,1.424-4.32,2.667-7.469,3.735c-3.151,1.066-6.607,1.6-10.365,1.6c-2.744,0-5.412-0.508-8.003-1.525
		c-2.591-1.014-4.878-2.591-6.859-4.725c-1.982-2.134-3.559-4.825-4.726-8.079c-1.169-3.251-1.753-7.164-1.753-11.737
		c0-8.231,2.058-14.836,6.174-19.816c4.116-4.978,9.985-7.469,17.606-7.469c4.063,0,7.29,0.178,9.679,0.533
		c2.386,0.358,4.292,0.739,5.716,1.144V108.028z"/>
	<path fill="#009EE3" d="M385.951,80.846c-0.815-10.264-3.575-18.149-8.281-23.654c-5.693-6.654-13.871-9.984-24.541-9.984
		c-4.573,0-9.046,0.864-13.414,2.591c-4.371,1.73-8.232,4.321-11.585,7.774c-3.353,3.456-6.047,7.8-8.079,13.033
		c-2.034,5.235-3.048,11.357-3.048,18.368c0,5.998,0.785,11.509,2.362,16.539c1.574,5.03,3.987,9.375,7.241,13.033
		c3.251,3.658,7.393,6.53,12.423,8.612c5.03,2.082,10.999,3.125,17.911,3.125c5.487,0,10.388-0.509,14.708-1.524
		c4.32-1.015,7.342-1.982,9.071-2.897l-1.982-11.889c-1.729,0.814-4.294,1.653-7.697,2.515c-3.407,0.864-7.598,1.295-12.576,1.295
		c-8.841,0-15.346-2.133-19.512-6.402c-4.168-4.267-6.554-10.517-7.164-18.749h44.166C375.972,92.611,384.668,82.323,385.951,80.846
		z M332.093,81.2c0.305-2.744,0.939-5.435,1.906-8.078c0.964-2.642,2.31-4.978,4.039-7.013c1.727-2.031,3.835-3.682,6.326-4.954
		c2.489-1.269,5.359-1.905,8.612-1.905c5.793,0,10.339,2.058,13.643,6.173c3.301,4.116,4.901,9.375,4.801,15.777H332.093z"/>
	<polygon fill="#FFFFFF" points="317.011,33.205 330.345,33.205 330.345,13.359 462.089,13.359 462.089,33.205 475.422,33.205 
		475.422,0 317.011,0 	"/>
	<polygon fill="#009EE3" points="475.423,144.154 462.089,144.154 462.089,164 330.345,164 330.345,144.154 317.012,144.154 
		317.012,177.359 475.423,177.359 	"/>
	<path fill="#FFFFFF" d="M443.239,47.208c-21.375,0-33.167,13.666-36.565,33.977h-10.393l-9.393,11.443h19.423
		c1.136,34.277,33.053,44.815,63.615,33.234l-1.982-11.89c-22.955,8.471-46.538,4.508-46.948-21.344h54.266
		C476.812,61.555,464.114,47.208,443.239,47.208z M421.301,81.185c3.48-30.215,40.063-28.507,39.327,0H421.301z"/>
</g>
</svg>
