<svg version="1.2" baseProfile="tiny" xmlns="http://www.w3.org/2000/svg" width="1206.52" height="177.359" viewBox="0 0 1206.52 177.359"><path d="M421.3 81.185h39.328c.736-28.507-35.847-30.215-39.327 0zM1176.947 60.012c-7.62 0-13.49 2.49-17.606 7.47-4.115 4.98-6.173 11.584-6.173 19.815 0 4.573.584 8.486 1.753 11.737 1.167 3.254 2.744 5.945 4.726 8.08 1.98 2.133 4.268 3.71 6.86 4.724 2.59 1.017 5.258 1.525 8.002 1.525 3.758 0 7.214-.534 10.365-1.6 3.15-1.068 5.64-2.31 7.47-3.735v-46.34c-1.425-.404-3.33-.785-5.717-1.143-2.39-.355-5.616-.533-9.68-.533zM817.046 59.25c-3.254 0-6.123.635-8.612 1.904-2.49 1.272-4.6 2.923-6.327 4.954-1.73 2.035-3.074 4.37-4.04 7.013-.966 2.644-1.6 5.335-1.904 8.08h39.327c.1-6.403-1.5-11.662-4.802-15.778-3.303-4.115-7.85-6.173-13.642-6.173zM352.976 59.25c-3.253 0-6.123.635-8.612 1.904-2.49 1.272-4.6 2.923-6.326 4.954-1.73 2.035-3.075 4.37-4.04 7.013-.966 2.644-1.6 5.335-1.905 8.08h39.327c.1-6.403-1.5-11.662-4.8-15.778-3.305-4.115-7.85-6.173-13.644-6.173zM903.254 59.25c-3.254 0-6.123.635-8.612 1.904-2.492 1.272-4.6 2.923-6.327 4.954-1.73 2.035-3.074 4.37-4.04 7.013-.966 2.644-1.6 5.335-1.904 8.08H921.7c.1-6.403-1.5-11.662-4.802-15.778-3.303-4.115-7.85-6.173-13.642-6.173zM615.477 60.012c-7.62 0-13.49 2.49-17.606 7.47-4.115 4.98-6.172 11.584-6.172 19.815 0 4.573.583 8.486 1.752 11.737 1.168 3.254 2.744 5.945 4.726 8.08 1.98 2.133 4.268 3.71 6.86 4.724 2.59 1.017 5.258 1.525 8.002 1.525 3.758 0 7.214-.534 10.365-1.6 3.15-1.068 5.64-2.31 7.47-3.735v-46.34c-1.425-.404-3.33-.785-5.717-1.143-2.39-.355-5.616-.533-9.68-.533zM32.315 117.783c4.063 0 7.545-.735 10.44-2.21 2.898-1.472 5.26-3.506 7.09-6.097 1.828-2.592 3.148-5.64 3.963-9.146.812-3.506 1.22-7.29 1.22-11.356 0-9.246-2.287-16.36-6.86-21.34-4.573-4.978-10.67-7.47-18.292-7.47-4.268 0-7.598.153-9.984.458-2.39.305-4.295.662-5.717 1.067v49.996c1.727 1.424 4.216 2.796 7.47 4.116 3.25 1.322 6.806 1.98 10.67 1.98z" fill="none"/><path fill="#009EE3" d="M14.175 124.948c1.727 1.12 4.345 2.286 7.85 3.506 3.507 1.22 7.546 1.83 12.12 1.83 5.69 0 10.745-1.018 15.166-3.05 4.42-2.03 8.156-4.877 11.205-8.536 3.048-3.658 5.36-8.026 6.935-13.11 1.575-5.08 2.363-10.617 2.363-16.614 0-6.402-.94-12.17-2.82-17.3-1.88-5.13-4.55-9.476-8.003-13.034-3.456-3.556-7.62-6.3-12.5-8.23-4.877-1.93-10.364-2.897-16.46-2.897-6.61 0-12.425.483-17.455 1.448-5.03.968-9.22 1.856-12.575 2.668v112.356h14.175v-39.036zm0-63.26c1.422-.404 3.328-.76 5.717-1.066 2.386-.305 5.716-.457 9.984-.457 7.622 0 13.72 2.49 18.292 7.47 4.573 4.98 6.86 12.093 6.86 21.34 0 4.065-.408 7.85-1.22 11.355-.815 3.506-2.135 6.554-3.964 9.146-1.83 2.59-4.19 4.625-7.088 6.098-2.896 1.474-6.378 2.21-10.44 2.21-3.865 0-7.42-.66-10.67-1.982-3.255-1.32-5.744-2.692-7.47-4.116V61.69zM123.24 47.742c-1.578-.153-2.973-.23-4.193-.23-6.2 0-11.79.534-16.768 1.6-4.98 1.068-9.146 2.212-12.5 3.43v75.912h14.176V61.84c.812-.202 2.515-.583 5.107-1.143 2.59-.557 5.206-.838 7.85-.838 4.063 0 7.393.28 9.984.837 2.59.56 4.445 1.044 5.564 1.448l2.44-12.347c-.61-.202-1.55-.43-2.82-.686-1.272-.252-2.668-.507-4.192-.76-1.524-.254-3.075-.46-4.65-.61zM168.107 16.78c-1.78-1.678-3.94-2.516-6.48-2.516-2.54 0-4.7.838-6.477 2.515-1.78 1.676-2.668 3.938-2.668 6.782 0 2.846.89 5.107 2.668 6.783 1.777 1.677 3.937 2.515 6.478 2.515 2.54 0 4.7-.838 6.48-2.515 1.775-1.676 2.666-3.937 2.666-6.783 0-2.844-.89-5.106-2.667-6.783zM154.617 49.188h14.176v79.265h-14.176zM296.95 128.454v-44.51c0-5.283-.382-10.16-1.144-14.633-.763-4.47-2.237-8.33-4.42-11.584-2.187-3.252-5.21-5.767-9.07-7.546-3.864-1.777-8.842-2.667-14.94-2.667-3.15 0-6.096.33-8.84.99-2.743.662-5.235 1.425-7.47 2.287-2.235.864-4.115 1.753-5.64 2.667-1.523.915-2.643 1.627-3.352 2.134-2.34-2.64-5.236-4.647-8.69-6.02-3.455-1.37-7.723-2.057-12.803-2.057-7.01 0-13.185.457-18.52 1.372-5.335.914-9.63 1.778-12.88 2.59v76.98h14.176v-66.92c.405-.1 1.22-.25 2.44-.456 1.22-.204 2.564-.382 4.038-.535 1.472-.152 3.023-.278 4.65-.38 1.624-.1 3.148-.153 4.573-.153 3.353 0 6.12.533 8.307 1.6 2.184 1.067 3.91 2.72 5.183 4.955 1.27 2.236 2.158 5.03 2.667 8.383.507 3.353.762 7.37.762 12.043v41.46h14.177v-44.51c0-3.453-.205-6.757-.61-9.907-.408-3.15-1.017-6.045-1.83-8.69 1.118-1.013 3.225-2.157 6.327-3.43 3.098-1.268 7.035-1.904 11.813-1.904 3.453 0 6.274.533 8.46 1.6 2.184 1.067 3.91 2.72 5.183 4.955 1.27 2.236 2.133 5.03 2.59 8.383.458 3.353.687 7.37.687 12.043v41.46h14.176z"/><path fill="#162A49" d="M559.86 128.454v-44.51c0-5.386-.51-10.314-1.525-14.786-1.017-4.47-2.77-8.307-5.26-11.51-2.49-3.2-5.817-5.69-9.983-7.468-4.168-1.777-9.4-2.667-15.7-2.667-7.012 0-13.212.457-18.597 1.372-5.388.914-9.706 1.778-12.957 2.59v76.98h14.176v-66.92c.508-.1 1.346-.25 2.516-.456 1.167-.204 2.49-.382 3.963-.535 1.47-.152 3.022-.278 4.648-.38 1.626-.1 3.203-.153 4.727-.153 3.76 0 6.91.483 9.45 1.448 2.54.967 4.574 2.515 6.098 4.65 1.524 2.133 2.616 4.93 3.277 8.383.66 3.456.99 7.62.99 12.5v41.46h14.177zM625.46 146.886c-3.71 3.353-9.78 5.03-18.215 5.03-4.473 0-8.764-.433-12.88-1.295-4.115-.864-7.597-1.855-10.442-2.972l-2.59 12.347c3.25 1.117 7.087 2.082 11.508 2.896 4.42.814 9.12 1.22 14.1 1.22 12.805 0 22.355-2.743 28.658-8.23 6.3-5.488 9.45-14.33 9.45-26.524V51.628c-3.353-.812-7.495-1.7-12.422-2.667-4.93-.964-10.697-1.447-17.3-1.447-6 0-11.384.99-16.16 2.972-4.777 1.98-8.816 4.725-12.118 8.23-3.303 3.507-5.818 7.675-7.545 12.5-1.73 4.828-2.59 10.137-2.59 15.93 0 6.607.913 12.297 2.743 17.072 1.83 4.778 4.318 8.765 7.47 11.966 3.147 3.2 6.832 5.563 11.05 7.088 4.215 1.525 8.712 2.287 13.49 2.287 4.673 0 8.765-.633 12.27-1.905 3.507-1.27 5.87-2.31 7.09-3.125v10.354c0 7.317-1.857 12.653-5.565 16.006zm5.412-38.858c-1.83 1.424-4.32 2.667-7.47 3.735-3.15 1.066-6.606 1.6-10.364 1.6-2.744 0-5.412-.508-8.003-1.525-2.59-1.014-4.878-2.59-6.86-4.725-1.98-2.134-3.557-4.825-4.725-8.08-1.17-3.25-1.752-7.163-1.752-11.736 0-8.23 2.057-14.836 6.173-19.816 4.117-4.977 9.986-7.468 17.607-7.468 4.063 0 7.29.178 9.68.533 2.385.358 4.29.74 5.715 1.144v46.338zM678.925 16.78c-1.778-1.678-3.94-2.516-6.478-2.516-2.54 0-4.7.838-6.48 2.515-1.777 1.676-2.666 3.938-2.666 6.782 0 2.846.89 5.107 2.668 6.783 1.778 1.677 3.938 2.515 6.48 2.515 2.538 0 4.7-.838 6.477-2.515 1.778-1.676 2.668-3.937 2.668-6.783 0-2.844-.89-5.106-2.668-6.783zM665.435 49.188h14.176v79.265h-14.175zM764.02 128.454v-44.51c0-5.386-.51-10.314-1.525-14.786-1.017-4.47-2.77-8.307-5.26-11.51-2.49-3.2-5.817-5.69-9.983-7.468-4.168-1.777-9.4-2.667-15.7-2.667-7.012 0-13.212.457-18.597 1.372-5.388.914-9.705 1.778-12.957 2.59v76.98h14.176v-66.92c.508-.1 1.346-.25 2.516-.456 1.167-.204 2.49-.382 3.963-.535 1.472-.152 3.022-.278 4.65-.38 1.623-.1 3.2-.153 4.724-.153 3.76 0 6.91.483 9.45 1.448 2.54.967 4.574 2.515 6.1 4.65 1.522 2.133 2.614 4.93 3.275 8.383.66 3.456.99 7.62.99 12.5v41.46h14.177zM850.276 89.965v-2.363c0-13.616-2.846-23.753-8.536-30.41-5.693-6.654-13.872-9.984-24.542-9.984-4.573 0-9.046.864-13.414 2.59-4.37 1.73-8.23 4.322-11.585 7.775-3.354 3.456-6.048 7.8-8.08 13.033-2.033 5.235-3.048 11.357-3.048 18.368 0 5.998.786 11.51 2.363 16.54 1.574 5.03 3.987 9.374 7.24 13.032 3.252 3.658 7.393 6.53 12.423 8.612s11 3.125 17.91 3.125c5.488 0 10.39-.51 14.71-1.524 4.32-1.016 7.34-1.983 9.07-2.898l-1.98-11.89c-1.73.815-4.295 1.654-7.7 2.516-3.405.864-7.597 1.295-12.575 1.295-8.84 0-15.345-2.133-19.51-6.402-4.17-4.266-6.555-10.516-7.165-18.748h54.266c.1-.812.152-1.7.152-2.667zM796.163 81.2c.305-2.744.938-5.435 1.905-8.078.965-2.642 2.31-4.978 4.04-7.013 1.726-2.032 3.835-3.683 6.326-4.955 2.49-1.27 5.358-1.905 8.612-1.905 5.792 0 10.34 2.058 13.642 6.173 3.3 4.116 4.902 9.375 4.802 15.777h-39.327zM936.484 89.965v-2.363c0-13.616-2.846-23.753-8.536-30.41-5.693-6.654-13.872-9.984-24.542-9.984-4.573 0-9.046.864-13.414 2.59-4.37 1.73-8.23 4.322-11.585 7.775-3.353 3.456-6.047 7.8-8.08 13.033-2.032 5.235-3.047 11.357-3.047 18.368 0 5.998.786 11.51 2.363 16.54 1.574 5.03 3.987 9.374 7.24 13.032 3.252 3.658 7.393 6.53 12.423 8.612s11 3.125 17.91 3.125c5.488 0 10.39-.51 14.71-1.524 4.32-1.016 7.34-1.983 9.07-2.898l-1.982-11.89c-1.73.815-4.294 1.654-7.697 2.516-3.406.864-7.598 1.295-12.576 1.295-8.84 0-15.344-2.133-19.51-6.402-4.168-4.266-6.554-10.516-7.164-18.748h54.266c.1-.812.152-1.7.152-2.667zM882.37 81.2c.306-2.744.94-5.435 1.906-8.078.965-2.642 2.31-4.978 4.04-7.013 1.726-2.032 3.834-3.683 6.326-4.955 2.49-1.27 5.358-1.905 8.612-1.905 5.792 0 10.34 2.058 13.642 6.173 3.3 4.116 4.902 9.375 4.802 15.777H882.37zM989.367 47.742c-1.576-.153-2.973-.23-4.192-.23-6.2 0-11.79.534-16.767 1.6-4.98 1.068-9.146 2.212-12.5 3.43v75.912h14.176V61.84c.812-.202 2.516-.583 5.107-1.143 2.593-.557 5.208-.838 7.85-.838 4.065 0 7.394.28 9.986.837 2.59.56 4.443 1.044 5.563 1.448l2.438-12.347c-.61-.202-1.55-.43-2.82-.686-1.272-.252-2.668-.507-4.192-.76-1.524-.254-3.075-.46-4.65-.61zM1020.745 49.188h14.176v79.265h-14.175zM1034.235 16.78c-1.78-1.678-3.94-2.516-6.478-2.516-2.54 0-4.702.838-6.48 2.515-1.778 1.676-2.666 3.938-2.666 6.782 0 2.846.89 5.107 2.668 6.783 1.777 1.677 3.938 2.515 6.48 2.515 2.538 0 4.698-.838 6.477-2.515 1.777-1.676 2.668-3.937 2.668-6.783 0-2.844-.89-5.106-2.668-6.783zM1119.33 128.454v-44.51c0-5.386-.51-10.314-1.525-14.786-1.017-4.47-2.77-8.307-5.26-11.51-2.49-3.2-5.817-5.69-9.983-7.468-4.168-1.777-9.4-2.667-15.7-2.667-7.012 0-13.212.457-18.597 1.372-5.388.914-9.705 1.778-12.957 2.59v76.98h14.176v-66.92c.508-.1 1.346-.25 2.516-.456 1.167-.204 2.49-.382 3.963-.535 1.472-.152 3.022-.278 4.65-.38 1.623-.1 3.2-.153 4.724-.153 3.76 0 6.91.483 9.45 1.448 2.54.967 4.574 2.515 6.1 4.65 1.522 2.133 2.614 4.93 3.275 8.383.66 3.456.99 7.62.99 12.5v41.46h14.177zM1206.518 51.628c-3.353-.812-7.495-1.7-12.422-2.667-4.93-.964-10.697-1.447-17.3-1.447-6 0-11.384.99-16.16 2.972-4.777 1.98-8.816 4.725-12.118 8.23-3.303 3.507-5.82 7.675-7.545 12.5-1.73 4.828-2.59 10.137-2.59 15.93 0 6.607.913 12.297 2.743 17.072 1.828 4.778 4.317 8.765 7.47 11.966 3.147 3.2 6.832 5.563 11.05 7.088 4.215 1.525 8.712 2.287 13.49 2.287 4.673 0 8.765-.633 12.27-1.905 3.507-1.27 5.87-2.31 7.09-3.125v10.354c0 7.317-1.857 12.653-5.565 16.006-3.71 3.353-9.78 5.03-18.215 5.03-4.473 0-8.765-.433-12.88-1.295-4.116-.864-7.598-1.855-10.442-2.972l-2.59 12.347c3.25 1.117 7.087 2.082 11.508 2.896 4.42.814 9.12 1.22 14.1 1.22 12.805 0 22.355-2.743 28.658-8.23 6.3-5.487 9.448-14.325 9.45-26.517V51.628zm-14.176 56.4c-1.83 1.424-4.32 2.667-7.47 3.735-3.15 1.066-6.606 1.6-10.364 1.6-2.744 0-5.412-.508-8.003-1.525-2.59-1.014-4.878-2.59-6.86-4.725-1.98-2.134-3.558-4.825-4.725-8.08-1.17-3.25-1.753-7.163-1.753-11.736 0-8.23 2.058-14.836 6.174-19.816 4.117-4.977 9.986-7.468 17.607-7.468 4.063 0 7.29.178 9.68.533 2.385.358 4.29.74 5.715 1.144v46.338z"/><path fill="#009EE3" d="M385.95 80.846c-.814-10.264-3.574-18.15-8.28-23.654-5.693-6.654-13.87-9.984-24.54-9.984-4.574 0-9.047.864-13.415 2.59-4.37 1.73-8.232 4.322-11.585 7.775-3.353 3.456-6.047 7.8-8.08 13.033-2.033 5.235-3.047 11.357-3.047 18.368 0 5.998.785 11.51 2.362 16.54 1.574 5.03 3.987 9.374 7.24 13.032 3.252 3.658 7.394 6.53 12.424 8.612 5.03 2.082 10.998 3.125 17.91 3.125 5.487 0 10.388-.51 14.708-1.524 4.32-1.016 7.342-1.983 9.07-2.898l-1.98-11.89c-1.73.815-4.295 1.654-7.698 2.516-3.407.864-7.598 1.295-12.576 1.295-8.84 0-15.346-2.133-19.512-6.402-4.168-4.266-6.554-10.516-7.164-18.748h44.166c.018-.02 8.714-10.31 9.997-11.786zm-53.857.354c.305-2.744.94-5.435 1.906-8.078.963-2.642 2.31-4.978 4.038-7.013 1.727-2.032 3.835-3.683 6.326-4.955 2.49-1.27 5.36-1.905 8.612-1.905 5.793 0 10.34 2.058 13.643 6.173 3.3 4.116 4.9 9.375 4.8 15.777h-39.327z"/><path fill="#162A49" d="M317.01 33.205h13.335V13.36H462.09v19.845h13.332V0h-158.41z"/><path fill="#009EE3" d="M475.423 144.154H462.09V164H330.344v-19.846h-13.333v33.205h158.41z"/><path fill="#162A49" d="M443.24 47.208c-21.376 0-33.168 13.666-36.566 33.977H396.28l-9.392 11.443h19.423c1.137 34.277 33.054 44.815 63.616 33.234l-1.982-11.89c-22.955 8.47-46.538 4.508-46.948-21.344h54.266c1.55-31.073-11.148-45.42-32.023-45.42zM421.3 81.185c3.48-30.215 40.064-28.507 39.328 0H421.3z"/></svg>