<?xml version="1.0" encoding="utf-8"?><svg width="117" height="92" viewBox="0 0 117 92" xmlns="http://www.w3.org/2000/svg" xmlns:xlink="http://www.w3.org/1999/xlink"><svg version="1.2" baseProfile="tiny" width="40" height="40" viewBox="0 0 40 40" id="address" x="37"><path d="M20.098 12.137c-2.114 0-3.834 1.606-3.834 3.58s1.72 3.58 3.834 3.58c2.112 0 3.83-1.606 3.83-3.58.002-1.975-1.717-3.58-3.83-3.58zm0 6.135c-1.51 0-2.738-1.146-2.738-2.557 0-1.41 1.227-2.557 2.738-2.557 1.508 0 2.738 1.148 2.738 2.557 0 1.41-1.23 2.557-2.738 2.557zm7.329-9.402C25.444 7.02 22.807 6 20.003 6c-2.808 0-5.443 1.02-7.428 2.87-3.668 3.43-4.125 9.877-.986 13.785L20 34.002l8.4-11.332c3.152-3.923 2.695-10.37-.973-13.8zm.085 13.203l-7.51 10.133-7.526-10.148c-2.845-3.545-2.44-9.37.874-12.463 1.778-1.658 4.14-2.572 6.652-2.572 2.51 0 4.87.914 6.65 2.572 3.312 3.093 3.72 8.917.86 12.478zm0 0" fill="#152A49"/></svg><svg version="1.2" baseProfile="tiny" width="37" height="52" viewBox="0 0 37 52" id="calculate"><path d="M31.823 23.234h-6.757a.825.825 0 0 0-.817.83v3.32c0 .458.365.83.816.83h6.757c.45 0 .817-.373.817-.83v-3.32c0-.46-.366-.83-.817-.83zm-.817 3.32h-5.122v-1.66h5.122v1.66zM11.852 39.553H5.177a.825.825 0 0 0-.817.83v6.36c0 .46.366.83.817.83h6.675c.45 0 .817-.37.817-.83v-6.36a.825.825 0 0 0-.818-.83zm-.817 6.362h-5.04v-4.702h5.04v4.702zm10.762-6.362h-6.675a.825.825 0 0 0-.818.83v6.36c0 .46.366.83.818.83h6.675c.45 0 .817-.37.817-.83v-6.36a.824.824 0 0 0-.817-.83zm-.818 6.362h-5.042v-4.702h5.04v4.702zm-9.127-16.043H5.177c-.45 0-.817.37-.817.83v6.362c0 .458.366.83.817.83h6.675c.45 0 .817-.372.817-.83v-6.362a.825.825 0 0 0-.818-.83zm-.817 6.362h-5.04v-4.702h5.04v4.702zm10.762-6.362h-6.675c-.45 0-.818.37-.818.83v6.362c0 .458.366.83.818.83h6.675c.45 0 .817-.372.817-.83v-6.362a.824.824 0 0 0-.817-.83zm-.818 6.362h-5.042v-4.702h5.04v4.702zm10.844-6.362h-6.757c-.45 0-.817.37-.817.83v16.042c0 .458.365.83.816.83h6.757c.45 0 .817-.372.817-.83v-5.53c0-.46-.366-.83-.817-.83a.822.822 0 0 0-.817.83v4.7h-5.122V31.533h5.122v6.362c0 .458.366.83.817.83.45 0 .817-.372.817-.83v-7.19a.824.824 0 0 0-.817-.832zM32.913 0H4.087C1.833 0 0 1.86 0 4.15v43.7C0 50.14 1.833 52 4.087 52h28.826C35.166 52 37 50.14 37 47.852V4.15C37 1.86 35.166 0 32.913 0zm2.452 47.852c0 1.372-1.1 2.49-2.452 2.49H4.087c-1.352 0-2.452-1.12-2.452-2.49V4.15c0-1.374 1.1-2.49 2.452-2.49h28.826c1.35 0 2.452 1.117 2.452 2.49v43.7zM31.823 4.426H5.26a.824.824 0 0 0-.818.83v9.956c0 .46.366.83.817.83h26.563c.45 0 .817-.372.817-.83V5.255a.824.824 0 0 0-.817-.83zM6.076 6.086h10.287L8.19 14.382H6.076V6.085zm24.93 8.297H17.04l2.353-2.39a.837.837 0 0 0 0-1.173.81.81 0 0 0-1.156 0l-3.51 3.562h-4.226l8.175-8.298h4.227l-2.353 2.39a.835.835 0 0 0 0 1.172.803.803 0 0 0 1.155-.001l3.51-3.562h5.79v8.3zm.817 4.425h-16.7a.826.826 0 0 0-.82.83c0 .46.367.83.82.83h16.7c.45 0 .817-.37.817-.83a.824.824 0 0 0-.817-.83zm-19.971 0H5.26a.824.824 0 0 0-.818.83c0 .46.366.83.817.83h6.592c.45 0 .817-.37.817-.83a.825.825 0 0 0-.818-.83zm0 0" fill="#fff"/></svg><svg version="1.2" baseProfile="tiny" width="40" height="40" viewBox="0 0 40 40" id="feedback" x="77"><path d="M36.99 15.142c-.002-1.185-.95-2.153-2.12-2.153l-17.71.007c-1.1 0-1.997.86-2.096 1.95-.03.09-.014 12.908-.014 12.908a2.152 2.152 0 0 0 1.745 2.12c.122.02.248.032.373.032L34.878 30c.568 0 1.097-.225 1.498-.632.4-.407.622-.947.62-1.523l-.006-12.703zm-1.094 10.442l-4.994-5.548a236.75 236.75 0 0 0 4.988-3.97l.006 9.518zM16.44 14.42c.193-.195.45-.305.72-.306l17.712-.007a1.016 1.016 0 0 1 .917.602c-.606.5-6.1 5.01-8.66 6.707a1.915 1.915 0 0 1-2.18-.03c-2.383-1.684-7.53-5.574-8.768-6.513a.994.994 0 0 1 .258-.455zm-.298 1.82c1.16.874 3.266 2.462 5.194 3.888l-5.19 5.71-.004-9.6zm19.456 12.338a.998.998 0 0 1-.72.304l-17.71.008a.989.989 0 0 1-.72-.304 1.03 1.03 0 0 1-.3-.73v-.37l6.086-6.695c.793.585 1.52 1.113 2.09 1.517a3.007 3.007 0 0 0 3.409.048c.634-.42 1.432-1 2.286-1.646l5.875 6.534.002.602a1.054 1.054 0 0 1-.3.733zM13.61 18.066a.558.558 0 0 0-.55-.56l-9.505.006c-.302 0-.55.25-.55.558a.559.559 0 0 0 .456.552c.03.005.063.01.097.006l9.505-.004c.303 0 .55-.248.55-.558zm0 3.284a.553.553 0 0 0-.55-.56h-5.7a.554.554 0 0 0-.55.56.554.554 0 0 0 .549.56l5.7-.004c.303 0 .55-.25.55-.557zm-.55 2.707H9.263a.554.554 0 0 0-.55.56.556.556 0 0 0 .55.558h3.8a.555.555 0 0 0 .55-.56.55.55 0 0 0-.55-.558z" fill="#132948"/></svg><svg version="1.2" baseProfile="tiny" width="40" height="40" viewBox="0 0 40 40" id="mail" y="52"><path d="M33.483 23.595c-.183-1.862-1.58-3.212-3.328-3.212-1.097 0-2.02.66-2.602 1.464-.586-.803-1.507-1.464-2.602-1.464-1.75 0-3.145 1.35-3.33 3.212-.016.122-.063.556.107 1.234.25 1 .825 1.91 1.66 2.627l4.167 3.545 4.164-3.548c.838-.716 1.413-1.625 1.663-2.626.168-.678.12-1.112.104-1.235zm-.992 1.017c-.202.817-.675 1.56-1.366 2.155l-3.57 3.038-3.57-3.038c-.69-.594-1.163-1.34-1.367-2.157-.138-.55-.09-.863-.09-.863l.007-.05c.112-1.194.98-2.4 2.418-2.4 1.002 0 1.82.822 2.184 1.64l.418.938.418-.938c.365-.82 1.18-1.64 2.184-1.64 1.44 0 2.304 1.207 2.422 2.443.004.002.053.314-.085.872zM18.11 19.86c.46.408 1.06.613 1.664.613.6 0 1.2-.205 1.66-.61l10.698-9.4v8.1a.456.456 0 0 0 .914-.001v-9.11l-.002-.01c0-.05-.01-.1-.027-.15-.002-.005-.005-.007-.005-.01-.005-.012-.014-.02-.018-.032a.558.558 0 0 0-.07-.102l-.037-.035a.514.514 0 0 0-.139-.083.428.428 0 0 0-.16-.034H6.958c-.06 0-.11.014-.16.034-.018.004-.03.013-.047.02a.557.557 0 0 0-.093.062l-.038.035a.438.438 0 0 0-.068.103l-.02.03c0 .005 0 .008-.004.01a.464.464 0 0 0-.026.15l-.002.012V27.22c.002.05.01.1.025.146.002.007.007.01.01.015.005.018.015.03.02.045a.56.56 0 0 0 .063.093.65.65 0 0 0 .132.101c.015.007.03.017.047.02.05.02.102.034.16.034H20.69a.458.458 0 0 0 .458-.456.458.458 0 0 0-.458-.455H8.272c2.083-1.642 6.776-5.365 9.188-7.47l.65.57zm13.268-9.95l-10.553 9.275c-.58.514-1.524.514-2.106-.002l-.908-.795c0-.002 0-.007-.003-.01-.01-.012-.028-.017-.04-.028L8.167 9.91h23.212zM7.414 26.275V10.462l9.353 8.22c-2.543 2.21-7.485 6.12-9.353 7.593zm0 0" fill="#152A49"/><path d="M14.61 18.066a.558.558 0 0 0-.55-.56l-9.505.006c-.302 0-.55.25-.55.558a.56.56 0 0 0 .456.552c.03.005.063.01.097.006l9.505-.004c.303 0 .55-.248.55-.558zm0 3.284a.553.553 0 0 0-.55-.56h-5.7a.554.554 0 0 0-.55.56.554.554 0 0 0 .549.56l5.7-.004c.303 0 .55-.25.55-.557zm-.55 2.707h-3.798a.554.554 0 0 0-.55.56.556.556 0 0 0 .55.558h3.8a.555.555 0 0 0 .55-.56.55.55 0 0 0-.55-.558z" fill="none"/></svg><svg version="1.2" baseProfile="tiny" width="40" height="40" viewBox="0 0 40 40" id="phone" x="40" y="52"><path d="M15.29 22.32c-1.212 0-2.228.736-2.873 1.635-.646-.9-1.663-1.635-2.875-1.635-1.93 0-3.473 1.506-3.675 3.587-.02.137-.072.62.116 1.38.274 1.117.908 2.13 1.833 2.933l4.21 3.627a.602.602 0 0 0 .39.147.6.6 0 0 0 .388-.147l4.21-3.627c.926-.8 1.56-1.816 1.833-2.934.188-.757.136-1.242.116-1.38-.2-2.08-1.742-3.586-3.673-3.586zm2.58 4.72c-.224.915-.747 1.746-1.51 2.408l-3.942 3.395-3.94-3.395c-.766-.66-1.287-1.496-1.512-2.408-.153-.616-.098-.966-.098-.966l.008-.052c.123-1.334 1.08-2.683 2.67-2.683 1.106 0 2.01.92 2.412 1.83l.46 1.05.463-1.05c.404-.913 1.305-1.835 2.413-1.835 1.59 0 2.545 1.35 2.676 2.73-.003.005.053.353-.1.974zm0 0l15.992-.22c-1.017-1.93-4.54-4.025-4.694-4.118-.646-.37-1.315-.487-1.883-.328-.427.12-.773.39-1.007.785-.516.62-1.155 1.344-1.31 1.46-1.197.814-2.15.717-3.182-.32l-5.807-5.845c-1.034-1.04-1.13-2-.32-3.202.114-.16.834-.803 1.45-1.32.393-.235.66-.585.78-1.015.156-.564.038-1.253-.327-1.9-.09-.15-2.17-3.698-4.087-4.72a2.468 2.468 0 0 0-2.93.443L9.264 8.037c-3.048 3.068-3.15 6.82-.29 10.843.164.227.477.28.707.115.23-.162.28-.48.118-.708-2.606-3.67-2.547-6.786.183-9.534l1.28-1.29a1.469 1.469 0 0 1 1.744-.262c1.666.888 3.668 4.3 3.685 4.33.227.402.312.82.23 1.117a.682.682 0 0 1-.345.425l-.076.054c-.433.36-1.46 1.238-1.674 1.558a4.24 4.24 0 0 0-.622 1.356 7.222 7.222 0 0 1-.746-2.483.51.51 0 0 0-.555-.455.51.51 0 0 0-.452.56c.366 3.54 3.1 5.84 3.217 5.936.012.01.027.015.042.025l5.36 5.4.07.06c.016.028.03.058.053.083.094.095 2.377 2.322 5.86 2.688.02 0 .036.003.053.003a.51.51 0 0 0 .051-1.017 8.867 8.867 0 0 1-2.803-.79 4.42 4.42 0 0 0 1.18-.585c.316-.216 1.187-1.25 1.547-1.682l.054-.077a.685.685 0 0 1 .422-.348c.296-.084.713.003 1.106.23.95.56 3.578 2.32 4.308 3.71a1.492 1.492 0 0 1-.262 1.754l-1.284 1.29c-2.724 2.744-5.957 2.77-9.61.08a.503.503 0 0 0-.706.11.51.51 0 0 0 .11.71c1.99 1.466 3.91 2.196 5.715 2.196 1.88 0 3.634-.792 5.208-2.377l1.285-1.29c.78-.784.954-1.97.44-2.95zm0 0" fill="#152A49"/></svg><svg version="1.2" baseProfile="tiny" width="16" height="16" viewBox="0 0 16 16" id="tel" x="80" y="52"><path fill="#FFF" d="M13.463 9.34c-.767-.79-1.897-.793-2.687-.007l-.99.993-.13-.064-.064-.034c-.094-.048-.183-.093-.266-.145-1.014-.64-1.94-1.48-2.826-2.57-.388-.486-.657-.897-.854-1.307.244-.228.478-.463.704-.69l.295-.3c.403-.402.617-.872.617-1.358 0-.484-.213-.953-.617-1.36L5.28 1.13C5.094.94 4.903.746 4.718.572c-.762-.758-1.877-.768-2.678 0L.835 1.77a2.75 2.75 0 0 0-.82 1.757c-.067.813.08 1.666.46 2.683.573 1.547 1.436 2.982 2.715 4.52a16.642 16.642 0 0 0 5.558 4.336c.82.39 1.92.846 3.174.928.076.002.15.006.222.006.884 0 1.596-.305 2.168-.926l.055-.065c.157-.188.337-.36.527-.547l.12-.114c.128-.126.26-.254.384-.386.792-.823.787-1.91-.01-2.707L13.462 9.34zm-8.99-3.92c-.426.427-.28.866-.214 1.056.254.618.613 1.2 1.163 1.897.988 1.21 2.022 2.148 3.16 2.868.15.096.305.177.448.245l.06.03c.097.05.19.096.27.15l.06.032c.395.2.803.13 1.13-.193l1.2-1.194c.283-.286.574-.17.735 0l1.93 1.924c.272.27.27.5-.013.794-.133.14-.27.273-.42.416l-.043.04c-.217.21-.44.426-.64.664-.31.336-.67.487-1.16.487-.05 0-.1-.004-.15-.006-1.01-.067-1.946-.46-2.65-.8a15.295 15.295 0 0 1-5.096-3.977c-1.177-1.41-1.965-2.718-2.482-4.118-.31-.83-.43-1.494-.383-2.092.03-.355.167-.65.422-.9l1.187-1.19c.13-.122.265-.19.386-.19.118 0 .243.065.376.198.212.2.413.403.626.62l1.284 1.29c.098.098.214.244.214.39 0 .145-.117.29-.215.39l-.3.302c-.294.304-.56.577-.89.867zM15.323.01h-4.056c-.38 0-.69.307-.69.686 0 .38.31.686.69.686h2.397L8.924 6.11a.684.684 0 1 0 .973.964l4.738-4.726v2.39a.689.689 0 0 0 1.378-.001V.695c0-.38-.31-.687-.69-.687z"/></svg></svg>