<svg xmlns="http://www.w3.org/2000/svg" width="74" height="104" viewBox="0 0 74 104"><path fill="#FFF" d="M63.647 46.469H50.132c-.902 0-1.634.743-1.634 1.66v6.639c0 .916.732 1.659 1.634 1.659h13.514c.902 0 1.635-.744 1.635-1.659v-6.639c0-.917-.732-1.66-1.634-1.66zm-1.635 6.638H51.767v-3.319h10.244v3.319zm0 0M23.704 79.108h-13.35c-.902 0-1.634.744-1.634 1.659v12.724c0 .916.732 1.66 1.634 1.66h13.351c.902 0 1.634-.744 1.634-1.66V80.767c-.001-.915-.733-1.659-1.635-1.659zm-1.635 12.723H11.988v-9.404h10.081v9.404zm0 0M43.594 79.108H30.243c-.903 0-1.635.744-1.635 1.659v12.724c0 .916.732 1.66 1.635 1.66h13.351c.902 0 1.634-.744 1.634-1.66V80.767c0-.915-.732-1.659-1.634-1.659zm-1.635 12.723H31.877v-9.404h10.081v9.404zm0 0M23.704 59.746h-13.35c-.902 0-1.634.742-1.634 1.659v12.723c0 .917.732 1.66 1.634 1.66h13.351c.902 0 1.634-.743 1.634-1.66V61.406c-.001-.917-.733-1.66-1.635-1.66zm-1.635 12.723H11.988v-9.405h10.081v9.405zm0 0M43.594 59.746H30.243c-.903 0-1.635.742-1.635 1.659v12.723c0 .917.732 1.66 1.635 1.66h13.351c.902 0 1.634-.743 1.634-1.66V61.406c0-.917-.732-1.66-1.634-1.66zm-1.635 12.723H31.877v-9.405h10.081v9.405zm0 0M63.647 59.746H50.132c-.902 0-1.634.742-1.634 1.659V93.49c0 .916.732 1.66 1.634 1.66h13.514c.902 0 1.635-.744 1.635-1.66V82.428c0-.916-.732-1.661-1.635-1.661s-1.635.744-1.635 1.661v9.404H51.767V63.065h10.244v12.724c0 .916.732 1.66 1.635 1.66.902 0 1.635-.744 1.635-1.66V61.406c0-.917-.732-1.66-1.634-1.66zm0 0"/><path fill="#FFF" d="M65.827 0H8.174C3.666 0 0 3.722 0 8.298v87.406c0 4.575 3.666 8.298 8.174 8.298h57.653c4.506 0 8.173-3.723 8.173-8.298V8.298C74 3.722 70.332 0 65.827 0zm4.904 95.704c0 2.745-2.201 4.979-4.904 4.979H8.174c-2.705 0-4.904-2.234-4.904-4.979V8.298c0-2.746 2.199-4.979 4.904-4.979h57.653c2.703 0 4.904 2.233 4.904 4.979v87.406zm0 0"/><path fill="#FFF" d="M63.647 8.852H10.518c-.903 0-1.635.743-1.635 1.658v19.915c0 .917.732 1.66 1.635 1.66h53.129c.902 0 1.635-.744 1.635-1.66V10.511c-.001-.916-.733-1.659-1.635-1.659zM12.152 12.17h20.573L16.379 28.767h-4.226V12.17zm49.86 16.597H34.081l4.706-4.778a1.678 1.678 0 0 0 0-2.347 1.619 1.619 0 0 0-2.313 0l-7.018 7.124h-8.454L37.351 12.17h8.454l-4.706 4.778a1.678 1.678 0 0 0 0 2.347 1.618 1.618 0 0 0 2.313 0l7.018-7.125h11.583v16.597zm0 0M63.647 37.617H30.243c-.903 0-1.635.745-1.635 1.661s.732 1.658 1.635 1.658h33.403c.902 0 1.635-.742 1.635-1.658 0-.916-.732-1.661-1.634-1.661zm0 0M23.704 37.617H10.518c-.903 0-1.635.745-1.635 1.661s.732 1.658 1.635 1.658h13.186c.902 0 1.634-.742 1.634-1.658 0-.916-.732-1.661-1.634-1.661zm0 0"/></svg>